<!-- Generator: Adobe Illustrator 21.0.2, SVG Export Plug-In  -->
<svg version="1.1"
	 xmlns="http://www.w3.org/2000/svg" xmlns:xlink="http://www.w3.org/1999/xlink" xmlns:a="http://ns.adobe.com/AdobeSVGViewerExtensions/3.0/"
	 x="0px" y="0px" width="43px" height="38.1px" viewBox="0 0 43 38.1" style="enable-background:new 0 0 43 38.1;"
	 xml:space="preserve">
<style type="text/css">
	.st0{fill:#262E39;}
</style>
<defs>
</defs>
<path class="st0" d="M21.5,38.1c-5.9,0-11.8,0-17.8,0c-0.5,0-1,0-1.5-0.1c-1.9-0.5-2.8-2.6-1.8-4.4c0.5-1,1.1-1.9,1.7-2.9
	c5.5-9.6,11.1-19.2,16.6-28.7c0.3-0.4,0.6-0.9,1-1.2c1.4-1.1,3.3-0.8,4.3,0.7c0.1,0.2,0.2,0.4,0.3,0.6c6,10.4,12,20.8,18,31.2
	c0.3,0.5,0.5,1.1,0.6,1.7c0.2,1.6-0.8,2.8-2.3,3.1c-0.4,0.1-0.9,0.1-1.4,0.1C33.3,38.1,27.4,38.1,21.5,38.1z M3,35
	c0.4,0,0.6,0.1,0.8,0.1c12,0,24.1,0,36.1,0c0,0,0,0,0.1-0.1c0,0,0,0,0.1-0.1C33.8,24.3,27.7,13.7,21.5,2.9C15.3,13.7,9.2,24.3,3,35z
	"/>
<path class="st0" d="M20,19.5c0-2.1,0-4.2,0-6.3c0-1.3,0.7-1.9,1.5-1.8c0.9,0,1.5,0.7,1.5,1.9c0,4.2,0,8.4,0,12.6c0,0.1,0,0.2,0,0.4
	c-0.1,0.9-0.7,1.5-1.5,1.5c-0.8,0-1.5-0.6-1.5-1.6C20,23.9,20,21.7,20,19.5z"/>
<path class="st0" d="M23,31.5c-0.1,0.4-0.1,0.8-0.2,1.1c-0.2,0.7-0.8,1-1.5,1c-0.7-0.1-1.2-0.6-1.3-1.2c-0.1-0.6-0.1-1.2,0-1.8
	c0.1-0.7,0.6-1.3,1.3-1.3c0.7-0.1,1.3,0.3,1.5,1.1C23,30.6,23,31,23,31.5z"/>
</svg>
