<!-- Generator: Adobe Illustrator 21.1.0, SVG Export Plug-In  -->
<svg version="1.1"
	 xmlns="http://www.w3.org/2000/svg" xmlns:xlink="http://www.w3.org/1999/xlink" xmlns:a="http://ns.adobe.com/AdobeSVGViewerExtensions/3.0/"
	 x="0px" y="0px" width="39.3px" height="32.4px" viewBox="0 0 39.3 32.4" style="enable-background:new 0 0 39.3 32.4;"
	 xml:space="preserve">
<style type="text/css">
	.st0{fill:#262E39;}
</style>
<defs>
</defs>
<path class="st0" d="M10.8,32.4c-1.1,0-2.2,0-3.3,0c0-10.8,0-21.5,0-32.4C8.5,0,9.6,0,10.7,0C10.9,0.7,11,31.1,10.8,32.4z"/>
<path class="st0" d="M35.8,32.4c-0.9,0-1.8,0-2.7,0c0-10.8,0-21.5,0-32.3c0.9,0,1.7,0,2.6,0C35.9,0.7,36,30.7,35.8,32.4z"/>
<path class="st0" d="M25.2,32.4c-0.9,0-1.8,0-2.7,0c0-10.8,0-21.5,0-32.3c0.9,0,1.8,0,2.6,0C25.3,0.7,25.4,31.2,25.2,32.4z"/>
<path class="st0" d="M16.1,32.4c-0.4,0-0.8,0-1.2,0c-0.2-0.7-0.2-31.2,0-32.4c0.4,0,0.8,0,1.2,0C16.1,10.8,16.1,21.6,16.1,32.4z"/>
<path class="st0" d="M18.4,0c0.4,0,0.8,0,1.1,0c0.2,0.7,0.3,30.8,0.1,32.4c-0.4,0-0.8,0-1.2,0C18.2,31.8,18.2,1.5,18.4,0z"/>
<path class="st0" d="M3.5,0C4,0,4.3,0,4.7,0c0.2,0.7,0.2,31.2,0.1,32.4c-0.4,0-0.8,0-1.2,0C3.5,21.6,3.5,10.9,3.5,0z"/>
<path class="st0" d="M0,0c0.5,0,0.8,0,1.3,0c0,10.8,0,21.5,0,32.3c-0.4,0-0.8,0-1.3,0C0,21.6,0,10.9,0,0z"/>
<path class="st0" d="M38.1,0c0.5,0,0.8,0,1.3,0c0,10.8,0,21.5,0,32.3c-0.4,0-0.8,0-1.3,0C38.1,21.6,38.1,10.9,38.1,0z"/>
<path class="st0" d="M28.2,0c0.5,0,0.8,0,1.3,0c0,10.8,0,21.5,0,32.4c-0.4,0-0.8,0-1.3,0C28.2,21.6,28.2,10.9,28.2,0z"/>
</svg>
