<!-- Generator: Adobe Illustrator 21.0.2, SVG Export Plug-In  -->
<svg version="1.1"
	 xmlns="http://www.w3.org/2000/svg" xmlns:xlink="http://www.w3.org/1999/xlink" xmlns:a="http://ns.adobe.com/AdobeSVGViewerExtensions/3.0/"
	 x="0px" y="0px" width="42.8px" height="30.9px" viewBox="0 0 42.8 30.9" style="enable-background:new 0 0 42.8 30.9;"
	 xml:space="preserve">
<style type="text/css">
	.st0{fill:#262E39;}
</style>
<defs>
</defs>
<path class="st0" d="M3.2,25.7c-0.6,0-1.3,0-1.9,0c-1,0-1.3-0.3-1.3-1.3C0,16.7,0,9,0,1.3C0,0.2,0.3,0,1.4,0C7,0,12.6,0,18.2,0
	c3.2,0,6.4,0,9.6,0c0.2,0,0.4,0,0.7,0c0.8,0,1.1,0.3,1.1,1.2c0,0.2,0,0.4,0,0.7c0,2.7,0,5.3,0,8c0,0.3,0,0.7,0,1.1
	c0.4,0,0.8,0,1.1,0c2.3,0,4.6,0,6.9,0c0.8,0,1.3,0.3,1.7,1c1,1.9,2.2,3.8,3.2,5.7c0.2,0.4,0.3,0.9,0.4,1.3c0,1.8,0,3.6,0,5.4
	c0,1.1-0.3,1.3-1.4,1.4c-0.5,0-0.9,0-1.3,0c-0.5,3.5-2.3,5.4-5,5.2c-2-0.1-4.6-1.5-4.6-5.1c-0.6-0.2-16.3-0.2-17.6-0.1
	c0,1.6-0.5,3.1-1.9,4.1c-0.9,0.7-1.9,1-3,1C5.3,30.9,3.7,29.1,3.2,25.7z M27.6,23.8c0-7.4,0-14.6,0-21.9c-8.6,0-17.1,0-25.7,0
	c0,7.3,0,14.5,0,21.8c0.3,0,0.5,0,0.8,0.1C3.5,23.9,4,23.7,4.6,23c1.9-2.2,5.3-2.1,7.2,0.2c0.4,0.5,0.7,0.6,1.3,0.6
	c4.5,0,9.1,0,13.6,0C26.9,23.8,27.2,23.8,27.6,23.8z M29.6,23.7c1.3,0.3,1.3,0.2,2.1-0.7c0.9-1,2.1-1.6,3.5-1.6
	c1.6,0,2.8,0.6,3.8,1.9c0.3,0.4,0.6,0.6,1.1,0.5c0.3,0,0.5,0,0.9-0.1c0-1.3,0-2.6,0-3.9c0-0.9-0.2-1.6-0.7-2.3
	c-0.2-0.4-0.5-0.5-0.9-0.5c-1,0-2,0-3,0c-0.2,0-0.5,0-0.7,0c-0.6-0.1-0.9-0.4-0.9-0.9c0-0.5,0.3-0.9,0.9-1c0.3,0,0.7,0,1,0
	c0.7,0,1.3,0,2.2,0c-0.4-0.7-0.7-1.2-1-1.8c-0.2-0.5-0.6-0.6-1.1-0.6c-2.2,0-4.3,0-6.5,0c-0.2,0-0.5,0-0.7,0.1
	C29.6,16.5,29.6,20.1,29.6,23.7z M8.1,23.3c-1.6,0-2.9,1.3-2.9,2.9c0,1.5,1.3,2.8,2.8,2.9c1.6,0,2.9-1.3,2.9-2.9
	C10.9,24.6,9.7,23.3,8.1,23.3z M38.1,26.2c0-1.6-1.2-2.8-2.8-2.9c-1.6,0-2.9,1.2-2.9,2.8c0,1.6,1.3,2.9,2.8,2.9
	C36.8,29.1,38.1,27.8,38.1,26.2z"/>
<path class="st0" d="M9,26.1c0,0.5-0.4,0.9-0.9,1c-0.5,0-0.9-0.3-0.9-0.8c0-0.5,0.3-1,0.8-1C8.5,25.2,9,25.6,9,26.1z"/>
<path class="st0" d="M35.3,25.2c0.5,0,0.9,0.5,0.9,1c0,0.5-0.5,0.9-1,0.9c-0.5,0-0.9-0.4-0.9-0.9C34.3,25.7,34.8,25.2,35.3,25.2z"/>
</svg>
