<!-- Generator: Adobe Illustrator 21.0.2, SVG Export Plug-In  -->
<svg version="1.1"
	 xmlns="http://www.w3.org/2000/svg" xmlns:xlink="http://www.w3.org/1999/xlink" xmlns:a="http://ns.adobe.com/AdobeSVGViewerExtensions/3.0/"
	 x="0px" y="0px" width="27.6px" height="37.7px" viewBox="0 0 27.6 37.7" style="enable-background:new 0 0 27.6 37.7;"
	 xml:space="preserve">
<style type="text/css">
	.st0{fill:#262E39;}
</style>
<defs>
</defs>
<path class="st0" d="M22.6,35.2c0,0.5,0,1,0,1.4c0,0.4,0.1,0.8-0.3,1c-0.4,0.2-0.7-0.1-1-0.3c-0.8-0.6-1.6-1.3-2.4-1.9
	c-0.7,0.6-1.3,1.1-2,1.6c-0.2,0.2-0.4,0.3-0.6,0.5c-0.7,0.5-1.1,0.3-1.2-0.5c0-0.3,0-0.6,0-0.8c0-0.2,0-0.5,0-0.9c-0.4,0-0.7,0-1,0
	c-4.2,0-8.4,0-12.6,0c-0.2,0-0.4,0-0.7,0c-0.6,0-0.7-0.2-0.8-0.8c0-0.2,0-0.4,0-0.6C0,23,0,12.2,0,1.4c0-0.2,0-0.4,0-0.6
	c0-0.6,0.2-0.8,0.9-0.8c0.2,0,0.4,0,0.7,0c6.1,0,12.2,0,18.3,0c0.8,0,1.4,0.3,1.9,0.8C23.5,2.6,25.2,4.3,27,6
	c0.5,0.4,0.6,0.9,0.6,1.6c0,8.7,0,17.5,0,26.2c0,0.2,0,0.3,0,0.5c0,0.7-0.2,0.9-0.9,0.9c-1.1,0-2.1,0-3.2,0
	C23.3,35.2,23,35.2,22.6,35.2z M15.1,33.9c-0.1-1.1,0.4-2.2-0.5-3.1c-0.1-0.1-0.2-0.3-0.2-0.4c-0.1-0.4-0.3-0.7-0.7-0.9
	c-0.9-0.6-1.1-1.5-0.8-2.5c0.1-0.4,0.1-0.7,0-1.1c-0.3-1.1-0.1-1.8,0.8-2.5c0.3-0.2,0.5-0.5,0.6-0.9c0.3-1,1-1.5,2.1-1.5
	c0.4,0,0.7-0.1,1-0.3c1-0.7,1.7-0.7,2.7,0c0.3,0.2,0.6,0.3,0.9,0.3c1.2,0,1.8,0.4,2.2,1.5c0.1,0.4,0.3,0.6,0.6,0.9
	c0.9,0.7,1.1,1.4,0.8,2.5c-0.1,0.3-0.1,0.6,0,1c0.4,1.2,0.2,1.9-0.8,2.6c-0.3,0.2-0.5,0.5-0.6,0.8c-0.1,0.3-0.3,0.6-0.5,0.9
	c-0.1,0.2-0.2,0.3-0.2,0.5c0,0.7,0,1.5,0,2.2c1.3,0,2.5,0,3.7,0c0.2-1.4,0.1-25.6-0.1-26.3c-0.3,0-0.6,0-0.9,0c-1.2,0-2.5,0-3.7,0
	c-1.5,0-1.5,0-1.5-1.5c0-1.3,0-2.7,0-4c0-0.2,0-0.5-0.1-0.7C18.2,1.1,2,1.2,1.3,1.4c0,10.8,0,21.6,0,32.5
	C5.9,33.9,10.4,33.9,15.1,33.9z M16.7,22.2c-0.8,0-1.1,0.2-1.3,1c-0.1,0.5-0.3,0.8-0.8,1.1c-0.7,0.4-0.9,0.8-0.5,1.5
	c0.2,0.5,0.2,0.8,0,1.3c-0.4,0.8-0.3,1.1,0.5,1.5c0.4,0.2,0.7,0.5,0.8,1c0.1,0.9,0.5,1.1,1.4,1c0.4-0.1,0.8,0,1.1,0.3
	c0.8,0.7,1,0.7,1.8,0c0.3-0.3,0.6-0.4,1.1-0.3c0.9,0.1,1.2-0.1,1.4-1c0.1-0.5,0.3-0.8,0.8-1c0.7-0.4,0.9-0.8,0.5-1.4
	c-0.3-0.5-0.3-0.9,0-1.5c0.3-0.6,0.2-1-0.4-1.3c-0.6-0.3-0.9-0.7-1-1.3c-0.1-0.7-0.5-0.9-1.1-0.8c-0.6,0.1-1,0-1.4-0.4
	c-0.6-0.6-1-0.6-1.5,0C17.6,22.2,17.2,22.4,16.7,22.2z M21.3,35.7c0-1.4,0-2.6,0-4c-0.4,0.1-0.7,0.1-1,0.3c-1,0.8-2,0.8-3,0
	c-0.2-0.2-0.6-0.2-1-0.3c0,1.4,0,2.6,0,3.9c0.7-0.5,1.2-1,1.8-1.4c0.6-0.5,0.7-0.5,1.4,0C20.1,34.7,20.6,35.2,21.3,35.7z M21.4,6.2
	c1.5,0.2,3.3,0.1,3.7,0c-1.2-1.2-2.4-2.4-3.7-3.7C21.4,3.7,21.4,4.9,21.4,6.2z"/>
<path class="st0" d="M13.8,17.6c-2.5,0-5,0-7.5,0c-0.3,0-0.6,0-0.8-0.1c-0.2-0.1-0.4-0.4-0.4-0.5c0-0.2,0.3-0.5,0.5-0.6
	c0.2-0.1,0.4,0,0.6,0c5.1,0,10.2,0,15.3,0c0.8,0,1,0.2,1.1,0.6c0,0.5-0.3,0.7-1.1,0.7C18.9,17.6,16.4,17.6,13.8,17.6z"/>
<path class="st0" d="M13.8,13.8c-2.5,0-5,0-7.4,0c-0.3,0-0.6,0.1-0.8-0.1c-0.2-0.1-0.5-0.4-0.5-0.6c0-0.2,0.3-0.4,0.5-0.6
	c0.1-0.1,0.4,0,0.5,0c5.1,0,10.2,0,15.3,0c0.2,0,0.5,0,0.6,0.1c0.2,0.1,0.4,0.4,0.4,0.6c0,0.2-0.2,0.4-0.4,0.5
	c-0.2,0.1-0.5,0.1-0.8,0.1C18.8,13.8,16.3,13.8,13.8,13.8z"/>
<path class="st0" d="M13.8,10c-0.9,0-1.8,0-2.7,0c-0.2,0-0.4,0.1-0.5,0c-0.2-0.1-0.5-0.4-0.5-0.6c0-0.2,0.3-0.4,0.5-0.6
	c0.1-0.1,0.4,0,0.5,0c1.8,0,3.6,0,5.4,0c0.2,0,0.4,0,0.6,0c0.3,0,0.5,0.2,0.5,0.6c0,0.4-0.2,0.6-0.6,0.6c-0.5,0-1,0-1.5,0
	C14.9,10,14.4,10,13.8,10z"/>
</svg>
