<!-- Generator: Adobe Illustrator 21.0.2, SVG Export Plug-In  -->
<svg version="1.1"
	 xmlns="http://www.w3.org/2000/svg" xmlns:xlink="http://www.w3.org/1999/xlink" xmlns:a="http://ns.adobe.com/AdobeSVGViewerExtensions/3.0/"
	 x="0px" y="0px" width="28px" height="35.3px" viewBox="0 0 28 35.3" style="enable-background:new 0 0 28 35.3;"
	 xml:space="preserve">
<style type="text/css">
	.st0{fill:#262E39;}
</style>
<defs>
</defs>
<path class="st0" d="M8.1,2.2c0.2-0.3,0.3-0.6,0.4-0.8C9.1,0.6,9.8,0,10.8,0c2.1,0,4.3,0,6.4,0c1,0,1.7,0.5,2.2,1.3
	c0.2,0.2,0.3,0.5,0.4,0.8c1.5,0,2.9,0,4.4,0c0.4,0,0.9,0,1.3,0.1c1.3,0.2,2.2,1.2,2.4,2.5c0,0.3,0,0.7,0,1c0,8.7,0,17.3,0,26
	c0,0.4,0,0.7-0.1,1.1c-0.2,1.2-1.1,2.2-2.4,2.4c-0.4,0.1-0.7,0.1-1.1,0.1c-7,0-14,0-20.9,0c-0.4,0-0.7,0-1.1-0.1
	C1.1,35,0.1,33.9,0,32.6c0-0.2,0-0.4,0-0.7c0-8.8,0-17.6,0-26.3c0-0.2,0-0.5,0-0.7c0.1-1.3,1.1-2.3,2.3-2.6c0.4-0.1,0.9-0.1,1.3-0.1
	C5.1,2.2,6.6,2.2,8.1,2.2z M8.1,3.6c-1.5,0-3,0-4.5,0C1.9,3.6,1.5,4,1.5,5.8c0,8.6,0,17.2,0,25.8c0,0.3,0,0.6,0,0.8
	c0.1,0.8,0.5,1.3,1.3,1.4c0.3,0,0.6,0,0.8,0c6.9,0,13.8,0,20.7,0c0.2,0,0.4,0,0.7,0c0.9-0.1,1.5-0.6,1.5-1.5c0-0.2,0-0.4,0-0.7
	c0-8.6,0-17.2,0-25.9c0-0.2,0-0.5,0-0.7c-0.1-0.8-0.6-1.4-1.4-1.4c-1.8,0-3.5,0-5.3,0c-0.2,0.3-0.3,0.6-0.4,0.8
	c-0.6,0.9-1.3,1.4-2.4,1.4c-2,0-4.1,0-6.1,0c-1,0-1.8-0.5-2.4-1.4C8.4,4.2,8.3,3.9,8.1,3.6z M13.9,4.4c1,0,2,0,3,0
	c0.9,0,1.5-0.6,1.5-1.4c0-0.8-0.5-1.5-1.4-1.5c-2-0.1-4-0.1-6,0c-0.9,0-1.5,0.7-1.5,1.6c0,0.8,0.6,1.3,1.6,1.4
	C12.1,4.4,13,4.4,13.9,4.4z"/>
<path class="st0" d="M11.8,25.8c0,1.6-1.4,3-3,2.9c-1.6,0-2.9-1.4-2.9-3c0-1.6,1.3-2.9,2.9-2.9C10.4,22.8,11.8,24.1,11.8,25.8z
	 M10.3,25.8c0-0.8-0.6-1.5-1.4-1.5c-0.8,0-1.5,0.6-1.5,1.4c0,0.8,0.6,1.5,1.4,1.5C9.6,27.2,10.3,26.6,10.3,25.8z"/>
<path class="st0" d="M8.4,15.2c0.9-1,1.7-1.9,2.5-2.7c0.1-0.2,0.3-0.3,0.5-0.5c0.3-0.2,0.6-0.3,0.9,0c0.3,0.3,0.3,0.6,0.1,0.9
	c-0.1,0.1-0.1,0.2-0.2,0.3c-1,1.1-1.9,2.2-2.9,3.2C8.7,17,8.4,17,7.8,16.6c-0.5-0.4-0.9-0.7-1.4-1.1c-0.5-0.4-0.6-0.8-0.3-1.2
	c0.3-0.4,0.7-0.4,1.2,0C7.6,14.6,8,14.8,8.4,15.2z"/>
<path class="st0" d="M18.4,15.5c-0.8,0-1.7,0-2.5,0c-0.2,0-0.5,0-0.7-0.1c-0.2-0.1-0.4-0.4-0.4-0.7c0-0.3,0.2-0.6,0.6-0.6
	c0.2,0,0.3,0,0.5,0c1.7,0,3.5,0,5.2,0c0.2,0,0.3,0,0.5,0c0.4,0,0.6,0.3,0.6,0.6c0.1,0.4-0.2,0.7-0.5,0.8c-0.2,0.1-0.5,0.1-0.7,0.1
	C20,15.5,19.2,15.5,18.4,15.5z"/>
<path class="st0" d="M18.4,25c0.8,0,1.7,0,2.5,0c0.2,0,0.4,0,0.6,0c0.4,0.1,0.6,0.3,0.6,0.7c0,0.4-0.2,0.6-0.6,0.7
	c-0.2,0-0.4,0-0.6,0c-1.7,0-3.3,0-5,0c-0.1,0-0.2,0-0.4,0c-0.5-0.1-0.8-0.3-0.8-0.7s0.3-0.7,0.8-0.7c0.5,0,1,0,1.6,0
	C17.6,25,18,25,18.4,25z"/>
</svg>
