<!-- Generator: Adobe Illustrator 21.0.2, SVG Export Plug-In  -->
<svg version="1.1"
	 xmlns="http://www.w3.org/2000/svg" xmlns:xlink="http://www.w3.org/1999/xlink" xmlns:a="http://ns.adobe.com/AdobeSVGViewerExtensions/3.0/"
	 x="0px" y="0px" width="33.1px" height="27.9px" viewBox="0 0 33.1 27.9" style="enable-background:new 0 0 33.1 27.9;"
	 xml:space="preserve">
<style type="text/css">
	.st0{fill:#262E39;}
</style>
<defs>
</defs>
<path class="st0" d="M21.8,23.3c3.3,0,6.5,0,9.8,0c0.3,0,0.7,0,1,0.1c0.4,0.1,0.6,0.5,0.6,0.9c0,0.4-0.2,0.7-0.6,0.8
	c-0.3,0.1-0.5,0.1-0.8,0.1c-6.6,0-13.2,0-19.8,0c-0.2,0-0.4,0-0.6,0c-0.6-0.1-0.8-0.5-0.8-1c0-0.5,0.3-0.8,0.9-0.9
	c0.3-0.1,0.6,0,0.8,0C15.3,23.3,18.5,23.3,21.8,23.3z"/>
<path class="st0" d="M21.8,4.5c-3.2,0-6.4,0-9.7,0c-0.3,0-0.6,0-0.9,0c-0.5-0.1-0.8-0.4-0.8-0.9c0-0.5,0.3-0.8,0.7-0.9
	c0.2-0.1,0.5,0,0.7,0c6.6,0,13.2,0,19.8,0c0.3,0,0.6,0,0.8,0.1c0.4,0.1,0.7,0.5,0.6,0.9c0,0.5-0.3,0.8-0.7,0.9
	c-0.3,0.1-0.6,0.1-0.9,0.1C28.3,4.5,25,4.5,21.8,4.5z"/>
<path class="st0" d="M21.7,14.9c-3.2,0-6.4,0-9.7,0c-0.3,0-0.6,0-0.9-0.1c-0.5-0.1-0.7-0.5-0.7-0.9c0-0.5,0.3-0.8,0.8-0.9
	c0.3-0.1,0.6,0,0.8,0c6.5,0,13,0,19.5,0c0.3,0,0.6,0,0.8,0c0.5,0.1,0.8,0.4,0.8,0.9c0,0.4-0.3,0.8-0.7,0.9c-0.3,0.1-0.6,0.1-0.9,0.1
	C28.2,14.9,25,14.9,21.7,14.9z"/>
<path class="st0" d="M2.9,4.8C4,3.4,5,2.2,6,0.9c0.2-0.2,0.3-0.4,0.5-0.6c0.4-0.4,1-0.4,1.4-0.1c0.4,0.3,0.5,0.9,0.2,1.3
	C8,1.7,7.9,1.9,7.7,2C6.5,3.5,5.4,5,4.1,6.5C3.5,7.3,3,7.4,2.2,6.8C1.6,6.4,1,5.9,0.5,5.5C-0.1,5-0.1,4.5,0.2,4
	c0.4-0.5,0.9-0.6,1.5-0.2C2.1,4.1,2.4,4.4,2.9,4.8z"/>
<path class="st0" d="M2.9,25.5c0.2-0.3,0.5-0.5,0.6-0.8c0.9-1.2,1.8-2.3,2.8-3.5c0.5-0.6,1.1-0.7,1.5-0.3c0.5,0.4,0.5,1,0.1,1.6
	c-1.3,1.7-2.6,3.3-4,4.9c-0.5,0.6-1,0.7-1.6,0.2c-0.6-0.4-1.3-0.9-1.9-1.4c-0.6-0.4-0.6-1-0.3-1.5c0.4-0.5,0.9-0.6,1.6-0.2
	C2.1,24.9,2.5,25.2,2.9,25.5z"/>
<path class="st0" d="M2.9,15.1c1-1.2,2-2.4,2.9-3.7c0.2-0.3,0.4-0.5,0.7-0.8c0.4-0.4,0.9-0.4,1.3-0.1c0.4,0.3,0.5,0.9,0.2,1.3
	C8,12,7.9,12.2,7.8,12.3c-1.2,1.5-2.5,3.1-3.7,4.6c-0.6,0.8-1.1,0.8-1.9,0.2c-0.6-0.4-1.1-0.8-1.6-1.2c-0.6-0.5-0.7-1-0.4-1.5
	c0.4-0.5,0.9-0.6,1.6-0.1C2.1,14.5,2.5,14.8,2.9,15.1z"/>
</svg>
