<!-- Generator: Adobe Illustrator 21.0.2, SVG Export Plug-In  -->
<svg version="1.1"
	 xmlns="http://www.w3.org/2000/svg" xmlns:xlink="http://www.w3.org/1999/xlink" xmlns:a="http://ns.adobe.com/AdobeSVGViewerExtensions/3.0/"
	 x="0px" y="0px" width="35.6px" height="35.6px" viewBox="0 0 35.6 35.6" style="enable-background:new 0 0 35.6 35.6;"
	 xml:space="preserve">
<style type="text/css">
	.st0{fill:#262E39;}
</style>
<defs>
</defs>
<path class="st0" d="M17.8,35.6C8,35.6,0,27.7,0,17.8C0,8,8,0,17.8,0c9.8,0,17.8,8,17.8,17.8C35.6,27.6,27.6,35.6,17.8,35.6z
	 M17.7,34.4c8.8,0.1,16.6-7,16.7-16.5C34.5,8.7,27,1.2,17.8,1.2C8.7,1.2,1.2,8.6,1.2,17.8C1.1,27,8.6,34.4,17.7,34.4z"/>
<path class="st0" d="M23.5,20.3c0.6,0.1,1.1,0.2,1.7,0.4c-0.2,0.5-0.2,1,0.3,1.5c-0.4,0-0.7,0-1,0.1c-0.2,0.1-0.4,0.3-0.7,0.6
	c-0.2-0.6-0.4-1.1-1.3-1.2C23.2,21.3,23.6,20.8,23.5,20.3z"/>
<path class="st0" d="M12.1,20.1c-0.1,0.7,0.2,1.2,0.6,1.4c-0.4,0.4-0.8,0.8-1.2,1.3c-0.3-0.4-0.8-0.6-1.4-0.5
	c0.4-0.9,0.4-0.9,0.2-1.7c0.3,0,0.6,0.1,0.9,0.1C11.5,20.6,11.8,20.4,12.1,20.1z"/>
<path class="st0" d="M18.5,11.7c-0.4-0.4-0.9-0.3-1.4,0c-0.2-0.6-0.3-1.1-0.5-1.7c0.4-0.1,1-0.3,1.1-1.1c0.2,0.4,0.3,0.6,0.5,0.8
	c0.2,0.2,0.5,0.2,0.7,0.3C18.8,10.5,18.7,11,18.5,11.7z"/>
<path class="st0" d="M21,23.4c0.1-0.2,0.3-0.4,0.5-0.7c0.3,0.6,0.6,1.1,1.4,1.2c-0.6,0.4-0.9,0.9-0.7,1.7c-0.6-0.4-1.1-0.6-1.7-0.2
	c0.1-0.7,0.2-1.3-0.5-1.8C20.5,23.5,20.7,23.4,21,23.4z"/>
<path class="st0" d="M15.2,25.3c-0.9-0.3-0.9-0.3-1.8,0.1c0.1-0.7-0.1-1.1-0.6-1.5c0.9-0.4,0.9-0.4,1.3-1.2c0.1,0.1,0.2,0.2,0.3,0.3
	c0.1,0.1,0.2,0.2,0.3,0.4c0.3,0,0.6,0,0.9,0.1C15.1,24,14.8,24.5,15.2,25.3z"/>
<path class="st0" d="M9,17.8c0.7-0.5,0.7-0.5,0.9-1.3c0.5,0.4,1,0.7,1.8,0.4c-0.4,0.7-0.5,1.2-0.2,1.6C11,18.7,10.5,18.8,10,19
	C9.8,18.4,9.8,18.4,9,17.8z"/>
<path class="st0" d="M23.9,16.9c0.8,0.3,1.3,0.1,1.8-0.5c0,0.8,0.4,1.2,1.1,1.4c-0.7,0.3-1.1,0.7-1.1,1.2c-0.6-0.2-1.1-0.3-1.6-0.5
	C24.3,17.8,24.3,17.8,23.9,16.9z"/>
<path class="st0" d="M19.4,25.6c-0.8,0.2-1.4,0.4-1.5,1.2c-0.2-0.4-0.3-0.7-0.6-0.8c-0.2-0.2-0.5-0.2-0.7-0.3c0.2-0.5,0.4-1,0.6-1.6
	c0.4,0.1,0.9,0.5,1.4-0.3C18.6,24.6,18.5,25.2,19.4,25.6z"/>
<path class="st0" d="M20.6,10.4c0.6,0.3,1.1,0.1,1.7-0.3c-0.1,0.7,0,1.2,0.7,1.5c-0.7,0.2-1.2,0.6-1.3,1.2c-0.6-0.7-0.6-0.7-1.4-0.9
	C20.5,11.6,20.8,11.1,20.6,10.4z"/>
<path class="st0" d="M13.3,10.2c0.9,0.4,0.9,0.4,1.7,0.2c0,0.5-0.3,1.2,0.6,1.6c-0.8,0.2-1.4,0.3-1.5,0.8c-0.4-0.4-0.8-0.8-1.3-1.2
	C13.2,11.3,13.5,10.9,13.3,10.2z"/>
<path class="st0" d="M25.5,13.4c-0.3,0.5-0.7,1,0,1.7c-0.8-0.1-1.4-0.2-1.9,0.5c-0.1-0.4-0.1-0.7-0.2-1c-0.2-0.2-0.4-0.3-0.7-0.5
	c0.7-0.2,1.1-0.6,1.2-1.3c0.3,0.3,0.5,0.5,0.7,0.6C24.8,13.4,25.1,13.4,25.5,13.4z"/>
<path class="st0" d="M10.1,13.4c0.7,0.1,1.2-0.1,1.6-0.7c0.2,0.7,0.5,1.2,1.3,1.3c-0.3,0.2-0.5,0.4-0.8,0.6c0,0.2-0.1,0.5-0.1,0.9
	c-0.5-0.4-1-0.6-1.7-0.3c0.1-0.4,0.2-0.7,0.2-0.9C10.5,14,10.3,13.7,10.1,13.4z"/>
</svg>
