<!-- Generator: Adobe Illustrator 21.0.2, SVG Export Plug-In  -->
<svg version="1.1"
	 xmlns="http://www.w3.org/2000/svg" xmlns:xlink="http://www.w3.org/1999/xlink" xmlns:a="http://ns.adobe.com/AdobeSVGViewerExtensions/3.0/"
	 x="0px" y="0px" width="25.3px" height="37.2px" viewBox="0 0 25.3 37.2" style="enable-background:new 0 0 25.3 37.2;"
	 xml:space="preserve">
<style type="text/css">
	.st0{fill:#262E39;}
</style>
<defs>
</defs>
<path class="st0" d="M0,18.5C0,12.9,0,7.2,0,1.6c0-0.2,0-0.5,0-0.7c0-0.5,0.3-0.8,0.8-0.8C1,0,1.3,0,1.5,0c7.4,0,14.9,0,22.3,0
	c0.2,0,0.3,0,0.5,0c0.8,0,1,0.3,1,1c0,0.2,0,0.4,0,0.7c0,11.3,0,22.6,0,33.9c0,0.2,0,0.4,0,0.7c0,0.7-0.3,0.9-1,1
	c-0.2,0-0.4,0-0.6,0c-7.4,0-14.8,0-22.2,0c-0.2,0-0.4,0-0.7,0c-0.6,0-0.8-0.3-0.9-0.8c0-0.2,0-0.5,0-0.7C0,29.9,0,24.2,0,18.5z
	 M23.7,35.7c0.2-1.5,0.1-33.5-0.1-34.2c-7.4,0-14.7,0-22.1,0C1.4,3.1,1.5,35,1.6,35.7C9,35.7,16.3,35.7,23.7,35.7z"/>
<path class="st0" d="M9,26.6c1.1-0.6,1.6-0.5,1.7,1.1c1,0,1.9-0.2,2.8-0.6c0.4-0.2,0.6-0.4,0.6-0.8c0.2-0.9,0.2-0.9,1.2-1.1
	c0.4,0,0.7-0.1,1.1-0.1c0.4,0,0.7,0.3,0.7,0.7c0.1,0.4-0.3,0.7-0.8,0.8c-0.2,0-0.5,0-0.8,0c-0.3,1.3-1.3,1.9-2.5,2.2
	c-0.7,0.2-1.4,0.3-2.1,0.4c-0.4,0.1-0.7,0.2-0.9,0.7c-0.1,0.3-0.3,0.7-0.6,0.9c-0.6,0.6-1.3,0.6-1.8-0.1c-0.5-0.7-0.8-1.4-0.4-2.2
	c0.1-0.2,0.2-0.5,0.3-0.9c-0.4,0.3-0.6,0.4-0.9,0.5c-0.3,0.1-0.7,0.3-1.1,0.3c-0.4,0-0.7-0.2-0.7-0.6c0-0.3,0.2-0.7,0.4-0.7
	c1.2-0.3,1.5-1.3,2.1-2.1c0.4-0.8,0.7-1,1.1-0.8c0.6,0.2,0.5,0.8,0.5,1.3C9,25.8,9,26.2,9,26.6z"/>
<path class="st0" d="M12.6,7.4c-2.3,0-4.5,0-6.8,0c-0.2,0-0.5,0-0.7,0C4.7,7.3,4.4,7.1,4.5,6.7C4.6,6.4,4.8,6.2,5,6
	C5.2,5.9,5.5,6,5.7,6c4.6,0,9.3,0,13.9,0c0.8,0,1.2,0.2,1.2,0.7c0,0.5-0.4,0.8-1.2,0.8C17.2,7.4,14.9,7.4,12.6,7.4z"/>
<path class="st0" d="M11.9,16.4c-2,0-4,0-6,0c-0.2,0-0.4,0-0.7,0c-0.4,0-0.7-0.3-0.7-0.7c0-0.4,0.3-0.7,0.8-0.8c0.2,0,0.3,0,0.5,0
	c4.1,0,8.2,0,12.4,0c0.2,0,0.4,0,0.6,0c0.4,0.1,0.6,0.3,0.6,0.7c0,0.4-0.2,0.6-0.6,0.7c-0.2,0-0.5,0-0.7,0
	C15.9,16.4,13.9,16.4,11.9,16.4z"/>
<path class="st0" d="M11.9,11.9c-2,0-4,0-6,0c-0.2,0-0.4,0-0.7,0c-0.4,0-0.7-0.3-0.7-0.7c0-0.4,0.3-0.7,0.8-0.8c0.2,0,0.3,0,0.5,0
	c4.1,0,8.2,0,12.4,0c0.2,0,0.4,0,0.6,0c0.4,0.1,0.6,0.3,0.6,0.7c0,0.4-0.2,0.6-0.6,0.7c-0.2,0-0.5,0-0.7,0
	C15.9,11.9,13.9,11.9,11.9,11.9z"/>
</svg>
