<!-- Generator: Adobe Illustrator 21.0.2, SVG Export Plug-In  -->
<svg version="1.1"
	 xmlns="http://www.w3.org/2000/svg" xmlns:xlink="http://www.w3.org/1999/xlink" xmlns:a="http://ns.adobe.com/AdobeSVGViewerExtensions/3.0/"
	 x="0px" y="0px" width="33.7px" height="33.8px" viewBox="0 0 33.7 33.8" style="enable-background:new 0 0 33.7 33.8;"
	 xml:space="preserve">
<style type="text/css">
	.st0{fill:#262E39;}
</style>
<defs>
</defs>
<path class="st0" d="M22.2,3.8c0.4,0,0.7,0,1,0c0.1,0,0.3,0,0.6,0c0-0.7,0-1.4,0-2.1c0-0.3,0-0.6,0-0.8C23.9,0.3,24.1,0,24.6,0
	c0.4,0,0.7,0.3,0.8,0.8c0,0.5,0,1,0,1.5c0,0.5,0,0.9,0,1.5c0.5,0,0.9,0,1.5,0c0-0.5,0-1,0-1.6c0-0.4,0-0.9,0-1.3
	c0-0.6,0.3-0.9,0.8-0.8c0.4,0,0.7,0.3,0.7,0.8c0,0.6,0,1.2,0,1.9c0,0.3,0,0.7,0,1c0.5,0.1,1,0.2,1.3,0.4c0.2,0.2,0.3,0.7,0.4,1.2
	c0.5,0.2,1.1,0,1.7,0.1c0.4,0,0.8,0,1.2,0c0.5,0.1,0.8,0.4,0.8,0.8c0,0.4-0.3,0.7-0.8,0.7c-0.8,0-1.6,0-2.4,0c-0.2,0-0.3,0-0.5,0.1
	c0,0.5,0,1,0,1.5c0.6,0,1.1,0,1.7,0c0.3,0,0.7,0,1,0c0.7,0,1.1,0.3,1,0.8c0,0.5-0.4,0.7-1.1,0.7c-0.9,0-1.7,0-2.7,0
	c0,0.5,0,0.9,0,1.5c0.6,0.2,1.2,0.1,1.8,0.1c0.4,0,0.8,0,1.2,0c0.5,0.1,0.8,0.4,0.7,0.8c0,0.4-0.3,0.7-0.7,0.7c-0.6,0-1.2,0-1.9,0
	c-0.4,0-0.7,0-1.2,0c0,0.5,0,1,0,1.6c0.8,0,1.5,0,2.3,0c0.3,0,0.6,0,0.8,0c0.4,0.1,0.6,0.3,0.6,0.7c0,0.4-0.2,0.7-0.7,0.8
	c-0.5,0-0.9,0-1.4,0c-0.6,0-1.1,0-1.7,0c0,0.5,0,1,0,1.6c0.7,0,1.4,0,2.1,0c0.3,0,0.6,0,0.9,0c0.4,0,0.7,0.3,0.7,0.7
	c0,0.4-0.3,0.7-0.7,0.8c-0.3,0.1-0.6,0-0.8,0c-0.7,0-1.5,0-2.3,0c0,0.5,0,1,0,1.5c0.8,0,1.6,0,2.3,0c0.2,0,0.5,0,0.7,0
	c0.4,0.1,0.7,0.4,0.7,0.7c0,0.4-0.3,0.7-0.7,0.7c-0.6,0-1.2,0-1.9,0c-0.4,0-0.7,0-1.2,0c0,0.5,0,0.9,0,1.5c0.3,0,0.6,0.1,1,0.1
	c0.6,0,1.2,0,1.8,0c0.7,0,1,0.3,1,0.8c0,0.5-0.3,0.7-1,0.7c-0.6,0-1.2,0-1.8,0c-0.3,0-0.6,0-1,0c0,0.5,0,1,0,1.5c0.6,0,1.3,0,1.9,0
	c0.4,0,0.7,0,1.1,0c0.5,0,0.8,0.4,0.7,0.8c0,0.4-0.3,0.7-0.7,0.7c-0.7,0-1.4,0-2,0c-0.3,0-0.6,0-0.9,0c-0.1,0.5-0.1,1-0.4,1.3
	c-0.3,0.3-0.8,0.3-1.3,0.4c0,0.7,0,1.4,0,2.1c0,0.3,0,0.6,0,0.8c-0.1,0.4-0.4,0.7-0.7,0.7c-0.4,0-0.7-0.3-0.7-0.7c0-0.6,0-1.2,0-1.9
	c0-0.4,0-0.7,0-1.2c-0.5,0-0.9,0-1.5,0c0,0.4-0.1,0.7-0.1,1.1c0,0.5,0,1.1,0,1.6c0,0.7-0.3,1.1-0.8,1c-0.5,0-0.7-0.4-0.8-1.1
	c0-0.6,0-1.2,0-1.9c0-0.3,0-0.5-0.1-0.9c-0.5,0-0.9,0-1.5,0c0,0.7,0,1.3,0,1.9c0,0.4,0,0.7,0,1.1c0,0.5-0.4,0.8-0.8,0.7
	c-0.4,0-0.7-0.3-0.7-0.7c0-0.7,0-1.4,0-2c0-0.3,0-0.6,0-1c-0.5,0-1,0-1.5,0c0,0.7,0,1.4,0,2.1c0,0.3,0,0.6,0,0.9
	c-0.1,0.5-0.4,0.8-0.8,0.7c-0.4-0.1-0.7-0.3-0.7-0.8c0-0.7,0-1.4,0-2c0-0.3,0-0.6,0-1c-0.5,0-1,0-1.6,0c0,0.8,0,1.5,0,2.2
	c0,0.3,0,0.6,0,0.8c0,0.4-0.3,0.7-0.7,0.7c-0.4,0-0.7-0.2-0.7-0.7c0-0.5,0-0.9,0-1.4c0-0.6,0-1.1,0-1.7c-0.5,0-1,0-1.6,0
	c0,0.8,0,1.5,0,2.3c0,0.3,0,0.6,0,0.9c-0.1,0.4-0.3,0.6-0.7,0.6c-0.4,0-0.6-0.2-0.7-0.6c-0.1-0.3,0-0.6,0-0.9c0-0.7,0-1.5,0-2.2
	c-0.5,0-1,0-1.5,0c0,0.4,0,0.8,0,1.2c0,0.6,0,1.1,0,1.7c0,0.6-0.3,1-0.8,0.9c-0.4,0-0.7-0.3-0.7-0.9c0-0.6,0-1.2,0-1.9
	c0-0.3,0-0.6,0-1c-0.5,0-1,0-1.5,0c0,0.3,0,0.6-0.1,0.9c0,0.6,0,1.2,0,1.8c0,0.8-0.3,1.2-0.8,1.1c-0.5,0-0.7-0.4-0.8-1.2
	c0-0.6,0-1.1,0-1.7c0-0.3,0-0.6,0-0.8c-0.5-0.1-1-0.1-1.2-0.4c-0.3-0.3-0.3-0.8-0.4-1.3c-0.7,0-1.4,0-2.1,0c-0.3,0-0.6,0-0.8,0
	C0.2,28.3,0,28,0,27.6c0-0.4,0.3-0.7,0.7-0.7c0.3,0,0.6,0,0.9,0c0.7,0,1.4,0,2.1,0c0-0.5,0-1,0-1.5c-0.7,0-1.3,0-2,0
	c-0.3,0-0.6,0-0.9,0C0.3,25.3,0,25,0,24.6c0-0.5,0.3-0.8,0.8-0.8c0.4,0,0.9,0,1.3,0c0.5,0,1,0,1.6,0c0-0.5,0-1,0-1.5
	c-0.8,0-1.5,0-2.2,0c-0.3,0-0.6,0-0.8,0C0.2,22.2,0,21.9,0,21.5c0-0.4,0.3-0.7,0.7-0.7c0.6,0,1.2,0,1.9,0c0.4,0,0.7,0,1.2,0
	c0-0.5,0-0.9,0-1.5c-0.6,0-1.3,0-2,0c-0.3,0-0.6,0-0.9,0C0.3,19.1,0,18.8,0,18.4c0-0.4,0.3-0.7,0.8-0.7c0.6,0,1.2,0,1.9,0
	c0.3,0,0.7,0,1.1,0c0-0.5,0-1,0-1.6c-0.7,0-1.4,0-2.1,0c-0.3,0-0.6,0-0.9,0C0.3,16,0,15.7,0,15.3c0-0.4,0.2-0.7,0.7-0.7
	c0.6,0,1.1,0,1.7,0c0.4,0,0.9,0,1.4,0c0-0.5,0-0.9,0-1.5c-0.3,0-0.6,0-0.9-0.1c-0.7,0-1.4,0-2,0C0.3,13,0,12.8,0,12.3
	c0-0.4,0.2-0.8,0.7-0.8c0.6,0,1.2,0,1.8,0c0.4,0,0.8,0,1.2,0c0-0.5,0-1,0-1.5c-0.7,0-1.4,0-2.1,0c-0.3,0-0.6,0-0.8,0
	C0.3,9.9,0,9.6,0,9.2c0-0.4,0.3-0.7,0.8-0.7c0.6,0,1.1,0,1.7,0c0.4,0,0.8,0,1.3,0c0-0.5,0-1,0-1.6c-0.7,0-1.4,0-2,0
	c-0.3,0-0.7,0-1,0C0.3,6.8,0,6.6,0,6.2c0-0.4,0.2-0.7,0.6-0.8c0.2-0.1,0.5,0,0.7,0c0.8,0,1.5,0,2.3,0c0.1-0.5,0.2-1,0.4-1.2
	c0.2-0.3,0.7-0.3,1.2-0.4c0-0.5,0-1.1,0-1.7c0-0.4,0-0.8,0-1.2C5.4,0.3,5.7,0,6.1,0c0.4,0,0.7,0.3,0.7,0.8c0,0.8,0,1.6,0,2.4
	c0,0.2,0,0.3,0,0.5c0.5,0,0.9,0,1.5,0c0-0.3,0-0.7,0-1c0-0.7,0-1.3,0-2c0-0.4,0.3-0.7,0.7-0.7c0.4,0,0.7,0.2,0.8,0.7
	c0,0.4,0,0.8,0,1.2c0,0.6,0,1.2,0,1.8c0.5,0,1,0,1.5,0c0-0.8,0-1.5,0-2.2c0-0.3,0-0.6,0-0.8C11.6,0.3,11.8,0,12.3,0
	C12.7,0,13,0.3,13,0.7c0,0.6,0,1.1,0,1.7c0,0.4,0,0.9,0,1.4c0.5,0,1,0,1.5,0c0-0.6,0-1.2,0-1.9c0-0.4,0-0.7,0-1.1
	C14.6,0.3,15,0,15.4,0c0.4,0,0.7,0.3,0.7,0.7c0,0.7,0,1.4,0,2c0,0.3,0,0.6,0,1c0.5,0,0.9,0,1.5,0c0-0.8,0-1.5,0-2.2
	c0-0.3,0-0.6,0-0.8C17.7,0.3,18,0,18.4,0c0.4,0,0.7,0.3,0.8,0.7c0,0.3,0,0.6,0,0.8c0,0.7,0,1.5,0,2.3c0.5,0,1,0,1.5,0
	c0-0.6,0-1.1,0-1.7c0-0.4,0-0.9,0-1.3c0-0.5,0.4-0.8,0.8-0.7c0.4,0,0.7,0.3,0.7,0.7c0,0.7,0,1.4,0,2C22.2,3.1,22.2,3.4,22.2,3.8z
	 M5.4,5.4c0,7.7,0,15.3,0,22.9c7.7,0,15.3,0,22.9,0c0-7.7,0-15.3,0-22.9C20.7,5.4,13.1,5.4,5.4,5.4z"/>
<path class="st0" d="M16.9,8.4c2.4,0,4.8,0,7.3,0c1,0,1.2,0.2,1.2,1.2c0,4.8,0,9.6,0,14.4c0,1.1-0.2,1.3-1.2,1.3
	c-4.8,0-9.6,0-14.4,0c-1.1,0-1.2-0.2-1.2-1.3c0-4.8,0-9.5,0-14.3c0-0.1,0-0.2,0-0.3c0-0.8,0.2-1,1-1c1,0,2,0,3,0
	C13.9,8.4,15.4,8.4,16.9,8.4z M23.7,23.7c0-4.6,0-9.1,0-13.6c-1.1-0.2-13.1-0.2-13.7,0c0,4.5,0,9,0,13.6
	C14.6,23.7,19.1,23.7,23.7,23.7z"/>
</svg>
