<!-- Generator: Adobe Illustrator 21.0.2, SVG Export Plug-In  -->
<svg version="1.1"
	 xmlns="http://www.w3.org/2000/svg" xmlns:xlink="http://www.w3.org/1999/xlink" xmlns:a="http://ns.adobe.com/AdobeSVGViewerExtensions/3.0/"
	 x="0px" y="0px" width="41.9px" height="35.2px" viewBox="0 0 41.9 35.2" style="enable-background:new 0 0 41.9 35.2;"
	 xml:space="preserve">
<style type="text/css">
	.st0{fill:#262E39;}
</style>
<defs>
</defs>
<path class="st0" d="M23.6,35c-9.5,1.6-17.9-5.2-19.5-13.7c0-0.2-0.1-0.3-0.2-0.7c-0.6,0.8-1.2,1.5-1.7,2.2C2,23,1.8,23.3,1.6,23.5
	c-0.4,0.4-0.9,0.4-1.3,0c-0.3-0.3-0.4-0.8-0.2-1.2c0.1-0.1,0.2-0.3,0.3-0.4c1.2-1.5,2.3-2.9,3.5-4.4c0.5-0.6,1-0.7,1.6-0.2
	c1.5,1.2,2.9,2.3,4.3,3.5c0.2,0.1,0.3,0.3,0.5,0.5c0.2,0.3,0.2,0.7,0,1c-0.3,0.4-0.6,0.5-1.1,0.3c-0.2-0.1-0.4-0.3-0.6-0.4
	c-0.7-0.5-1.4-1.1-2-1.6c-0.2-0.1-0.4-0.3-0.7-0.5C6.4,24,8,27,10.7,29.5c7.6,6.8,20.6,4.6,24.6-6.2c0.1-0.3,0.2-0.6,0.3-0.9
	c0.2-0.4,0.7-0.6,1.1-0.4c0.4,0.2,0.6,0.5,0.6,0.9c0,0.2-0.1,0.5-0.2,0.7C34.7,29.9,30.2,33.8,23.6,35"/>
<path class="st0" d="M38,15c0.6-0.6,1.1-1.1,1.7-1.7c0.2-0.2,0.4-0.5,0.7-0.6c0.5-0.4,1-0.3,1.3,0c0.3,0.4,0.3,0.8,0,1.3
	c-0.2,0.2-0.4,0.4-0.6,0.7c-1,1-2,2-3,3c-0.6,0.6-0.9,0.6-1.6,0.2c-1.4-0.8-2.8-1.7-4.1-2.5c-0.8-0.5-1-1-0.7-1.5
	c0.3-0.5,0.9-0.6,1.6-0.2c0.9,0.6,1.8,1.1,2.9,1.7c-0.1-0.5-0.1-0.9-0.2-1.2C34.7,7.7,29.4,2.8,22.9,2C15.5,1.1,9,5.2,6.5,12.2
	c-0.1,0.2-0.1,0.4-0.2,0.6c-0.2,0.4-0.6,0.6-1.1,0.5c-0.5-0.1-0.8-0.5-0.7-1.1c0-0.2,0.1-0.4,0.2-0.5c2.5-6.5,7.1-10.4,14-11.5
	c9.1-1.4,17.7,5.2,19.2,14.2C37.8,14.5,37.9,14.6,38,15z"/>
</svg>
