<!-- Generator: Adobe Illustrator 21.0.2, SVG Export Plug-In  -->
<svg version="1.1"
	 xmlns="http://www.w3.org/2000/svg" xmlns:xlink="http://www.w3.org/1999/xlink" xmlns:a="http://ns.adobe.com/AdobeSVGViewerExtensions/3.0/"
	 x="0px" y="0px" width="27px" height="37px" viewBox="0 0 27 37" style="enable-background:new 0 0 27 37;" xml:space="preserve">
<style type="text/css">
	.st0{fill:#262E39;}
</style>
<defs>
</defs>
<path class="st0" d="M26.9,37C17.9,37,9,37,0,37C0,24.7,0,12.4,0,0.1C0.3,0.1,0.5,0,0.7,0C4.9,0,9,0,13.1,0c0.5,0,0.9,0.1,1.2,0.5
	c4,4.1,8.1,8.1,12.2,12.2c0.3,0.3,0.5,0.7,0.5,1.1c0,7.5,0,15,0,22.5C27,36.5,26.9,36.7,26.9,37z M12.3,1.6c-3.7,0-7.2,0-10.7,0
	c-0.2,1.3-0.2,33.2,0,33.8c1.6,0.2,23.1,0.1,23.8-0.1c0-7.1,0-14.2,0-21.5c-4.4,0-8.7,0-13.1,0C12.3,9.7,12.3,5.7,12.3,1.6z
	 M13.9,12.2c0.9,0.2,9.2,0.2,9.7,0c-3.2-3.2-6.4-6.5-9.7-9.7C13.9,5.7,13.9,9,13.9,12.2z"/>
<g>
	<path d="M6.4,31.6L9,28.2c0.3-0.3,0.5-0.6,0.8-0.9v0H6.6v-0.9H11l0,0.7l-2.6,3.4C8.2,30.7,8,31,7.7,31.3v0h3.4v0.8H6.4V31.6z"/>
	<path d="M13.3,24.8c0,0.4-0.3,0.6-0.7,0.6c-0.4,0-0.6-0.3-0.6-0.6c0-0.4,0.3-0.7,0.7-0.7C13.1,24.1,13.3,24.4,13.3,24.8z
		 M12.2,32.2v-5.8h1.1v5.8H12.2z"/>
	<path d="M15,28.3c0-0.7,0-1.3,0-1.9h0.9l0,1h0c0.4-0.7,1.1-1.1,2.1-1.1c1.4,0,2.5,1.2,2.5,3c0,2.1-1.3,3.1-2.6,3.1
		c-0.8,0-1.4-0.3-1.8-0.9h0v3.2h-1V28.3z M16,29.8c0,0.2,0,0.3,0,0.4c0.2,0.7,0.8,1.2,1.6,1.2c1.1,0,1.8-0.9,1.8-2.2
		c0-1.2-0.6-2.2-1.7-2.2c-0.7,0-1.4,0.5-1.6,1.3c0,0.1-0.1,0.3-0.1,0.4V29.8z"/>
</g>
</svg>
