<!-- Generator: Adobe Illustrator 21.0.2, SVG Export Plug-In  -->
<svg version="1.1"
	 xmlns="http://www.w3.org/2000/svg" xmlns:xlink="http://www.w3.org/1999/xlink" xmlns:a="http://ns.adobe.com/AdobeSVGViewerExtensions/3.0/"
	 x="0px" y="0px" width="27px" height="37px" viewBox="0 0 27 37" style="enable-background:new 0 0 27 37;" xml:space="preserve">
<style type="text/css">
	.st0{fill:#262E39;}
</style>
<defs>
</defs>
<path class="st0" d="M26.9,37C17.9,37,9,37,0,37C0,24.7,0,12.4,0,0.1C0.3,0.1,0.5,0,0.7,0C4.9,0,9,0,13.1,0c0.5,0,0.9,0.1,1.2,0.5
	c4,4.1,8.1,8.1,12.2,12.2c0.3,0.3,0.5,0.7,0.5,1.1c0,7.5,0,15,0,22.5C27,36.5,26.9,36.7,26.9,37z M12.3,1.6c-3.7,0-7.2,0-10.7,0
	c-0.2,1.3-0.2,33.2,0,33.8c1.6,0.2,23.1,0.1,23.8-0.1c0-7.1,0-14.2,0-21.5c-4.4,0-8.7,0-13.1,0C12.3,9.7,12.3,5.7,12.3,1.6z
	 M13.9,12.2c0.9,0.2,9.2,0.2,9.7,0c-3.2-3.2-6.4-6.5-9.7-9.7C13.9,5.7,13.9,9,13.9,12.2z"/>
<g>
	<path class="st0" d="M5.5,28.3c0-0.7,0-1.3,0-1.9h0.9l0,1h0c0.4-0.7,1.1-1.1,2.1-1.1c1.4,0,2.5,1.2,2.5,3c0,2.1-1.3,3.1-2.6,3.1
		c-0.8,0-1.4-0.3-1.8-0.9h0v3.2h-1V28.3z M6.5,29.8c0,0.2,0,0.3,0,0.4c0.2,0.7,0.8,1.2,1.6,1.2c1.1,0,1.8-0.9,1.8-2.2
		c0-1.2-0.6-2.2-1.7-2.2c-0.7,0-1.4,0.5-1.6,1.3c0,0.1-0.1,0.3-0.1,0.4V29.8z"/>
	<path class="st0" d="M17.3,23.7v7c0,0.5,0,1.1,0,1.5h-0.9l0-1h0c-0.3,0.6-1,1.1-2,1.1c-1.4,0-2.5-1.2-2.5-3c0-1.9,1.2-3.1,2.6-3.1
		c0.9,0,1.5,0.4,1.8,0.9h0v-3.5H17.3z M16.3,28.8c0-0.1,0-0.3,0-0.4c-0.2-0.7-0.7-1.2-1.5-1.2c-1.1,0-1.7,1-1.7,2.2
		c0,1.2,0.6,2.1,1.7,2.1c0.7,0,1.4-0.5,1.5-1.3c0-0.1,0-0.3,0-0.5V28.8z"/>
	<path class="st0" d="M19.2,32.2v-5h-0.8v-0.8h0.8v-0.3c0-0.8,0.2-1.6,0.7-2c0.4-0.4,0.9-0.5,1.4-0.5c0.4,0,0.7,0.1,0.9,0.2L22,24.5
		c-0.2-0.1-0.4-0.1-0.7-0.1c-0.9,0-1.1,0.8-1.1,1.7v0.3h1.4v0.8h-1.4v5H19.2z"/>
</g>
</svg>
