<!-- Generator: Adobe Illustrator 21.0.2, SVG Export Plug-In  -->
<svg version="1.1"
	 xmlns="http://www.w3.org/2000/svg" xmlns:xlink="http://www.w3.org/1999/xlink" xmlns:a="http://ns.adobe.com/AdobeSVGViewerExtensions/3.0/"
	 x="0px" y="0px" width="31px" height="36.9px" viewBox="0 0 31 36.9" style="enable-background:new 0 0 31 36.9;"
	 xml:space="preserve">
<style type="text/css">
	.st0{fill:#262E39;}
</style>
<defs>
</defs>
<path class="st0" d="M0,18.4C0,13.3,0,8.1,0,2.9C0,2.6,0,2.3,0,2C0.1,0.9,0.9,0.2,2,0c0.3,0,0.6,0,0.8,0c5.3,0,10.6,0,15.9,0
	c1,0,1.8,0.3,2.6,1.1C24.1,4,27.1,6.9,30,9.8c0.7,0.7,1,1.4,1,2.4c0,7.3,0,14.7,0,22c0,0.3,0,0.6,0,0.8c-0.1,1-0.9,1.7-1.9,1.8
	c-0.3,0-0.6,0-0.9,0c-8.4,0-16.9,0-25.3,0c-0.3,0-0.6,0-0.8,0c-1.1-0.1-1.9-0.9-2-2c0-0.3,0-0.6,0-0.8C0,28.9,0,23.7,0,18.4z
	 M19.2,1.5c-0.4,0-0.8,0-1.1,0c-5.1,0-10.1,0-15.2,0c-0.2,0-0.3,0-0.5,0c-0.7,0-0.9,0.2-1,0.9c0,0.2,0,0.3,0,0.5
	c0,10.4,0,20.8,0,31.2c0,0.2,0,0.4,0,0.7c0,0.4,0.3,0.7,0.7,0.7c0.2,0,0.5,0,0.7,0c8.4,0,16.8,0,25.2,0c0.2,0,0.4,0,0.7,0
	c0.5,0,0.7-0.3,0.8-0.8c0-0.2,0-0.4,0-0.6c0-7.1,0-14.2,0-21.3c0-0.3,0-0.6-0.1-1c-0.4,0-0.7,0-1.1,0c-2.2,0-4.5,0-6.7,0
	c-0.5,0-1.1-0.1-1.5-0.4c-0.8-0.4-1-1.2-1-2c0-2.3,0-4.5,0-6.8C19.2,2.3,19.2,1.9,19.2,1.5z M28.3,10.3c-1.4-1.7-7-7.2-7.7-7.5
	c0,0.3,0,0.5,0,0.8c0,1.9,0,3.7,0,5.6c0,1.1,0.2,1.2,1.2,1.2c1.9,0,3.8,0,5.7,0C27.7,10.3,28,10.3,28.3,10.3z"/>
<path class="st0" d="M15.5,26.1c-0.9,0.5-1.7,0.9-2.6,1.4c-0.2,0.1-0.5,0.3-0.7,0.4c-0.6,0.2-1,0-1-0.6c0-0.6,0.2-1.2,0.2-1.8
	c0.1-0.7,0.4-1.5,0.2-2.1c-0.2-0.6-0.9-1.1-1.4-1.6c-0.3-0.4-0.7-0.7-1-1.1c-0.6-0.7-0.4-1.2,0.4-1.4c0.9-0.2,1.9-0.3,2.8-0.4
	c0.5-0.1,0.8-0.2,1-0.7c0.3-0.8,0.7-1.5,1.1-2.3c0.1-0.2,0.2-0.3,0.2-0.5c0.1-0.3,0.3-0.7,0.7-0.6c0.3,0.1,0.5,0.3,0.7,0.6
	c0.4,0.7,0.7,1.4,1.1,2.2c0.6,1.2,0.6,1.2,1.9,1.4c0.6,0.1,1.3,0.2,1.9,0.3c0.4,0.1,0.9,0.1,1.1,0.6c0.1,0.5-0.2,0.7-0.5,1
	c-0.6,0.6-1.1,1.2-1.7,1.7c-0.6,0.5-0.7,1-0.5,1.7c0.2,0.9,0.3,1.8,0.5,2.7c0.1,0.4,0.1,0.7-0.2,0.9c-0.3,0.3-0.6,0.1-0.9-0.1
	C17.6,27.3,16.6,26.7,15.5,26.1z M18.1,25.9C18,25,18,24.4,17.8,23.8c-0.2-0.7,0-1.2,0.6-1.7c0.5-0.4,0.9-0.9,1.5-1.5
	c-1.1-0.2-2.1-0.3-3-0.5c-0.4-0.9-0.8-1.7-1.3-2.7c-0.5,1-0.9,1.9-1.3,2.7c-1,0.2-1.9,0.3-3,0.5c0.6,0.6,1.1,1.2,1.7,1.7
	c0.4,0.4,0.5,0.8,0.4,1.3c-0.1,0.7-0.2,1.4-0.4,2.3c1-0.5,1.8-1,2.7-1.4C16.3,24.9,17.2,25.4,18.1,25.9z"/>
</svg>
