<!-- Generator: Adobe Illustrator 21.0.2, SVG Export Plug-In  -->
<svg version="1.1"
	 xmlns="http://www.w3.org/2000/svg" xmlns:xlink="http://www.w3.org/1999/xlink" xmlns:a="http://ns.adobe.com/AdobeSVGViewerExtensions/3.0/"
	 x="0px" y="0px" width="28px" height="37.2px" viewBox="0 0 28 37.2" style="enable-background:new 0 0 28 37.2;"
	 xml:space="preserve">
<style type="text/css">
	.st0{fill:#262E39;}
</style>
<defs>
</defs>
<path class="st0" d="M24.8,34.2c0,0.7,0,1.3,0,2c0,0.7-0.2,0.9-0.9,1c-0.2,0-0.4,0-0.7,0c-7.2,0-14.4,0-21.6,0
	c-1.6,0-1.7-0.1-1.7-1.7C0,25.2,0,15,0,4.7c0-1.5,0.1-1.6,1.6-1.6c0.5,0,0.9,0,1.5,0c0-0.4,0-0.7,0-1.1c0-2-0.1-2,2.1-2
	c2.6,0,5.3,0,7.9,0c1.9,0,3.8,0,5.8,0c0.6,0,1,0.2,1.5,0.6c2.3,2.3,4.6,4.7,7,7C27.7,8,28,8.4,28,9c0,7.9,0,15.9,0,23.8
	c0,1.1-0.2,1.2-1.2,1.3c-0.5,0-1.1,0-1.6,0C25.1,34.1,25,34.2,24.8,34.2z M4.7,1.6C4.6,3.1,4.6,31.8,4.8,32.5c7.2,0,14.3,0,21.5,0
	c0.2-1.1,0.1-22.5-0.1-23.2c-0.3,0-0.7,0-1,0c-1.7,0-3.4,0-5.1,0c-1.4,0-1.5-0.2-1.5-1.5c0-1.8,0-3.6,0-5.4c0-0.3,0-0.5-0.1-0.8
	C13.9,1.6,9.4,1.6,4.7,1.6z M23.2,34.1c-0.5,0-0.8,0-1.2,0c-5.8,0-11.6,0-17.4,0c-0.2,0-0.5,0-0.7,0c-0.5-0.1-0.7-0.3-0.7-0.8
	c0-0.3,0-0.6,0-0.8c0-8.9,0-17.7,0-26.6c0-0.4,0-0.7,0-1.1c-0.6,0-1,0-1.6,0c0,10.3,0,20.6,0,30.8c1.1,0.2,21,0.2,21.7,0
	C23.2,35.1,23.2,34.6,23.2,34.1z M20.2,7.6c1.1,0.2,4.3,0.2,4.9-0.1c-1.5-1.8-4.2-4.4-4.9-4.6C20.2,4.5,20.2,6.1,20.2,7.6z"/>
<path class="st0" d="M23.2,26.4c0,0.5,0,0.9,0,1.3c-0.7,0.2-14.5,0.2-15.4,0c0-0.4,0-0.8,0-1.3C8.5,26.3,21.7,26.3,23.2,26.4z"/>
<path class="st0" d="M23.2,21.8c0,0.5,0,0.9,0,1.3c-0.7,0.2-14.5,0.2-15.4,0c0-0.4,0-0.8,0-1.3C8.5,21.7,21.5,21.6,23.2,21.8z"/>
<path class="st0" d="M7.8,18.5c0-0.5,0-0.9,0-1.4c5.1,0,10.2,0,15.4,0c0,0.5,0,0.9,0,1.4C18.1,18.5,13,18.5,7.8,18.5z"/>
<path class="st0" d="M23.2,12.5c0,0.2,0,0.4,0.1,0.5c0,0.2,0,0.5,0,0.7C22.6,14,8.8,14,7.8,13.8c0-0.4,0-0.8,0-1.3
	C8.5,12.4,22.3,12.3,23.2,12.5z"/>
<path class="st0" d="M7.8,9.2c0-0.5,0-0.9,0-1.4c2.5,0,5,0,7.6,0c0,0.4,0,0.9,0,1.3C14.8,9.3,9,9.4,7.8,9.2z"/>
</svg>
