<!-- Generator: Adobe Illustrator 21.0.2, SVG Export Plug-In  -->
<svg version="1.1"
	 xmlns="http://www.w3.org/2000/svg" xmlns:xlink="http://www.w3.org/1999/xlink" xmlns:a="http://ns.adobe.com/AdobeSVGViewerExtensions/3.0/"
	 x="0px" y="0px" width="27px" height="37px" viewBox="0 0 27 37" style="enable-background:new 0 0 27 37;" xml:space="preserve">
<style type="text/css">
	.st0{fill:#262E39;}
</style>
<defs>
</defs>
<path class="st0" d="M26.9,37C17.9,37,9,37,0,37C0,24.7,0,12.4,0,0.1C0.2,0.1,0.5,0,0.7,0C4.9,0,9,0,13.2,0c0.5,0,0.8,0.1,1.1,0.5
	c4.1,4.1,8.1,8.1,12.2,12.2c0.3,0.3,0.5,0.6,0.5,1c0,7.6,0,15.2,0,22.8C27,36.6,26.9,36.8,26.9,37z M1.5,35.4c8,0,15.9,0,23.8,0
	c0.2-1.2,0.1-20.8-0.1-21.6c-4.3,0-8.6,0-12.9,0c0-1.1,0-2.1,0-3.2c0-1,0-2,0-3c0-1,0-2,0-3.1c0-1,0-2,0-3C11,1.5,2.2,1.5,1.5,1.7
	C1.5,12.9,1.5,24.1,1.5,35.4z M13.9,12.3c1.5,0.2,9.2,0.1,9.7,0c-3.2-3.2-6.4-6.5-9.7-9.7C13.9,5.7,13.9,9,13.9,12.3z"/>
</svg>
