<!-- Generator: Adobe Illustrator 21.0.2, SVG Export Plug-In  -->
<svg version="1.1"
	 xmlns="http://www.w3.org/2000/svg" xmlns:xlink="http://www.w3.org/1999/xlink" xmlns:a="http://ns.adobe.com/AdobeSVGViewerExtensions/3.0/"
	 x="0px" y="0px" width="47.4px" height="30.5px" viewBox="0 0 47.4 30.5" style="enable-background:new 0 0 47.4 30.5;"
	 xml:space="preserve">
<style type="text/css">
	.st0{fill:#262E39;}
</style>
<defs>
</defs>
<path class="st0" d="M0,14.8c0.1-0.1,0.1-0.2,0.2-0.3C3.8,9.9,8,5.9,13.1,3c2.6-1.5,5.3-2.5,8.3-2.9c3.7-0.5,7.3,0.2,10.7,1.8
	c4.1,1.8,7.5,4.5,10.7,7.6c1.7,1.6,3.2,3.4,4.6,5.2c-0.1,0.1-0.1,0.3-0.2,0.3c-3.3,4.5-7.2,8.5-12,11.6c-2.5,1.6-5.2,2.8-8.1,3.4
	c-3.7,0.8-7.3,0.2-10.8-1.2c-3.7-1.5-6.8-3.9-9.7-6.6c-2.2-2-4.2-4.3-6-6.7C0.4,15.4,0.2,15.1,0,14.8z M2,14.8c2.4,3.2,5,5.9,8,8.3
	c1.9,1.6,4,2.9,6.3,4c3.4,1.6,6.9,2.2,10.7,1.4c2.4-0.5,4.5-1.4,6.6-2.7c4.6-2.8,8.3-6.5,11.6-10.6c0.1-0.1,0.1-0.2,0.2-0.4
	c-1.4-1.4-2.7-2.9-4.1-4.3c-2.9-2.8-6.2-5.3-9.9-7c-4.9-2.2-9.8-2.3-14.8-0.2c-3.9,1.7-7.3,4.2-10.3,7.2C4.8,11.8,3.5,13.3,2,14.8z"
	/>
<path class="st0" d="M34,15.2c0,5.7-4.6,10.4-10.3,10.4c-5.7,0-10.4-4.6-10.4-10.4c0-5.7,4.6-10.4,10.3-10.4
	C29.4,4.8,34,9.4,34,15.2z M23.6,23.8c4.8,0,8.6-3.8,8.7-8.6c0-4.8-3.8-8.7-8.5-8.7c-4.8-0.1-8.7,3.9-8.7,8.7
	C15,19.9,18.9,23.8,23.6,23.8z"/>
<path class="st0" d="M27,15.1c0,1.9-1.5,3.5-3.5,3.5c-1.9,0-3.5-1.6-3.5-3.5c0-1.9,1.5-3.5,3.5-3.5C25.4,11.6,27,13.1,27,15.1z
	 M25.3,15.1c0-1-0.7-1.8-1.7-1.8c-1,0-1.8,0.8-1.8,1.7c0,1,0.8,1.8,1.7,1.8C24.5,16.9,25.3,16.1,25.3,15.1z"/>
</svg>
