<!-- Generator: Adobe Illustrator 21.0.2, SVG Export Plug-In  -->
<svg version="1.1"
	 xmlns="http://www.w3.org/2000/svg" xmlns:xlink="http://www.w3.org/1999/xlink" xmlns:a="http://ns.adobe.com/AdobeSVGViewerExtensions/3.0/"
	 x="0px" y="0px" width="32.1px" height="38.4px" viewBox="0 0 32.1 38.4" style="enable-background:new 0 0 32.1 38.4;"
	 xml:space="preserve">
<style type="text/css">
	.st0{fill:#262E39;}
</style>
<defs>
</defs>
<path class="st0" d="M32.1,0.1c0,12.8,0,25.6,0,38.4c-10.7,0-21.3,0-31.9,0C0,37.7-0.1,31,0.1,29.7c1,0,2.1,0,3.1,0c1,0,2.1,0,3.2,0
	c0-1.6,0-3.2,0-4.8c-2.1,0-4.2,0-6.3,0c0-0.3-0.1-0.5-0.1-0.7c0-4.8,0-9.6,0-14.4C0,9.3,0.1,9,0.4,8.7c2.6-2.7,5.2-5.5,7.8-8.2
	C8.6,0.1,8.9,0,9.3,0c7.4,0,14.8,0,22.1,0C31.6,0,31.8,0,32.1,0.1z M8,31.3c-2.2,0-4.2,0-6.3,0c0,1.9,0,3.7,0,5.5
	c1.5,0.2,28.1,0.1,28.8-0.1c0-11.7,0-23.4,0-35.2c-0.3,0-0.5,0-0.8,0c-6.5,0-13,0-19.5,0C9.6,1.5,9.3,1.7,8.9,2
	C6.6,4.5,4.3,6.9,2,9.3c-0.3,0.3-0.4,0.6-0.4,1.1c0,4.1,0,8.2,0,12.3c0,0.2,0.1,0.4,0.1,0.7c2.1,0,4.2,0,6.2,0C8,26,8,28.5,8,31.3z"
	/>
<path class="st0" d="M27.2,9.5c-0.5,0-1,0-1.5,0c0-2.1,0-4.2,0-6.3c0.5,0,1,0,1.5,0C27.2,5.3,27.2,7.4,27.2,9.5z"/>
<path class="st0" d="M17.7,9.5c0-2.1,0-4.2,0-6.3c0.5,0,1,0,1.5,0c0,2.1,0,4.1,0,6.3C18.7,9.5,18.3,9.5,17.7,9.5z"/>
<path class="st0" d="M21.8,9.5c0-2.1,0-4.2,0-6.3c0.5,0,0.9,0,1.4,0c0,2.1,0,4.1,0,6.3C22.7,9.5,22.3,9.5,21.8,9.5z"/>
<path class="st0" d="M15.2,9.6c-0.5,0-0.9,0-1.5,0c0-2.1,0-4.2,0-6.3c0.5,0,1,0,1.5,0C15.2,5.3,15.2,7.4,15.2,9.6z"/>
</svg>
