<!-- Generator: Adobe Illustrator 21.0.2, SVG Export Plug-In  -->
<svg version="1.1"
	 xmlns="http://www.w3.org/2000/svg" xmlns:xlink="http://www.w3.org/1999/xlink" xmlns:a="http://ns.adobe.com/AdobeSVGViewerExtensions/3.0/"
	 x="0px" y="0px" width="34.1px" height="38.3px" viewBox="0 0 34.1 38.3" style="enable-background:new 0 0 34.1 38.3;"
	 xml:space="preserve">
<style type="text/css">
	.st0{fill:#262E39;}
</style>
<defs>
</defs>
<path class="st0" d="M29.5,9c0.6,0,1,0,1.5,0c0,0.3,0,0.5,0,0.8c-0.5,4.5-1,8.9-1.6,13.4c-0.5,3.9-0.9,7.8-1.4,11.7
	c-0.2,1.9-1.6,3.3-3.5,3.4c-0.3,0-0.6,0-0.9,0c-4.4,0-8.7,0-13.1,0c-0.6,0-1.1,0-1.7-0.1c-1.5-0.5-2.4-1.5-2.7-3
	c-0.3-2-0.5-3.9-0.7-5.9c-0.5-4-0.9-8.1-1.4-12.1c-0.3-2.3-0.5-4.7-0.8-7c0-0.3,0-0.7-0.1-1.1c0.5,0,0.9,0,1.5,0
	c0.1,1.2,0.3,2.3,0.4,3.5c0.5,4.6,1.1,9.1,1.6,13.7c0.3,2.8,0.7,5.6,1,8.4c0.2,1.5,1,2.2,2.5,2.2c4.6,0,9.2,0,13.9,0
	c1.6,0,2.4-0.7,2.5-2.3c0.4-3.4,0.8-6.8,1.2-10.2c0.5-4,0.9-8.1,1.4-12.1C29.3,11.1,29.4,10.1,29.5,9z"/>
<path class="st0" d="M0,6.6c0-0.5,0-0.9,0-1.4c3.3-0.1,6.6,0,9.9-0.1c0-0.4,0-0.7,0.1-1c0.2-2.2,2-4,4.2-4.1C15.9,0,17.6,0,19.3,0
	c2.6,0.1,4.3,1.9,4.4,4.4c0,0.2,0,0.4,0,0.6c3.4,0,6.8,0,10.3,0c0,0.5,0,1,0,1.5C22.8,6.6,11.4,6.6,0,6.6z M11.6,5.1
	c3.5,0,7.1,0,10.6,0c0.2-2.2-1.1-3.5-3.1-3.5c-1.5,0-3,0-4.5,0C12.6,1.6,11.3,3.1,11.6,5.1z"/>
<path class="st0" d="M17.8,34.8c-0.5,0-0.9,0-1.4,0c0-8.2,0-16.3,0-24.5c0.5,0,0.9,0,1.4,0C17.8,18.5,17.8,26.6,17.8,34.8z"/>
<path class="st0" d="M22.8,34.9c-0.5-0.1-1-0.1-1.5-0.1c0.7-8.2,1.3-16.2,1.9-24.4c0.5,0,0.9,0,1.5,0C24.1,18.5,23.5,26.6,22.8,34.9
	z"/>
<path class="st0" d="M9.6,10.3c0.5,0,1,0,1.5,0c0.5,8.1,1.1,16.2,1.6,24.4c-0.5,0-1,0.1-1.5,0.1C10.7,26.7,10.2,18.5,9.6,10.3z"/>
</svg>
