<!-- Generator: Adobe Illustrator 21.0.2, SVG Export Plug-In  -->
<svg version="1.1"
	 xmlns="http://www.w3.org/2000/svg" xmlns:xlink="http://www.w3.org/1999/xlink" xmlns:a="http://ns.adobe.com/AdobeSVGViewerExtensions/3.0/"
	 x="0px" y="0px" width="35.2px" height="35.2px" viewBox="0 0 35.2 35.2" style="enable-background:new 0 0 35.2 35.2;"
	 xml:space="preserve">
<style type="text/css">
	.st0{fill:#262E39;}
</style>
<defs>
</defs>
<path class="st0" d="M18.2,1.3c0,0.4,0,0.8,0,1.1c0,1.9,0,3.8,0,5.7c0,0.2,0,0.4,0,0.7c0,0.5-0.3,0.8-0.7,0.7
	c-0.4,0-0.6-0.3-0.7-0.8c0-0.1,0-0.2,0-0.4c0-2.4,0-4.8,0-7.3c0-1,0.2-1.1,1.1-1.1C26.5,0.1,33.8,6.7,35,15.2
	c1.3,9.2-4.8,17.5-13.4,19.6c-9.7,2.3-19.5-4-21.3-13.8c-1.1-5.8,0.4-10.9,4.3-15.3C4.8,5.5,5,5.3,5.2,5.1c0.3-0.2,0.6-0.2,0.8,0.1
	C6.2,5.4,6.2,5.8,6.1,6C6,6.2,5.8,6.4,5.6,6.6C1.4,11.5,0.2,17,2.3,23c2.1,6,6.5,9.6,12.8,10.7c9,1.5,17.4-5,18.6-14.1
	c1.1-8.7-5-16.8-13.7-18.1C19.5,1.4,18.9,1.4,18.2,1.3z"/>
<path class="st0" d="M9.4,9.3c2.2,1.7,4.5,3.4,6.7,5.1c0.8,0.6,1.5,1.1,2.3,1.8c0.6,0.5,0.7,1.2,0.4,1.9c-0.3,0.6-1,1-1.7,0.8
	c-0.3-0.1-0.7-0.2-0.9-0.5c-2.3-3-4.6-6-6.9-9C9.3,9.4,9.4,9.3,9.4,9.3z"/>
</svg>
