<!-- Generator: Adobe Illustrator 21.0.2, SVG Export Plug-In  -->
<svg version="1.1"
	 xmlns="http://www.w3.org/2000/svg" xmlns:xlink="http://www.w3.org/1999/xlink" xmlns:a="http://ns.adobe.com/AdobeSVGViewerExtensions/3.0/"
	 x="0px" y="0px" width="46.9px" height="43.7px" viewBox="0 0 46.9 43.7" style="enable-background:new 0 0 46.9 43.7;"
	 xml:space="preserve">
<style type="text/css">
	.st0{fill:#262E39;}
</style>
<defs>
</defs>
<path class="st0" d="M23.3,43.7c-1.3-1.2-2.6-2.4-3.9-3.5c-4.1-3.7-8.3-7.5-12.4-11.3c-3.7-3.3-6.1-7.4-6.8-12.4
	C-0.6,10.7,1.3,5.7,6,2.2C11-1.5,17.9-0.4,21.9,4.4c0.3,0.4,0.6,0.7,0.9,1.1c0.4,0.5,0.7,0.5,1.1,0C24,5.3,24.1,5.1,24.2,5
	c2.5-3.1,5.7-4.8,9.6-4.9c3.1-0.1,5.9,1,8.2,3.1c2.7,2.4,4.2,5.5,4.7,9.1c0.6,4.4-0.7,8.3-2.9,11.9c-1.1,1.8-2.5,3.5-4.1,4.9
	c-5.3,4.7-10.5,9.4-15.8,14.1C23.8,43.3,23.6,43.4,23.3,43.7z M26.3,23.4c0.1-0.4,0.2-0.6,0.2-0.8c0.9-4.4,1.9-8.8,2.8-13.2
	c0.1-0.2,0.1-0.5,0.2-0.7c0.2-0.2,0.4-0.4,0.7-0.5c0.4-0.1,0.7,0.1,0.8,0.5c0.1,0.2,0.1,0.4,0.1,0.5c0.6,4,1.3,8,1.9,12
	c0.2,1.2,0.4,2.4,0.6,3.6c0.1,0.1,0.2,0.1,0.3,0.1c2.3,0,4.7,0,7,0c0.4,0,0.6-0.1,0.8-0.4c2.5-3.6,4.1-7.5,3.5-12
	c-0.3-2.4-1.1-4.6-2.6-6.6C38.6,0.8,32,0.7,27.9,3.8c-1,0.7-1.8,1.6-2.5,2.6c-1.1,1.4-3,1.4-4.1,0c-0.2-0.2-0.4-0.5-0.6-0.7
	c-4-5.1-11.8-5.1-15.8-0.2c-2.7,3.2-3.6,6.9-3,11c0.4,2.9,1.6,5.5,3.3,7.9c0.2,0.3,0.4,0.6,0.8,0.6c1.1,0,2.2,0,3.4,0
	c0.2-0.4,0.4-0.8,0.5-1.1c1.1-2.5,2.3-5,3.4-7.4c0.1-0.2,0.2-0.5,0.3-0.7c0.4-0.6,1.1-0.6,1.5,0c0.1,0.2,0.2,0.4,0.2,0.6
	c1.3,3.4,2.7,6.7,4,10.1c0.1,0.2,0.2,0.5,0.4,0.8c1.1-2,2.1-3.8,3.1-5.6c0.1-0.2,0.2-0.4,0.4-0.6c0.4-0.5,1-0.5,1.4-0.1
	c0.2,0.2,0.3,0.4,0.4,0.6C25.5,22.1,25.8,22.7,26.3,23.4z M24.1,23.1c-0.3,0.4-0.4,0.7-0.6,1c-0.9,1.7-1.9,3.4-2.8,5.1
	c-0.1,0.2-0.2,0.4-0.3,0.6c-0.4,0.5-1.1,0.4-1.4-0.1c-0.1-0.2-0.2-0.5-0.3-0.7c-1.3-3.2-2.6-6.4-3.8-9.6c-0.1-0.3-0.3-0.7-0.5-1.1
	c-0.2,0.4-0.4,0.7-0.5,1c-1,2.1-2,4.3-2.9,6.4c-0.3,0.6-0.6,0.9-1.3,0.8c-0.7,0-1.5,0-2.2,0c0.4,0.7,14.9,13.9,16,14.7
	c1.2-0.8,15.8-13.9,16.2-14.7c-0.9,0-1.6,0-2.4,0c-1.4,0-2.7,0-4.1,0c-0.7,0-0.9-0.2-1-0.8c0-0.1-0.1-0.3-0.1-0.5
	c-0.4-2.5-0.8-5.1-1.2-7.6c-0.2-1.1-0.4-2.3-0.6-3.4c-0.2,0.2-0.3,0.5-0.3,0.7c-0.7,3.4-1.4,6.7-2.1,10.1c-0.1,0.2-0.1,0.5-0.2,0.7
	c-0.1,0.4-0.3,0.8-0.8,0.8c-0.4,0.1-0.7-0.1-0.9-0.5c-0.1-0.2-0.3-0.4-0.4-0.6C25.1,24.8,24.6,24,24.1,23.1z"/>
</svg>
