<!-- Generator: Adobe Illustrator 21.0.2, SVG Export Plug-In  -->
<svg version="1.1"
	 xmlns="http://www.w3.org/2000/svg" xmlns:xlink="http://www.w3.org/1999/xlink" xmlns:a="http://ns.adobe.com/AdobeSVGViewerExtensions/3.0/"
	 x="0px" y="0px" width="45.5px" height="24.7px" viewBox="0 0 45.5 24.7" style="enable-background:new 0 0 45.5 24.7;"
	 xml:space="preserve">
<style type="text/css">
	.st0{fill:#262E39;}
</style>
<defs>
</defs>
<path class="st0" d="M22.8,0c7,0,14,0,20.9,0c0.2,0,0.5,0,0.7,0c0.7,0,1,0.3,1.1,1c0,0.2,0,0.5,0,0.7c0,7,0,14.1,0,21.1
	c0,0.2,0,0.4,0,0.7c-0.1,0.8-0.3,1.1-1.1,1.1c-0.2,0-0.5,0-0.7,0c-14,0-27.9,0-41.9,0c-1.7,0-1.8-0.2-1.8-1.8c0-7,0-14.1,0-21.1
	C0,1.5,0,1.3,0,1c0.1-0.7,0.4-1,1.1-1c0.2,0,0.5,0,0.7,0C8.8,0,15.8,0,22.8,0z M2,1.9C1.8,3.4,1.8,22,2,22.7c13.8,0,27.7,0,41.6,0
	c0-7,0-13.9,0-20.8C29.7,1.9,15.9,1.9,2,1.9z"/>
<path class="st0" d="M22.9,17.1c2.3,0,4.5,0,6.8,0c0.2,0,0.4,0,0.6,0c0.6,0,1,0.4,1,0.9c0,0.5-0.4,0.9-0.9,1c-0.2,0-0.4,0-0.6,0
	c-4.6,0-9.2,0-13.8,0c-0.3,0-0.6,0-0.8,0c-0.5-0.1-0.8-0.5-0.7-0.9c0-0.5,0.4-0.8,0.9-0.9c0.2,0,0.4,0,0.6,0
	C18.2,17.1,20.5,17.1,22.9,17.1z"/>
<path class="st0" d="M8.6,9.5c-0.6,0-1-0.4-1-1c0-0.5,0.5-0.9,1.1-0.9c0.6,0,0.9,0.4,0.9,0.9C9.7,9.1,9.2,9.5,8.6,9.5z"/>
<path class="st0" d="M20,9.5c-0.6,0-1-0.4-1-0.9c0-0.5,0.4-0.9,0.9-0.9c0.6,0,1.1,0.3,1.1,0.9C21.1,9,20.6,9.5,20,9.5z"/>
<path class="st0" d="M37,9.5c-0.6,0-1-0.4-1-1c0-0.6,0.5-0.9,1.1-0.9c0.6,0,0.9,0.4,0.9,0.9C38.1,9.1,37.6,9.5,37,9.5z"/>
<path class="st0" d="M29.5,13.3c-0.6,0-1-0.4-1-1c0-0.5,0.5-0.9,1.1-0.9c0.6,0,0.9,0.4,0.9,0.9C30.5,12.9,30.1,13.3,29.5,13.3z"/>
<path class="st0" d="M18.1,11.4c0.6,0,1,0.4,1,1c0,0.5-0.4,0.9-1,0.9c-0.6,0-1-0.4-1.1-0.9C17.1,11.8,17.6,11.4,18.1,11.4z"/>
<path class="st0" d="M25.7,9.5c-0.6,0-1-0.4-1-0.9c0-0.5,0.4-0.9,0.9-0.9c0.6,0,1.1,0.4,1.1,0.9C26.7,9,26.3,9.5,25.7,9.5z"/>
<path class="st0" d="M35.2,11.4c0.6,0,1,0.4,1,0.9c0,0.5-0.4,0.9-1,0.9c-0.6,0-1-0.4-1-0.9C34.1,11.8,34.6,11.4,35.2,11.4z"/>
<path class="st0" d="M12.4,13.3c-0.6,0-1-0.5-1-1s0.5-0.9,1.1-0.9c0.6,0,0.9,0.4,0.9,0.9C13.4,12.9,13,13.3,12.4,13.3z"/>
<path class="st0" d="M23.8,13.3c-0.6,0-1-0.4-1-1c0-0.5,0.5-0.9,1.1-0.9c0.6,0,0.9,0.4,0.9,0.9C24.8,12.9,24.4,13.3,23.8,13.3z"/>
<path class="st0" d="M31.3,7.6c0.6,0,1,0.4,1,0.9c0,0.5-0.4,0.9-0.9,1c-0.6,0-1.1-0.3-1.1-0.9C30.3,8,30.8,7.6,31.3,7.6z"/>
<path class="st0" d="M14.3,9.5c-0.6,0-1-0.4-1-1c0-0.5,0.4-0.9,1-0.9c0.6,0,1,0.4,1,0.9C15.3,9.1,14.9,9.5,14.3,9.5z"/>
</svg>
