<!-- Generator: Adobe Illustrator 21.0.2, SVG Export Plug-In  -->
<svg version="1.1"
	 xmlns="http://www.w3.org/2000/svg" xmlns:xlink="http://www.w3.org/1999/xlink" xmlns:a="http://ns.adobe.com/AdobeSVGViewerExtensions/3.0/"
	 x="0px" y="0px" width="27.2px" height="29.7px" viewBox="0 0 27.2 29.7" style="enable-background:new 0 0 27.2 29.7;"
	 xml:space="preserve">
<style type="text/css">
	.st0{fill:#262E39;}
</style>
<defs>
</defs>
<path class="st0" d="M13,10c0.4,0,0.8,0,1.1,0c2.6,0,5.3,0,7.9,0c0.3,0,0.6,0,0.8,0c2.1,0.2,3.3,2.1,2.6,4.1
	c-0.1,0.2-0.1,0.3-0.2,0.5c2.8,1.7,2.4,4.5,0,5.8c0.5,1,0.6,2.1,0,3.2c-0.6,1.1-1.7,1.4-2.9,1.6c0.1,0.2,0.1,0.4,0.2,0.6
	c0.5,2-0.7,3.8-2.8,3.9c-0.1,0-0.2,0-0.4,0c-3.1,0-6.3,0-9.4,0c-1.9,0-3.8-0.3-5.6-0.9c-1.8-0.7-3.3-1.8-4.2-3.5
	C0.2,25,0.1,24.8,0,24.6c-0.1-0.4,0-0.7,0.4-0.9c0.3-0.2,0.7-0.1,1,0.2c0.1,0.1,0.1,0.2,0.1,0.2c0.9,1.9,2.4,2.9,4.3,3.4
	c1.2,0.3,2.4,0.5,3.7,0.5c3.3,0.1,6.7,0,10,0c1.3,0,1.8-0.6,1.7-1.8c-0.1-0.7-0.5-1.1-1.2-1.2c-0.4,0-0.8,0-1.2,0
	c-0.6,0-0.9-0.3-0.9-0.8c0-0.5,0.3-0.8,0.9-0.8c1.1,0,2.2,0,3.3,0c0.2,0,0.5,0,0.7,0c1.2-0.1,1.9-1.1,1.3-2.2
	c-0.2-0.5-0.6-0.7-1.1-0.7c-1,0-2,0-3,0c-0.3,0-0.6,0-0.8-0.1c-0.4-0.1-0.6-0.4-0.6-0.8c0-0.4,0.2-0.6,0.6-0.7c0.2,0,0.4,0,0.7,0
	c1.5,0,2.9,0,4.4,0c1,0,1.4-0.5,1.5-1.4c0-1-0.4-1.6-1.5-1.6c-1.3,0-2.6,0-3.9,0c-0.2,0-0.4,0-0.7,0C19.3,16,19,15.8,19,15.4
	c0-0.4,0.2-0.8,0.7-0.8c0.2,0,0.4,0,0.6,0c0.8,0,1.7,0,2.5,0c0.9,0,1.3-0.5,1.4-1.4c0-0.9-0.4-1.4-1.3-1.5c-0.3,0-0.7,0-1,0
	c-2.9,0-5.9,0-8.8,0c-0.2,0-0.4,0-0.7,0c-0.9,0-1.2-0.3-1-1.2c0.2-1.5,0.5-3,0.8-4.5c0.1-0.4,0.2-0.9,0.2-1.3c0-0.6,0-1.3-0.2-1.9
	c-0.2-0.7-0.7-1-1.5-1.1c-0.6,0-0.9,0.1-1.1,0.8C9.6,2.7,9.5,3.2,9.5,3.6c0,0.7-0.2,1.3-0.6,1.8C8.4,6.2,7.9,6.9,7.3,7.6
	C6,9,4.5,10.2,3,11.2c-0.2,0.1-0.4,0.3-0.7,0.3c-0.3,0.1-0.7-0.1-0.7-0.4c-0.1-0.2,0-0.6,0.1-0.8c0.1-0.2,0.4-0.3,0.6-0.5
	C3.4,9,4.5,8.1,5.6,7.2c0.7-0.6,1.3-1.4,1.8-2.1C7.8,4.6,8,4,8,3.3c0-0.5,0.1-1,0.3-1.4c0.6-1.7,2-2.3,3.6-1.6
	c0.6,0.3,1.1,0.8,1.5,1.4c0.5,1,0.7,2.1,0.5,3.2c-0.3,1.5-0.6,3-0.8,4.5C13.1,9.5,13.1,9.7,13,10z"/>
</svg>
