<?xml version="1.0" encoding="utf-8"?>
<!-- Generator: Adobe Illustrator 21.0.2, SVG Export Plug-In . SVG Version: 6.00 Build 0)  -->
<svg version="1.1" id="Слой_1" xmlns="http://www.w3.org/2000/svg" xmlns:xlink="http://www.w3.org/1999/xlink" x="0px" y="0px"
	 viewBox="0 0 259 65" style="enable-background:new 0 0 259 65;" xml:space="preserve">
<style type="text/css">
	.st0{fill:#8DC63F;}
	.st1{fill:url(#SVGID_1_);}
	.st2{fill:url(#SVGID_2_);}
	.st3{fill:url(#SVGID_3_);}
	.st4{fill:#E6E7E8;}
	.st5{fill:#476320;}
	.st6{fill:#2F3646;}
	.st7{fill:#415168;}
	.st8{fill:url(#SVGID_4_);}
	.st9{fill:url(#SVGID_5_);}
	.st10{fill:url(#SVGID_6_);}
	.st11{fill:url(#SVGID_7_);}
	.st12{fill:url(#SVGID_8_);}
	.st13{fill:url(#SVGID_9_);}
	.st14{fill:url(#SVGID_10_);}
	.st15{fill:url(#SVGID_11_);}
	.st16{fill:url(#SVGID_12_);}
	.st17{fill:url(#SVGID_13_);}
	.st18{fill:url(#SVGID_14_);}
	.st19{fill:#A4FF00;}
	.st20{fill:#6A952F;}
	.st21{fill:url(#SVGID_15_);}
	.st22{fill:url(#SVGID_16_);}
	.st23{fill:url(#SVGID_17_);}
	.st24{fill:url(#SVGID_18_);}
	.st25{fill:#D1D3D4;}
	.st26{fill:url(#SVGID_19_);}
	.st27{opacity:0.6;fill:url(#SVGID_20_);}
	.st28{fill:url(#SVGID_21_);}
	.st29{fill:url(#SVGID_22_);}
	.st30{fill:url(#SVGID_23_);}
	.st31{fill:#759933;}
	.st32{fill:url(#SVGID_24_);}
	.st33{fill:url(#SVGID_25_);}
	.st34{fill:url(#SVGID_26_);}
	.st35{fill:url(#SVGID_27_);}
	.st36{fill:url(#SVGID_28_);}
	.st37{fill:url(#SVGID_29_);}
	.st38{fill:url(#SVGID_30_);}
	.st39{fill:url(#SVGID_31_);}
	.st40{fill:url(#SVGID_32_);}
	.st41{fill:url(#SVGID_33_);}
	.st42{fill:url(#SVGID_34_);}
	.st43{fill:url(#SVGID_35_);}
	.st44{fill:url(#SVGID_36_);}
	.st45{fill:url(#SVGID_37_);}
	.st46{fill:#528000;}
	.st47{fill:#8996A1;}
	.st48{fill:#C4CBD0;}
</style>
<g>
	<g>
		<path class="st0" d="M14,18.6c0,0,0.1-6.3,19,11.4c15.5,14.5,12.2,16.1,12.2,16.1s5.7,1.7,3.6-3.7c-2.1-5.4-11.8-16-20-22.3
			C19.7,13.1,11.1,11.3,14,18.6z"/>
		<linearGradient id="SVGID_1_" gradientUnits="userSpaceOnUse" x1="20.7322" y1="22.8216" x2="42.195" y2="22.8216">
			<stop  offset="0" style="stop-color:#415168"/>
			<stop  offset="0.2688" style="stop-color:#2F3646"/>
			<stop  offset="0.5323" style="stop-color:#9FA4AE"/>
			<stop  offset="0.7742" style="stop-color:#E3EBF1"/>
			<stop  offset="1" style="stop-color:#A7B6C7"/>
		</linearGradient>
		<path class="st1" d="M20.7,15.5c0,0,12,6.8,20.2,16.3l1.3-2.1c0,0-7.1-9.3-18.8-16L20.7,15.5z"/>
		<linearGradient id="SVGID_2_" gradientUnits="userSpaceOnUse" x1="-14.0328" y1="-10.3184" x2="59.5362" y2="54.0006">
			<stop  offset="0" style="stop-color:#415168"/>
			<stop  offset="0.2688" style="stop-color:#2F3646"/>
			<stop  offset="0.5323" style="stop-color:#9FA4AE"/>
			<stop  offset="0.7742" style="stop-color:#E3EBF1"/>
			<stop  offset="1" style="stop-color:#A7B6C7"/>
		</linearGradient>
		<path class="st2" d="M45.5,46.2c0,0,7.9,2.1,0-8.9l-0.6,0.9C44.9,38.2,52.1,47.1,45.5,46.2z"/>
		<linearGradient id="SVGID_3_" gradientUnits="userSpaceOnUse" x1="-10.1465" y1="-12.8128" x2="62.4555" y2="50.6609">
			<stop  offset="0" style="stop-color:#415168"/>
			<stop  offset="0.2688" style="stop-color:#2F3646"/>
			<stop  offset="0.5323" style="stop-color:#9FA4AE"/>
			<stop  offset="0.7742" style="stop-color:#E3EBF1"/>
			<stop  offset="1" style="stop-color:#A7B6C7"/>
		</linearGradient>
		<path class="st3" d="M29.7,22.7c0,0,3.7,2.7,6.3,5.6l0.5-0.8c0,0-4.3-4.3-6.1-5.4L29.7,22.7z"/>
		<path class="st4" d="M36.3,27.5c-2.7-2.8-6-5.2-6-5.3l0,0l0.2-0.3l0,0c0,0,3.4,2.4,6.1,5.3l0,0L36.3,27.5L36.3,27.5z"/>
		<path class="st5" d="M35.9,28.4c-3.5-3.6-6.2-5.6-6.3-5.6l0.2-0.2c0,0,2.8,2,6.3,5.6L35.9,28.4z"/>
		<path class="st5" d="M45,38.1c0,0,0.4,0.4,0.9,1.1c0.5,0.7,1.1,1.6,1.6,2.6c0.1,0.3,0.2,0.5,0.3,0.8c0.1,0.3,0.2,0.5,0.3,0.8
			c0,0.1,0.1,0.3,0.1,0.4c0,0.1,0.1,0.2,0.1,0.4c0,0.1,0,0.2,0,0.4c0,0.1,0,0.1,0,0.2c0,0.1,0,0.1,0,0.2c0,0.2-0.1,0.4-0.1,0.6
			c-0.1,0.2-0.2,0.3-0.2,0.4c-0.1,0.1-0.2,0.2-0.2,0.2c-0.1,0-0.1,0.1-0.1,0.1s0,0,0.1-0.1c0,0,0.1-0.1,0.2-0.2
			c0.1-0.1,0.2-0.2,0.2-0.4c0.1-0.2,0.1-0.3,0.1-0.5c0-0.1,0-0.1,0-0.2c0-0.1,0-0.1,0-0.2c0-0.1,0-0.2,0-0.3c0-0.1,0-0.2-0.1-0.4
			c0-0.1-0.1-0.2-0.1-0.4c-0.1-0.2-0.2-0.5-0.3-0.7c-0.1-0.2-0.2-0.5-0.4-0.7c-0.5-1-1.2-1.9-1.7-2.6c-0.3-0.3-0.5-0.6-0.6-0.8
			c-0.2-0.2-0.2-0.3-0.2-0.3L45,38.1z"/>
		<path class="st6" d="M33.9,31c-3-2.9-6.3-5.6-6.3-5.6l0.1-0.1c0,0,3.2,2.8,6.3,5.6L33.9,31z"/>
		<path class="st6" d="M43.1,40.5c0,0,1,1.2,1.7,2.6c0.2,0.3,0.3,0.7,0.5,1c0.1,0.2,0.1,0.3,0.2,0.5c0,0.2,0.1,0.3,0.1,0.5
			c0,0.1,0,0.3,0,0.4c0,0.1,0,0.2,0,0.3c0,0.1,0,0.1-0.1,0.2c0,0,0,0.1,0,0.1s0,0,0-0.1c0,0,0-0.1,0.1-0.2c0-0.1,0-0.2,0-0.3
			c0-0.1,0-0.2,0-0.4c0-0.1-0.1-0.3-0.1-0.4c0-0.2-0.1-0.3-0.2-0.5c-0.1-0.3-0.3-0.7-0.5-1c-0.4-0.7-0.8-1.3-1.1-1.8
			C43.2,41,43,40.7,43,40.7L43.1,40.5z"/>
		<path class="st7" d="M14,18.6c0,0,1.1-4,15.8,9.2c8.8,8,12.9,13,14.4,15.7c1,1.8,0.6,2.5,0.1,2.5c-1.2-0.1,1.3,1.9,1.3-0.7
			c-0.1-2.8-8-11.3-11.8-14.8S14.9,13.4,14,18.6z"/>
		<linearGradient id="SVGID_4_" gradientUnits="userSpaceOnUse" x1="37.4771" y1="61.0041" x2="54.2685" y2="29.2419">
			<stop  offset="0" style="stop-color:#415168"/>
			<stop  offset="0.2789" style="stop-color:#2F3646"/>
			<stop  offset="0.5553" style="stop-color:#9FA4AE"/>
			<stop  offset="0.7742" style="stop-color:#E3EBF1"/>
			<stop  offset="1" style="stop-color:#A7B6C7"/>
		</linearGradient>
		<path class="st8" d="M42.2,29.8c-0.3,0.6-0.7,1.4-1.3,2.1c5.9,6.3,9.7,11.8,7.4,14c-1.4,1.4-4.2,0.1-8.3-2.8c0,0-7.8,7.4-7.9,7.4
			c8.3,5.4,16.8,7.4,20.4,4C57.1,50.2,52,39.8,42.2,29.8z"/>
		<linearGradient id="SVGID_5_" gradientUnits="userSpaceOnUse" x1="-12.9684" y1="-10.6212" x2="60.7961" y2="53.8689">
			<stop  offset="0" style="stop-color:#415168"/>
			<stop  offset="0.2688" style="stop-color:#2F3646"/>
			<stop  offset="0.5323" style="stop-color:#9FA4AE"/>
			<stop  offset="0.7742" style="stop-color:#E3EBF1"/>
			<stop  offset="1" style="stop-color:#A7B6C7"/>
		</linearGradient>
		<path class="st9" d="M13.5,15.8c0,0,0.5-2.4,6.3,0.3l0.7-0.7C20.5,15.4,13.8,12.1,13.5,15.8z"/>
		<radialGradient id="SVGID_6_" cx="31.3922" cy="35.4744" r="20.6617" gradientUnits="userSpaceOnUse">
			<stop  offset="0" style="stop-color:#A4FF00"/>
			<stop  offset="1" style="stop-color:#7BBF00"/>
		</radialGradient>
		<ellipse class="st10" cx="32.7" cy="44.8" rx="1.4" ry="1.3"/>
		<path class="st5" d="M19.6,16.2C19.6,16.2,19.6,16.2,19.6,16.2c-0.3-0.1-0.5-0.3-0.8-0.4c-0.6-0.3-1.3-0.6-2.1-0.8
			c-0.2-0.1-0.4-0.1-0.6-0.1c-0.2,0-0.4-0.1-0.6-0.1c-0.1,0-0.2,0-0.3,0c-0.1,0-0.2,0-0.3,0c-0.1,0-0.2,0-0.3,0
			c-0.1,0-0.2,0-0.2,0.1c-0.1,0-0.1,0.1-0.2,0.1c-0.1,0-0.1,0.1-0.2,0.1c0,0-0.1,0.1-0.1,0.1c0,0-0.1,0.1-0.1,0.1
			c0,0-0.1,0.1-0.1,0.1c0,0,0,0.1,0,0.1c0,0,0,0.1,0,0.1s0,0,0-0.1c0,0,0,0,0-0.1c0,0,0-0.1,0.1-0.1c0,0,0.1-0.1,0.1-0.1
			c0,0,0.1-0.1,0.1-0.1c0,0,0.1-0.1,0.2-0.1c0.1,0,0.1-0.1,0.2-0.1c0.1,0,0.2-0.1,0.2-0.1c0.1,0,0.2,0,0.3-0.1c0.1,0,0.2,0,0.3,0
			c0.1,0,0.2,0,0.3,0c0.2,0,0.4,0,0.6,0c0.2,0,0.4,0.1,0.6,0.1c0.8,0.2,1.6,0.4,2.2,0.7c0.3,0.1,0.5,0.2,0.7,0.3
			c0.2,0.1,0.2,0.1,0.2,0.1L19.6,16.2z"/>
		<path class="st6" d="M17.5,18.2c0,0-0.2-0.1-0.6-0.3c-0.3-0.1-0.8-0.3-1.3-0.4c-0.1,0-0.2,0-0.4,0c-0.1,0-0.2,0-0.4,0
			c-0.1,0-0.2,0.1-0.3,0.1c0,0-0.1,0.1-0.1,0.1c0,0-0.1,0.1-0.1,0.1c0,0-0.1,0.1-0.1,0.1c0,0,0,0.1-0.1,0.1c0,0.1-0.1,0.1-0.1,0.2
			c0,0.1-0.1,0.2-0.1,0.2s0-0.1,0-0.2c0,0,0-0.1,0.1-0.2c0,0,0-0.1,0.1-0.1c0,0,0.1-0.1,0.1-0.1c0,0,0.1-0.1,0.1-0.1
			c0,0,0.1-0.1,0.1-0.1c0.1-0.1,0.2-0.1,0.3-0.1c0.1,0,0.2-0.1,0.4-0.1c0.1,0,0.3,0,0.4,0c0.5,0,1,0.2,1.4,0.3
			c0.4,0.1,0.6,0.2,0.6,0.2L17.5,18.2z"/>
		<linearGradient id="SVGID_7_" gradientUnits="userSpaceOnUse" x1="47.4623" y1="47.1444" x2="46.283" y2="43.1086">
			<stop  offset="0" style="stop-color:#000000"/>
			<stop  offset="1" style="stop-color:#000000;stop-opacity:0"/>
		</linearGradient>
		<path class="st11" d="M44.6,45.9c0,0,2.6,1.4,3.9-0.2s-1.1-5.3-1.1-5.3l-3.2,3.4C44.3,43.7,45,45.1,44.6,45.9z"/>
		<linearGradient id="SVGID_8_" gradientUnits="userSpaceOnUse" x1="43.3058" y1="38.2034" x2="45.0837" y2="44.6684">
			<stop  offset="0" style="stop-color:#415168"/>
			<stop  offset="1" style="stop-color:#A7B6C7"/>
		</linearGradient>
		<path class="st12" d="M47,46.6c-2.6,0-6.3-2.9-6.5-3l0,0l0.2-0.3l0,0c0,0,3.8,2.9,6.2,2.9c0.6,0,1.1-0.2,1.4-0.5c2-2-3-8.2-3-8.3
			l0,0l0.3-0.2l0,0c0.2,0.3,5.2,6.5,3,8.7C48.2,46.4,47.7,46.6,47,46.6z"/>
		<linearGradient id="SVGID_9_" gradientUnits="userSpaceOnUse" x1="44.2577" y1="37.9949" x2="46.7371" y2="40.4744">
			<stop  offset="0" style="stop-color:#000000"/>
			<stop  offset="1" style="stop-color:#000000;stop-opacity:0"/>
		</linearGradient>
		<path class="st13" d="M42.6,41.2c0,0,2.3-2.7,4.3-6.1c0,0,1.5,1.8,2.4,3.2l-5.2,5c0,0-0.4-0.7-0.7-1.1
			C43.2,41.9,42.6,41.2,42.6,41.2z"/>
		<linearGradient id="SVGID_10_" gradientUnits="userSpaceOnUse" x1="30.4652" y1="23.101" x2="35.8591" y2="28.4948">
			<stop  offset="0" style="stop-color:#000000"/>
			<stop  offset="1" style="stop-color:#000000;stop-opacity:0"/>
		</linearGradient>
		<path class="st14" d="M33.7,31.5c0,0,2.8-3.6,4.1-6.7c0,0-2.6-2.5-4.2-3.9c0,0-3.1,1.2-6.3,4.7C27.4,25.7,32.3,30.1,33.7,31.5z"/>
		<linearGradient id="SVGID_11_" gradientUnits="userSpaceOnUse" x1="36.3969" y1="28.6128" x2="34.5375" y2="27.0815">
			<stop  offset="0" style="stop-color:#000000"/>
			<stop  offset="1" style="stop-color:#000000;stop-opacity:0"/>
		</linearGradient>
		<path class="st15" d="M33.7,31.5c0,0,3.1-4.1,4.1-6.7l-1.6-1.5l-4.9,5.8C31.3,29.2,33.5,31.2,33.7,31.5z"/>
		<linearGradient id="SVGID_12_" gradientUnits="userSpaceOnUse" x1="12.763" y1="16.7335" x2="16.2006" y2="16.0889">
			<stop  offset="0" style="stop-color:#000000"/>
			<stop  offset="1" style="stop-color:#000000;stop-opacity:0"/>
		</linearGradient>
		<path class="st16" d="M16.2,18.2c0,0-0.5-3.2,0.5-4c0,0-4.4-1.3-2.7,4.4C14,18.6,14.3,17.7,16.2,18.2z"/>
		<g>
			<linearGradient id="SVGID_13_" gradientUnits="userSpaceOnUse" x1="43.166" y1="21.6243" x2="15.6089" y2="43.4437">
				<stop  offset="0" style="stop-color:#415168"/>
				<stop  offset="0.2688" style="stop-color:#2F3646"/>
				<stop  offset="0.5323" style="stop-color:#9FA4AE"/>
				<stop  offset="0.7742" style="stop-color:#E3EBF1"/>
				<stop  offset="1" style="stop-color:#A7B6C7"/>
			</linearGradient>
			<path class="st17" d="M23.1,44.2c-1.2,0-2.2-0.3-3-1c-3-2.7-1.1-9.7,4.5-16c5.6-6.3,12.3-9.1,15.3-6.4c3,2.7,1.1,9.7-4.5,16l0,0
				C31.3,41.5,26.5,44.2,23.1,44.2z M37,20.9c-3,0-7.7,2.7-11.5,7c-5,5.6-7.1,12.2-4.6,14.4c2.5,2.2,8.8-0.7,13.7-6.3l0,0
				c5-5.6,7.1-12.2,4.6-14.4C38.6,21.2,37.9,20.9,37,20.9z"/>
			<path class="st0" d="M17.9,22.7C11,30.9,8.7,40,12.6,43c1.8,1.4,4.5,1.3,7.6,0c-0.2-0.1-0.5-0.1-0.6-0.3c-1.8-3-0.5-8.7,4.7-15
				c4.5-5.4,10.8-8.2,13.8-7.5c0.2,0.1,0.9,0.2,1,0.4c0.6-3.2,0.1-5.8-1.7-7.1C33.5,10.4,24.8,14.6,17.9,22.7z"/>
			<linearGradient id="SVGID_14_" gradientUnits="userSpaceOnUse" x1="40.5556" y1="19.5791" x2="-0.3355" y2="67.8242">
				<stop  offset="0" style="stop-color:#415168"/>
				<stop  offset="0.2688" style="stop-color:#2F3646"/>
				<stop  offset="0.5323" style="stop-color:#9FA4AE"/>
				<stop  offset="0.7742" style="stop-color:#E3EBF1"/>
				<stop  offset="1" style="stop-color:#A7B6C7"/>
			</linearGradient>
			<path class="st18" d="M23,44.1c-1.1,0-2.1-0.3-2.9-1c-2.9-2.6-0.9-9.7,4.5-15.9c2.6-3,5.6-5.3,8.5-6.5c2.9-1.2,5.3-1.2,6.7,0.1
				c1.4,1.3,1.8,3.6,0.9,6.7c-0.9,3-2.8,6.2-5.4,9.2l-0.1-0.1l0.1,0.1C31.3,41.4,26.4,44.1,23,44.1z M37,20.2
				c-1.1,0-2.3,0.3-3.7,0.9c-2.8,1.2-5.8,3.5-8.4,6.4c-5.3,6-7.4,12.9-4.6,15.4c0.7,0.6,1.6,0.9,2.7,0.9c3.3,0,8.1-2.7,12.1-7.3l0,0
				c2.6-2.9,4.5-6.1,5.4-9.1c0.8-2.9,0.6-5.1-0.8-6.3C39,20.5,38.1,20.2,37,20.2z"/>
			<path class="st19" d="M19.2,45.7c-1.6,0-3-0.5-4.1-1.4c-1.9-1.7-2.4-4.8-1.4-8.7c1-3.8,3.4-8,6.7-11.7c3.3-3.7,7.2-6.6,10.8-8.1
				c3.7-1.5,6.9-1.4,8.8,0.4c1.9,1.7,2.4,4.8,1.4,8.7c-1,3.8-3.4,8-6.7,11.7c-3.3,3.7-7.2,6.6-10.8,8.1
				C22.2,45.4,20.6,45.7,19.2,45.7z M36,15.3c-4.3,0-10.2,3.3-15.2,8.9c-3.3,3.7-5.6,7.8-6.6,11.5c-1,3.7-0.5,6.6,1.3,8.2
				c1,0.9,2.3,1.3,3.8,1.3c4.3,0,10.2-3.3,15.2-8.9c6.7-7.5,9.1-16.4,5.3-19.7C38.8,15.7,37.5,15.3,36,15.3z"/>
			<path class="st20" d="M18.9,45.7c-1.6,0-3-0.4-4-1.4c-1.9-1.7-2.4-4.8-1.4-8.7c1-3.9,3.4-8.1,6.8-11.9c3.4-3.8,7.3-6.7,11-8.2
				c3.8-1.5,6.9-1.4,8.8,0.3c1.9,1.7,2.4,4.8,1.4,8.7c-1,3.9-3.4,8.1-6.8,11.9C29.5,42.3,23.4,45.7,18.9,45.7z M36,14.9
				c-1.4,0-2.9,0.3-4.6,1c-3.7,1.5-7.5,4.3-10.8,8.1c-3.3,3.7-5.7,7.9-6.7,11.7c-1,3.8-0.6,6.8,1.3,8.4c3.8,3.4,12.5-0.1,19.3-7.8
				l0.1,0.1l-0.1-0.1c3.3-3.7,5.7-7.9,6.7-11.7c1-3.8,0.6-6.8-1.3-8.4C38.9,15.3,37.6,14.9,36,14.9z"/>
			<path class="st19" d="M20.6,45.5c-1.5,0-2.7-0.4-3.7-1.3c-1.8-1.6-2.2-4.5-1.2-8.1c1-3.6,3.2-7.4,6.3-10.9
				c3.1-3.5,6.7-6.2,10.1-7.6c3.5-1.4,6.4-1.3,8.2,0.3c1.8,1.6,2.2,4.5,1.2,8.1c-1,3.6-3.2,7.4-6.3,10.9c-3.1,3.5-6.7,6.2-10.1,7.6
				C23.4,45.2,21.9,45.5,20.6,45.5z M36.6,17.2c-1.2,0-2.7,0.3-4.2,1c-3.3,1.4-6.8,4-9.9,7.4c-6.2,7-8.5,15.1-5.2,18.1
				c3.4,3,11.2-0.3,17.4-7.3l0,0c3-3.4,5.2-7.2,6.2-10.7c0.9-3.4,0.6-6-1-7.4C39,17.6,37.9,17.2,36.6,17.2z"/>
			<path class="st20" d="M20.3,45.3c-1.4,0-2.7-0.4-3.6-1.2c-3.6-3.2-1.2-11.7,5.2-18.9c6.5-7.3,14.6-10.6,18.2-7.4
				c3.6,3.2,1.2,11.7-5.2,18.9l-0.1-0.1l0.1,0.1c-3.1,3.5-6.7,6.2-10.1,7.6C23.1,44.9,21.6,45.3,20.3,45.3z M36.5,16.8
				c-4,0-9.6,3.2-14.4,8.5c-6.3,7.1-8.7,15.4-5.3,18.5c1.6,1.5,4.4,1.5,7.7,0.1c3.4-1.4,6.9-4.1,10-7.5c6.3-7.1,8.7-15.4,5.3-18.5
				C39,17.2,37.9,16.8,36.5,16.8z"/>
			<path class="st19" d="M22.1,44.9c-1.3,0-2.5-0.4-3.3-1.1c-1.6-1.4-2-4-1.1-7.3c0.9-3.2,3-6.8,5.8-10c2.8-3.2,6.1-5.7,9.2-6.9
				c3.2-1.3,5.8-1.2,7.4,0.2c1.6,1.4,2,4,1.1,7.3c-0.9,3.2-3,6.8-5.8,10c-2.8,3.2-6.1,5.7-9.2,6.9C24.7,44.6,23.3,44.9,22.1,44.9z
				 M36.9,19c-3.6,0-8.7,2.9-13,7.7c-5.7,6.4-7.9,13.9-4.8,16.6c1.5,1.3,3.9,1.3,6.9,0.1c3-1.3,6.3-3.7,9-6.8
				c5.7-6.4,7.9-13.9,4.8-16.6C39.1,19.4,38.1,19,36.9,19z"/>
			<path class="st20" d="M21.8,44.8c-1.3,0-2.4-0.4-3.2-1.1c-1.6-1.4-1.9-4-1-7.3c0.9-3.3,3-6.8,5.9-10s6.2-5.7,9.3-7
				c3.2-1.3,5.8-1.3,7.4,0.1c1.6,1.4,1.9,4,1,7.3c-0.9,3.3-3,6.8-5.9,10l0,0c-2.9,3.2-6.2,5.7-9.3,7C24.4,44.4,23,44.8,21.8,44.8z
				 M36.9,18.7c-1.2,0-2.5,0.3-4,0.9c-3.1,1.3-6.3,3.8-9.2,6.9c-2.8,3.2-4.9,6.7-5.8,9.9c-0.9,3.2-0.6,5.6,0.9,7
				c1.5,1.3,4,1.3,7,0.1c3.1-1.3,6.3-3.8,9.2-6.9l0,0c2.8-3.2,4.9-6.7,5.8-9.9c0.9-3.2,0.6-5.6-0.9-7C39.1,19,38.1,18.7,36.9,18.7z"
				/>
		</g>
		<path class="st5" d="M17.6,46.4c-1.8,0-3.4-0.5-4.5-1.6c-2.1-1.9-2.7-5.3-1.6-9.6c1.1-4.2,3.7-8.7,7.3-12.7
			c3.6-4,7.8-7.1,11.8-8.7c4.1-1.6,7.5-1.5,9.7,0.4s2.7,5.3,1.6,9.6c-1.1,4.2-3.7,8.7-7.3,12.7l0,0c-3.6,4-7.8,7.1-11.8,8.7
			C20.9,46,19.2,46.4,17.6,46.4z M35.7,13.6c-1.4,0-3,0.4-4.8,1.1c-3.9,1.5-7.9,4.5-11.4,8.5c-3.5,3.9-6,8.3-7.1,12.3
			c-1,3.9-0.6,6.9,1.3,8.6c1.9,1.7,4.9,1.7,8.7,0.3c3.9-1.5,7.9-4.5,11.4-8.5c3.5-3.9,6-8.3,7.1-12.3c1-3.9,0.6-6.9-1.3-8.6
			C38.6,14.1,37.3,13.6,35.7,13.6z"/>
		<linearGradient id="SVGID_15_" gradientUnits="userSpaceOnUse" x1="42.4697" y1="11.5399" x2="4.6494" y2="53.32">
			<stop  offset="0" style="stop-color:#415168"/>
			<stop  offset="0.2688" style="stop-color:#2F3646"/>
			<stop  offset="0.5323" style="stop-color:#9FA4AE"/>
			<stop  offset="0.7742" style="stop-color:#E3EBF1"/>
			<stop  offset="1" style="stop-color:#A7B6C7"/>
		</linearGradient>
		<path class="st21" d="M17.3,46.1c-1.8,0-3.3-0.5-4.5-1.5c-2.1-1.9-2.7-5.3-1.5-9.5c1.1-4.1,3.7-8.6,7.3-12.6
			c3.6-4,7.7-7.1,11.7-8.7c4.1-1.6,7.5-1.5,9.6,0.4c2.1,1.9,2.7,5.3,1.5,9.5c-1.1,4.1-3.7,8.6-7.3,12.6v0c-3.6,4-7.7,7.1-11.7,8.7
			C20.6,45.7,18.9,46.1,17.3,46.1z M35.4,13.6c-1.4,0-3,0.4-4.8,1.1c-3.8,1.5-7.8,4.5-11.3,8.4c-3.5,3.9-6,8.3-7,12.2
			c-1,3.9-0.6,6.9,1.3,8.5c1.8,1.6,4.9,1.7,8.6,0.2c3.8-1.5,7.8-4.5,11.3-8.4c3.5-3.9,6-8.3,7-12.2c1-3.9,0.6-6.9-1.3-8.5
			C38.2,14,36.9,13.6,35.4,13.6z"/>
		<linearGradient id="SVGID_16_" gradientUnits="userSpaceOnUse" x1="15.3815" y1="44.7637" x2="16.1896" y2="37.2751">
			<stop  offset="0" style="stop-color:#000000"/>
			<stop  offset="1" style="stop-color:#000000;stop-opacity:0"/>
		</linearGradient>
		<path class="st22" d="M21.2,42.6c0,0-2.5-1.3-0.5-6.9c0,0-1.8-5.9-8.7-2.9c0,0-4.1,8.2,2,10.8C13.9,43.6,16.4,44.7,21.2,42.6z"/>
		<linearGradient id="SVGID_17_" gradientUnits="userSpaceOnUse" x1="40.0277" y1="14.6957" x2="29.2796" y2="20.5142">
			<stop  offset="0" style="stop-color:#000000"/>
			<stop  offset="1" style="stop-color:#000000;stop-opacity:0"/>
		</linearGradient>
		<path class="st23" d="M39.2,21.7c0,0-2.5-2.3-8.3,1.5c0,0-6.1-0.8-5-7.2c0,0,7.8-6,12.4-1.9C38.2,14.1,40.4,15.8,39.2,21.7z"/>
		
			<linearGradient id="SVGID_18_" gradientUnits="userSpaceOnUse" x1="144.5699" y1="-119.7758" x2="159.8427" y2="-164.082" gradientTransform="matrix(0.6804 -0.8451 0.7789 0.6271 38.5507 253.4747)">
			<stop  offset="0" style="stop-color:#415168"/>
			<stop  offset="0.2688" style="stop-color:#2F3646"/>
			<stop  offset="0.5323" style="stop-color:#9FA4AE"/>
			<stop  offset="0.7742" style="stop-color:#E3EBF1"/>
			<stop  offset="1" style="stop-color:#A7B6C7"/>
		</linearGradient>
		<path class="st24" d="M15.2,20.7C4.9,33,2.6,47.6,10,53.4S32,53.8,42.3,41.5S55,14.6,47.5,8.9S25.6,8.4,15.2,20.7z M32.2,33.7
			C25.3,41.9,16.5,46,13,43.2c-3.9-3.1-2.8-11.8,5-20.5c7.2-7.9,15.5-12.3,19.5-9.2S39,25.6,32.2,33.7z"/>
		<path class="st25" d="M38.1,13.6c-0.9-0.8-2.1-1.2-3.6-1.2c-1.5,0-3.2,0.4-5.1,1.2c-3.7,1.6-7.6,4.7-11.1,8.5
			c-3.4,3.9-6,8.2-7.2,12c-1.2,3.9-0.8,7,1,8.6c0.9,0.8,2.1,1.2,3.6,1.2c1.5,0,3.2-0.4,5.1-1.2c3.7-1.6,7.6-4.7,11.1-8.5
			c3.4-3.9,6-8.2,7.2-12C40.3,18.3,39.9,15.3,38.1,13.6z M37.8,14c1.7,1.5,2,4.4,0.9,8.2c-1.2,3.8-3.7,8-7.1,11.9
			c-3.4,3.8-7.3,6.8-10.9,8.4c-1.8,0.8-3.5,1.2-4.9,1.2c-1.4,0-2.5-0.4-3.3-1.1c-3.6-3.2-0.8-12.2,6.2-20.1
			c5.2-5.8,11.4-9.6,15.8-9.6C35.8,12.8,36.9,13.2,37.8,14z"/>
		<linearGradient id="SVGID_19_" gradientUnits="userSpaceOnUse" x1="11.9627" y1="26.2083" x2="12.2853" y2="33.1989">
			<stop  offset="0" style="stop-color:#000000"/>
			<stop  offset="1" style="stop-color:#000000;stop-opacity:0"/>
		</linearGradient>
		<path class="st26" d="M7.6,33.2l0.8,1.5l8.6-1l-0.1-3.2L10,27.9c0,0-0.7,1.4-1.4,2.7C8.2,31.7,7.8,32.7,7.6,33.2z"/>
		
			<radialGradient id="SVGID_20_" cx="15.9962" cy="10.4669" r="6.5561" gradientTransform="matrix(1 0 0 0.9562 0 14.3553)" gradientUnits="userSpaceOnUse">
			<stop  offset="0" style="stop-color:#000000"/>
			<stop  offset="1" style="stop-color:#000000;stop-opacity:0"/>
		</radialGradient>
		<polygon class="st27" points="16.6,19 18.4,22 19.9,20.2 20.9,29.9 17.3,30.3 14.1,21.8 		"/>
		<linearGradient id="SVGID_21_" gradientUnits="userSpaceOnUse" x1="3.7542" y1="37.9357" x2="19.7992" y2="7.5856">
			<stop  offset="0" style="stop-color:#415168"/>
			<stop  offset="0.2688" style="stop-color:#2F3646"/>
			<stop  offset="0.5323" style="stop-color:#9FA4AE"/>
			<stop  offset="0.7742" style="stop-color:#E3EBF1"/>
			<stop  offset="1" style="stop-color:#A7B6C7"/>
		</linearGradient>
		<path class="st28" d="M17.2,23.9c-3-4-4.7-7.7-3.3-9.2c1.1-1.1,3.9-0.4,6.5,0.7c0.6-0.4,1.3-1.2,2.3-1.9c-0.4-0.3-1.5-0.9-1.9-1.1
			c0,0,0,0,0,0c-0.4-0.2-0.9-0.4-1.3-0.6c0,0,0,0,0,0c-0.4-0.2-0.9-0.4-1.3-0.5c0,0,0,0,0,0c-0.4-0.2-0.8-0.3-1.2-0.4c0,0,0,0-0.1,0
			c-0.4-0.1-0.8-0.2-1.2-0.4c0,0,0,0-0.1,0c-0.2,0-0.4-0.1-0.6-0.1c0,0,0,0,0,0c-0.2,0-0.4-0.1-0.6-0.1c0,0,0,0-0.1,0
			c-0.2,0-0.3-0.1-0.5-0.1c0,0,0,0,0,0c-0.2,0-0.4-0.1-0.5-0.1c0,0,0,0-0.1,0c-0.2,0-0.3,0-0.5,0c0,0,0,0-0.1,0c-0.2,0-0.3,0-0.5,0
			c0,0,0,0-0.1,0c-0.1,0-0.3,0-0.4,0c0,0-0.1,0-0.1,0c-0.2,0-0.3,0-0.5,0c0,0,0,0-0.1,0c-0.1,0-0.3,0-0.4,0c0,0-0.1,0-0.1,0
			c-0.1,0-0.3,0-0.4,0.1c0,0,0,0-0.1,0c-0.1,0-0.2,0-0.4,0.1c0,0-0.1,0-0.1,0c-0.1,0-0.3,0.1-0.4,0.1c0,0,0,0-0.1,0
			c-0.1,0-0.2,0.1-0.3,0.1c0,0-0.1,0-0.1,0c-0.1,0-0.2,0.1-0.4,0.2c0,0,0,0,0,0c-0.1,0-0.2,0.1-0.3,0.2c0,0-0.1,0-0.1,0
			c-0.1,0.1-0.2,0.1-0.3,0.2c0,0,0,0,0,0c-0.1,0.1-0.2,0.1-0.3,0.2c0,0-0.1,0-0.1,0.1c-0.1,0.1-0.2,0.2-0.3,0.2
			c-0.1,0.1-0.1,0.1-0.2,0.2c0,0,0,0-0.1,0.1c0,0-0.1,0.1-0.1,0.1c0,0,0,0.1-0.1,0.1c0,0-0.1,0.1-0.1,0.1c0,0,0,0.1-0.1,0.1
			c0,0-0.1,0.1-0.1,0.1c0,0,0,0.1-0.1,0.1c0,0-0.1,0.1-0.1,0.1c0,0,0,0.1-0.1,0.1c0,0,0,0.1-0.1,0.1c0,0,0,0.1-0.1,0.1
			c0,0,0,0.1-0.1,0.1c0,0,0,0.1-0.1,0.1c0,0,0,0.1-0.1,0.1c0,0,0,0.1,0,0.1c0,0,0,0.1,0,0.1c0,0,0,0.1,0,0.1c0,0,0,0.1,0,0.1
			c0,0,0,0.1,0,0.1c0,0,0,0.1,0,0.1c0,0,0,0.1,0,0.1c0,0,0,0.1,0,0.1c0,0,0,0.1,0,0.1c0,0,0,0.1,0,0.1c0,0,0,0.1,0,0.1
			c0,0,0,0.1,0,0.1c0,0.1,0,0.1,0,0.2c0,0,0,0.1,0,0.1c0,0.1,0,0.1,0,0.2c0,0,0,0.1,0,0.1c0,0.1,0,0.1,0,0.2c0,0,0,0.1,0,0.1
			c0,0.1,0,0.1,0,0.2c0,0,0,0.1,0,0.1c0,0.1,0,0.1,0,0.2c0,0,0,0.1,0,0.1c0,0.1,0,0.1,0,0.2c0,0,0,0.1,0,0.1c0,0.1,0,0.1,0,0.2
			c0,0,0,0.1,0,0.1c0,0.1,0,0.2,0,0.2c0,0,0,0,0,0.1c0,0.1,0,0.2,0,0.3c0,0,0,0,0,0c0.1,0.7,0.2,1.4,0.5,2.1c0,0,0,0,0,0
			c0,0.1,0.1,0.2,0.1,0.3c0,0,0,0,0,0c0,0.1,0.1,0.2,0.1,0.3c0,0,0,0,0,0c0,0.1,0.1,0.2,0.1,0.3c0,0,0,0,0,0c0,0.1,0.1,0.2,0.1,0.3
			c0,0,0,0,0,0.1c0,0.1,0.1,0.2,0.1,0.3c0,0,0,0,0,0.1c0,0.1,0.1,0.2,0.1,0.3c0,0,0,0,0,0.1c0,0.1,0.1,0.2,0.1,0.3c0,0,0,0,0,0
			c0,0.1,0.1,0.2,0.2,0.3c0,0,0,0,0,0C6.9,22.8,7,22.9,7.1,23c0,0,0,0,0,0c0.1,0.1,0.1,0.2,0.2,0.4c0,0,0,0,0,0
			c0.1,0.1,0.1,0.3,0.2,0.4c0,0,0,0,0,0c1.1,2.2,2.5,4.3,4.3,6.6c-0.7,1-1.1,1.6-1.1,1.6c3.9-0.3,7.7-0.6,7.7-0.6l0-8.8
			C17.9,23.1,17.5,23.5,17.2,23.9z"/>
		<path class="st25" d="M18.2,23.1l-0.9,1.1L17.1,24c-0.2-0.2-5.3-6.1-3.3-9.4v0c0,0,0.2-0.4,0.8-0.6c0.3-0.1,0.7-0.2,1.1-0.2
			c1.2,0,2.9,0.5,4.8,1.4l0.1,0l-0.3,0.3l0,0c-1.9-0.9-3.4-1.3-4.5-1.3c-0.4,0-0.7,0-1,0.1c-0.5,0.2-0.6,0.4-0.6,0.4
			c-1.7,2.8,2.4,8,3.1,8.8l1.2-1.5l0,9.4l-0.3,0L18.2,23.1z"/>
		<linearGradient id="SVGID_22_" gradientUnits="userSpaceOnUse" x1="20.2939" y1="16.9677" x2="17.5659" y2="14.7211">
			<stop  offset="0" style="stop-color:#000000"/>
			<stop  offset="1" style="stop-color:#000000;stop-opacity:0"/>
		</linearGradient>
		<path class="st29" d="M17,18.6c0,0,3.3-3.5,5.7-5c0,0-2-1.3-4-2c0,0-3.4,1.2-3.5,6.6c0,0,0.6,0.1,0.9,0.1S17,18.6,17,18.6z"/>
		<linearGradient id="SVGID_23_" gradientUnits="userSpaceOnUse" x1="8.3284" y1="34.5783" x2="15.3007" y2="10.5359">
			<stop  offset="0" style="stop-color:#2F3646"/>
			<stop  offset="1" style="stop-color:#A7B6C7"/>
		</linearGradient>
		<path class="st30" d="M16.7,30.1l-0.2-4.4l-1.3,1.4c0,0-4.1-4.8-6-10.1c-1.9-5.2-0.5-6.5,0.4-6.9c0,0-2.4,0.6-1.7,4.1
			s3.7,11,7.1,14.1L16.7,30.1z"/>
		<path class="st31" d="M16.2,29.6L16.1,27l-0.9,1.2l-0.1-0.1c0,0-2.2-2.4-4.3-6.2c-2.2-3.8-3.1-6.9-3-9.6l0.2,0
			c-0.1,2.7,0.8,5.8,3,9.5c2,3.4,3.9,5.7,4.3,6.1l1-1.4l0.1,3.1L16.2,29.6z"/>
		<linearGradient id="SVGID_24_" gradientUnits="userSpaceOnUse" x1="19.594" y1="16.4333" x2="10.2278" y2="21.6915">
			<stop  offset="0" style="stop-color:#415168"/>
			<stop  offset="1" style="stop-color:#A7B6C7"/>
		</linearGradient>
		<path class="st32" d="M16.7,30.1l-0.4-0.5L15,28.5C14,27.2,9.1,21,7.9,15.2c-0.6-3,0.2-4.3,1.2-4.9c0,0,0-0.1,0.1-0.1
			c-1.1,0.5-2.1,1.8-1.9,4.9C7.7,20.9,14,29,14,29l-1,1.3L16.7,30.1z"/>
		<g>
			<g>
				<radialGradient id="SVGID_25_" cx="16.1263" cy="26.005" r="14.9401" gradientUnits="userSpaceOnUse">
					<stop  offset="0" style="stop-color:#A4FF00"/>
					<stop  offset="1" style="stop-color:#7BBF00"/>
				</radialGradient>
				<path class="st33" d="M15.3,28.2c0,0-0.1-0.1-0.2-0.2c-0.1-0.1-0.2-0.3-0.4-0.5c-0.2-0.2-0.4-0.5-0.7-0.8
					c-0.1-0.2-0.3-0.3-0.4-0.5c-0.1-0.2-0.3-0.4-0.4-0.6c-0.3-0.4-0.6-0.9-0.9-1.3c-0.1-0.1-0.2-0.2-0.2-0.4
					c-0.1-0.1-0.2-0.3-0.2-0.4c-0.2-0.3-0.3-0.5-0.5-0.8c-0.2-0.3-0.3-0.5-0.5-0.8c-0.2-0.3-0.3-0.6-0.5-0.9
					c-0.3-0.6-0.6-1.2-0.9-1.8l-0.2-0.5c-0.1-0.2-0.1-0.3-0.2-0.5C9,18.1,9,17.9,8.9,17.8l-0.1-0.2l-0.1-0.2
					c-0.1-0.3-0.2-0.6-0.3-0.9c-0.1-0.3-0.2-0.6-0.2-0.9c-0.1-0.6-0.2-1.2-0.3-1.8c0-0.6,0-1.1,0.1-1.6c0.1-0.5,0.3-0.9,0.6-1.2
					c0.3-0.3,0.6-0.5,0.8-0.6C9.7,10,9.9,10,10.1,10c0.2,0,0.2,0,0.2,0s-0.1,0-0.2,0c-0.2,0-0.4,0.1-0.6,0.2
					c-0.3,0.1-0.6,0.3-0.9,0.6C8.3,11,8.1,11.5,7.9,12c-0.1,0.5-0.2,1.1-0.2,1.7c0,0.6,0.1,1.2,0.2,1.9c0.1,0.3,0.1,0.6,0.2,1
					c0.1,0.3,0.2,0.6,0.3,1l0.1,0.2l0.1,0.2c0.1,0.2,0.1,0.3,0.2,0.5c0.1,0.2,0.1,0.3,0.2,0.5l0.2,0.5c0.2,0.6,0.5,1.3,0.8,1.9
					c0.1,0.3,0.3,0.6,0.4,0.9c0.1,0.3,0.3,0.6,0.5,0.9c0.1,0.3,0.3,0.6,0.5,0.8c0.1,0.1,0.2,0.3,0.2,0.4c0.1,0.1,0.2,0.3,0.2,0.4
					c0.3,0.5,0.6,1,0.9,1.4c0.1,0.2,0.3,0.4,0.4,0.6c0.1,0.2,0.3,0.4,0.4,0.5c0.2,0.3,0.5,0.6,0.6,0.9c0.2,0.2,0.3,0.4,0.4,0.5
					c0.1,0.1,0.4,0.5,0.4,0.5L15.3,28.2z"/>
				<radialGradient id="SVGID_26_" cx="16.0374" cy="25.7476" r="14.7066" gradientUnits="userSpaceOnUse">
					<stop  offset="0" style="stop-color:#A4FF00"/>
					<stop  offset="1" style="stop-color:#7BBF00"/>
				</radialGradient>
				<path class="st34" d="M14,28c0,0-2.9-3.9-5.1-8.7s-1.3-8-0.1-8.8c0,0-1.8,1.1-0.7,5.6c0,0,1.1,4,3.4,7.7l2.6,4L14,28z"/>
			</g>
			<radialGradient id="SVGID_27_" cx="16.4414" cy="26.1517" r="14.7066" gradientUnits="userSpaceOnUse">
				<stop  offset="0" style="stop-color:#A4FF00"/>
				<stop  offset="1" style="stop-color:#7BBF00"/>
			</radialGradient>
			<polygon class="st35" points="14.1,29.7 16.2,29.6 16.1,27 			"/>
		</g>
		<linearGradient id="SVGID_28_" gradientUnits="userSpaceOnUse" x1="41.8392" y1="41.2283" x2="47.0112" y2="64.2868">
			<stop  offset="0" style="stop-color:#415168"/>
			<stop  offset="1" style="stop-color:#A7B6C7"/>
		</linearGradient>
		<path class="st36" d="M33,46.9c0,0,6,5,13,6.7c7.1,1.7,8-1.6,8.1-2.4c0,0-1.2,3.6-7.2,1.8c-6-1.8-13.1-6.8-13.1-6.8
			S32.7,46.4,33,46.9z"/>
		<linearGradient id="SVGID_29_" gradientUnits="userSpaceOnUse" x1="5.6944" y1="29.4843" x2="48.2051" y2="29.4843">
			<stop  offset="0" style="stop-color:#415168"/>
			<stop  offset="0.2688" style="stop-color:#2F3646"/>
			<stop  offset="1" style="stop-color:#A7B6C7"/>
		</linearGradient>
		<path class="st37" d="M48.1,15.3c-0.1-1.1-0.3-2.2-0.7-3.1c-0.4-1-0.9-1.8-1.5-2.6c-0.1-0.1-0.2-0.2-0.2-0.3
			c-0.1-0.1-0.2-0.2-0.2-0.3c-0.1-0.1-0.2-0.2-0.3-0.2l-0.1-0.1l0,0l0,0l0,0l-0.1-0.1c-0.3-0.3-0.7-0.5-1.1-0.7
			c-0.7-0.4-1.5-0.7-2.2-0.9c-0.1,0-0.1,0-0.2,0c0.5,0.2,0.9,0.5,1.4,0.8c8.4,4.7,2.2,17.7,2.2,17.7c-0.9,2.3-2.2,4.5-3.6,6.7
			c-1.4,2.2-3,4.3-4.7,6.2c-1.7,2-3.6,3.8-5.6,5.4c-2,1.6-4.1,3.1-6.2,4.3c-2.1,1.2-4.3,2.1-6.5,2.7c-1.1,0.3-2.1,0.4-3.2,0.5
			c-1,0.1-2,0-3-0.2c-0.9-0.2-1.8-0.5-2.5-1c-0.4-0.2-0.7-0.5-1-0.8c-0.3-0.3-0.6-0.5-0.9-0.9c-1.2-1.6-1.8-3.4-2-4.7
			c0,0,0.1,0.9,0.2,1.3C6.2,45.5,7,48,7.5,48.6c0.3,0.3,0.5,0.7,0.9,1c0.3,0.3,0.7,0.6,1.1,0.9c0.8,0.5,1.7,1,2.7,1.2
			c1,0.3,2.1,0.4,3.2,0.4c1.1,0,2.3-0.2,3.4-0.4c1.1-0.3,2.3-0.6,3.4-1c1.1-0.4,2.3-1,3.4-1.6c2.2-1.2,4.4-2.7,6.5-4.3
			c2.1-1.7,4-3.6,5.8-5.6c1.8-2,3.4-4.2,4.8-6.4c0.7-1.1,1.4-2.3,2-3.4c0.6-1.2,1.1-2.3,1.6-3.5c0.9-2.4,1.6-4.8,1.8-7.1
			C48.2,17.5,48.2,16.4,48.1,15.3z"/>
		<radialGradient id="SVGID_30_" cx="28.0305" cy="37.9234" r="33.3183" gradientUnits="userSpaceOnUse">
			<stop  offset="0" style="stop-color:#A4FF00"/>
			<stop  offset="1" style="stop-color:#7BBF00"/>
		</radialGradient>
		<path class="st38" d="M37.1,6.9c0.6-0.1,1.6-0.2,2.8-0.2c0.6,0,1.3,0.1,2,0.3c0.7,0.2,1.5,0.4,2.2,0.8c0.4,0.2,0.7,0.4,1.1,0.7
			c0.1,0.1,0.2,0.1,0.3,0.2c0.1,0.1,0.2,0.2,0.3,0.2c0.1,0.1,0.2,0.2,0.3,0.2c0.1,0.1,0.2,0.2,0.2,0.3c0.7,0.7,1.2,1.6,1.6,2.6
			c0.4,1,0.6,2.1,0.8,3.2c0.1,1.1,0.1,2.3,0,3.5c-0.2,2.4-0.9,4.8-1.8,7.2c-0.5,1.2-1,2.4-1.6,3.6c-0.6,1.2-1.3,2.4-2,3.5
			c-1.5,2.3-3.1,4.5-5,6.6l-0.7,0.8c-0.2,0.3-0.5,0.5-0.7,0.7l-0.4,0.4L36,41.9c-0.2,0.2-0.5,0.5-0.7,0.7c-1,0.9-2,1.8-3.1,2.7
			c-1.1,0.9-2.2,1.6-3.3,2.4c-1.1,0.7-2.3,1.4-3.4,2c-1.2,0.6-2.3,1.1-3.5,1.6c-1.2,0.4-2.4,0.8-3.5,1c-1.2,0.2-2.3,0.4-3.5,0.3
			c-1.1,0-2.2-0.2-3.2-0.5c-1-0.3-1.9-0.8-2.7-1.4c-0.1-0.1-0.2-0.2-0.3-0.2l-0.1-0.1l0,0c0,0,0,0,0,0l-0.1-0.1
			c-0.2-0.2-0.3-0.3-0.5-0.5c-0.1-0.1-0.2-0.2-0.2-0.3c-0.1-0.1-0.1-0.2-0.2-0.3C7.6,49,7.5,49,7.5,48.9c-0.1-0.1-0.1-0.2-0.2-0.3
			c-0.5-0.7-0.8-1.5-1-2.2c-0.2-0.7-0.4-1.4-0.4-2c-0.2-1.2-0.2-2.1-0.2-2.7c0-0.3,0.1,1.4,0.3,2.6c0.1,0.6,0.3,1.3,0.5,2
			c0.2,0.7,0.6,1.4,1,2c0.1,0.1,0.1,0.2,0.2,0.3c0.1,0.1,0.1,0.2,0.2,0.2C8,49,8.1,49.1,8.2,49.1c0.1,0.1,0.1,0.2,0.2,0.2
			c0.1,0.2,0.3,0.3,0.5,0.5l0.1,0.1c0,0,0,0,0,0l0,0L9.1,50c0.1,0.1,0.2,0.1,0.3,0.2c0.7,0.5,1.6,1,2.5,1.2c1.9,0.6,4.1,0.5,6.4,0
			c1.1-0.2,2.3-0.6,3.4-1c1.1-0.4,2.3-1,3.4-1.6c2.2-1.2,4.4-2.7,6.5-4.4c1-0.8,2-1.7,3-2.7c0.2-0.2,0.5-0.5,0.7-0.7l0.4-0.4
			l0.3-0.4c0.2-0.2,0.5-0.5,0.7-0.7l0.7-0.8c1.8-2,3.5-4.2,4.9-6.4c0.7-1.1,1.4-2.3,2-3.4c0.6-1.2,1.2-2.3,1.6-3.5
			c0.9-2.3,1.6-4.7,1.9-7c0.1-1.1,0.2-2.3,0.1-3.3c-0.1-1.1-0.3-2.1-0.6-3c-0.3-0.9-0.8-1.8-1.4-2.5c-0.1-0.1-0.1-0.2-0.2-0.3
			c-0.1-0.1-0.2-0.2-0.2-0.2c-0.1-0.1-0.2-0.2-0.2-0.2C45.1,9,45,8.9,45,8.9c-0.3-0.3-0.7-0.5-1-0.7c-0.7-0.4-1.4-0.7-2.1-0.9
			c-0.7-0.2-1.3-0.3-1.9-0.3C38.7,6.8,36.8,6.9,37.1,6.9z"/>
		<linearGradient id="SVGID_31_" gradientUnits="userSpaceOnUse" x1="35.657" y1="37.5056" x2="30.2503" y2="45.5241">
			<stop  offset="0" style="stop-color:#415168"/>
			<stop  offset="0.2688" style="stop-color:#2F3646"/>
			<stop  offset="1" style="stop-color:#A7B6C7"/>
		</linearGradient>
		<path class="st39" d="M30.9,45.1l0.2,0.1l1.6-1.3l-0.2-1.4l0,0c-0.2,0-0.4-0.1-0.6-0.1c-1.2,0-2.3,1-2.3,2.3c0,0,0,0.1,0,0.1
			L30.9,45.1z"/>
		<linearGradient id="SVGID_32_" gradientUnits="userSpaceOnUse" x1="5.8197" y1="29.9279" x2="49.1659" y2="29.9279">
			<stop  offset="0" style="stop-color:#677486"/>
			<stop  offset="1" style="stop-color:#A7B6C7"/>
		</linearGradient>
		<path class="st40" d="M44.2,7.8c0.8,0.4,1.5,1,2.2,1.7c0.7,0.7,1.3,1.6,1.7,2.6c0.4,1,0.7,2.1,0.9,3.2c0.2,1.1,0.2,2.3,0.1,3.6
			c-0.2,2.4-0.8,5-1.7,7.5c-0.9,2.5-2.1,5-3.6,7.3c-1.5,2.4-3.2,4.6-5.1,6.7c-1.9,2.1-3.9,4-6.1,5.8c-1.1,0.9-2.2,1.7-3.4,2.4
			c-1.1,0.7-2.3,1.4-3.5,2c-2.4,1.2-4.8,2-7.2,2.4c-1.2,0.2-2.4,0.3-3.6,0.2c-1.2-0.1-2.3-0.3-3.3-0.6c-1-0.4-1.9-0.9-2.7-1.5
			c-0.4-0.3-0.7-0.6-1-1c-0.3-0.4-0.6-0.8-0.8-1.2c-0.6-1.2-1.1-2.6-1.3-4.9c0.1,1.1,0.4,2,0.6,2.7c0.2,0.7,0.6,1.4,1,2.1
			c0.5,0.7,1.1,1.4,1.8,1.9c0.7,0.6,1.6,1,2.6,1.3c1.9,0.6,4.2,0.7,6.5,0.2c2.3-0.4,4.7-1.3,7-2.5c2.3-1.2,4.5-2.7,6.7-4.4
			c2.1-1.7,4.1-3.6,6-5.7c1.8-2.1,3.5-4.3,5-6.6c1.5-2.3,2.7-4.7,3.6-7.1c0.5-1.2,0.8-2.4,1.2-3.6c0.3-1.2,0.5-2.4,0.6-3.6
			c0.2-2.3,0-4.6-0.8-6.5c-0.8-1.9-2.1-3.3-3.6-4.2c-1.4-0.9-2.9-1.2-4.1-1.3C38.7,6.7,41.8,6.5,44.2,7.8z"/>
		<linearGradient id="SVGID_33_" gradientUnits="userSpaceOnUse" x1="32.4069" y1="43.344" x2="37.579" y2="66.4025">
			<stop  offset="0" style="stop-color:#415168"/>
			<stop  offset="1" style="stop-color:#A7B6C7"/>
		</linearGradient>
		<path class="st41" d="M33.1,44.1l-1.8,1.3l0.2,1.6c0.2,0.1,0.4,0.1,0.7,0.1c1.2,0,2.3-1,2.3-2.3c0-0.1,0-0.2,0-0.3L33.1,44.1z"/>
		
			<linearGradient id="SVGID_34_" gradientUnits="userSpaceOnUse" x1="39.3757" y1="34.8228" x2="49.8713" y2="45.9743" gradientTransform="matrix(0.9997 -2.297642e-02 2.297642e-02 0.9997 4.9203 15.7384)">
			<stop  offset="0" style="stop-color:#2F3646"/>
			<stop  offset="1" style="stop-color:#A7B6C7"/>
		</linearGradient>
		<path class="st42" d="M54.2,50.9c0,0-2,6.9-19.5-5.4l-0.3-1l-0.9-0.3l-0.3,1.4C33.2,45.6,51.8,58.8,54.2,50.9z"/>
		<g>
			<g>
				<radialGradient id="SVGID_35_" cx="28.0515" cy="37.9234" r="33.2957" gradientUnits="userSpaceOnUse">
					<stop  offset="0" style="stop-color:#A4FF00"/>
					<stop  offset="1" style="stop-color:#7BBF00"/>
				</radialGradient>
				<ellipse class="st43" cx="32.2" cy="44.8" rx="1.4" ry="1.3"/>
				<radialGradient id="SVGID_36_" cx="28.0515" cy="37.9234" r="33.2957" gradientUnits="userSpaceOnUse">
					<stop  offset="0" style="stop-color:#A4FF00"/>
					<stop  offset="1" style="stop-color:#7BBF00"/>
				</radialGradient>
				<path class="st44" d="M33.1,44.8c0,0,0.1,0.1,0.2,0.2c0.1,0.1,0.3,0.3,0.6,0.5c0.3,0.2,0.6,0.5,1,0.8c0.2,0.1,0.4,0.3,0.6,0.5
					c0.2,0.2,0.4,0.3,0.7,0.5c0.5,0.3,1,0.7,1.6,1.1c0.1,0.1,0.3,0.2,0.4,0.3c0.1,0.1,0.3,0.2,0.4,0.3c0.3,0.2,0.6,0.4,0.9,0.6
					c0.3,0.2,0.6,0.4,1,0.6c0.3,0.2,0.7,0.4,1,0.5c0.7,0.3,1.4,0.7,2.1,1l0.5,0.2c0.2,0.1,0.4,0.1,0.5,0.2c0.2,0.1,0.4,0.1,0.5,0.2
					l0.3,0.1l0.3,0.1c0.4,0.1,0.7,0.2,1.1,0.3c0.4,0.1,0.7,0.2,1.1,0.3c0.7,0.2,1.4,0.3,2.1,0.3c0.7,0,1.3,0,1.9-0.1
					c0.6-0.1,1.1-0.4,1.4-0.7c0.4-0.3,0.6-0.6,0.7-0.9c0.1-0.3,0.2-0.6,0.2-0.7c0-0.2,0-0.3,0-0.3s0,0.1,0,0.3
					c0,0.2-0.1,0.4-0.2,0.7c-0.1,0.3-0.3,0.7-0.7,1c-0.4,0.3-0.9,0.6-1.4,0.8c-0.6,0.2-1.2,0.2-1.9,0.2c-0.7,0-1.4-0.1-2.2-0.2
					c-0.4-0.1-0.7-0.2-1.1-0.2c-0.4-0.1-0.7-0.2-1.1-0.3l-0.3-0.1L45,52.5c-0.2-0.1-0.4-0.1-0.6-0.2c-0.2-0.1-0.4-0.1-0.6-0.2
					l-0.6-0.2c-0.7-0.3-1.5-0.6-2.2-0.9c-0.4-0.2-0.7-0.3-1-0.5c-0.3-0.2-0.7-0.4-1-0.5c-0.3-0.2-0.6-0.4-1-0.5
					c-0.2-0.1-0.3-0.2-0.5-0.3c-0.1-0.1-0.3-0.2-0.4-0.3c-0.6-0.3-1.1-0.7-1.6-1c-0.2-0.2-0.5-0.3-0.7-0.5c-0.2-0.2-0.4-0.3-0.6-0.4
					c-0.4-0.3-0.7-0.5-1-0.7c-0.3-0.2-0.5-0.4-0.6-0.5c-0.1-0.1-0.2-0.2-0.2-0.2L33.1,44.8z"/>
				<radialGradient id="SVGID_37_" cx="28.0515" cy="37.9234" r="33.2957" gradientUnits="userSpaceOnUse">
					<stop  offset="0" style="stop-color:#A4FF00"/>
					<stop  offset="1" style="stop-color:#7BBF00"/>
				</radialGradient>
				<path class="st45" d="M33.3,46.2c0,0,4.5,3.4,10.1,5.9c5.6,2.5,9.3,1.5,10.2,0.1c0,0-1.3,2.1-6.6,0.9c0,0-4.6-1.2-8.9-3.9
					l-4.6-3L33.3,46.2z"/>
			</g>
			<path class="st46" d="M50.3,53.3c-1.3,0-2.9-0.3-5.2-1.1c-7-2.7-11.6-6.8-11.7-6.8l0.1-0.2c0,0,4.7,4.2,11.7,6.8
				c6.9,2.6,8.6-0.3,8.6-0.3C53.7,51.8,53.1,53.3,50.3,53.3z"/>
		</g>
		<path class="st46" d="M48.1,15.8c0-1-0.2-2-0.5-2.9c-0.3-1-0.7-1.9-1.3-2.7c-0.6-0.8-1.3-1.5-2.2-2c-0.8-0.5-1.8-0.9-2.7-1.2
			c-1-0.2-1.9-0.4-2.9-0.4c1,0,2,0.2,2.9,0.4c0.9,0.3,1.9,0.6,2.7,1.2c0.8,0.5,1.5,1.2,2.1,2c0.6,0.8,1,1.7,1.3,2.6
			c0.3,0.9,0.4,1.9,0.4,2.9c0,1,0,2-0.2,2.9c-0.1,1-0.3,1.9-0.6,2.9c-0.2,1-0.5,1.9-0.9,2.8L46,25.1l-0.1,0.3l-0.1,0.3l-0.3,0.7
			l-0.3,0.7c-0.2,0.4-0.4,0.9-0.6,1.3c-0.2,0.4-0.5,0.9-0.7,1.3c-0.5,0.9-1,1.7-1.5,2.5c-0.5,0.8-1.1,1.6-1.7,2.4
			c-0.6,0.8-1.2,1.6-1.8,2.3c-0.6,0.8-1.3,1.5-1.9,2.2c-0.7,0.7-1.3,1.4-2,2.1c-0.7,0.7-1.4,1.3-2.1,2c-0.1,0-0.2,0-0.3,0
			c-0.1,0-0.3,0-0.4,0c-0.3,0-0.5,0.1-0.8,0.3c-0.1,0-0.1,0.1-0.2,0.1c0,0.1-0.1,0.1-0.1,0.2c0,0.1-0.1,0.1-0.1,0.2
			c0,0.1-0.1,0.1-0.1,0.2c0,0.1-0.1,0.3-0.1,0.4c0,0.1,0,0.1,0,0.2c0,0,0,0.1,0,0.1c-0.5,0.4-1,0.9-1.5,1.2
			c-0.6,0.4-1.1,0.8-1.7,1.2c-1.2,0.7-2.4,1.4-3.6,2c-1.2,0.6-2.5,1.1-3.8,1.5c-1.3,0.4-2.6,0.7-4,0.8c-1.4,0.1-2.7,0-4-0.4
			c-0.6-0.2-1.3-0.5-1.9-0.8c-0.6-0.3-1.1-0.8-1.6-1.2c-1-1-1.7-2.1-2.1-3.4c-0.1-0.2-0.3-1-0.4-1.3c0,0,0,0.5,0.3,1.3
			c0.4,1.3,1.1,2.5,2.1,3.5c0.5,0.5,1,0.9,1.6,1.3c0.6,0.4,1.2,0.7,1.9,0.9c0.7,0.2,1.3,0.4,2,0.4c0.7,0.1,1.4,0.1,2.1,0
			c1.4-0.1,2.7-0.4,4.1-0.8c1.3-0.4,2.6-0.9,3.8-1.5c1.2-0.6,2.5-1.3,3.6-2c0.6-0.4,1.2-0.8,1.7-1.2c0.6-0.4,1.1-0.8,1.6-1.3l0.1,0
			l0-0.1c0,0,0-0.1,0-0.2c0-0.1,0-0.1,0-0.2c0-0.1,0-0.2,0.1-0.3c0.1-0.2,0.2-0.4,0.4-0.5c0.2-0.1,0.4-0.2,0.6-0.2
			c0.1,0,0.2,0,0.4,0c0.1,0,0.2,0,0.4,0l0.1,0l0.1,0c0.7-0.7,1.5-1.3,2.2-2c0.7-0.7,1.4-1.4,2-2.1c0.7-0.7,1.3-1.5,1.9-2.2
			c0.6-0.8,1.2-1.5,1.8-2.3c0.6-0.8,1.1-1.6,1.7-2.4c0.5-0.8,1-1.7,1.5-2.5c0.2-0.4,0.5-0.9,0.7-1.3c0.2-0.4,0.4-0.9,0.6-1.3
			l0.3-0.7l0.3-0.7l0.1-0.3l0.1-0.3l0.3-0.7c0.3-0.9,0.6-1.9,0.8-2.8c0.2-1,0.4-1.9,0.5-2.9C48.1,17.8,48.1,16.8,48.1,15.8z"/>
	</g>
	<g>
		<path class="st47" d="M72.1,43.9v0.8h2.2c0.2,0,0.5,0,0.7,0.2c0.1,0.1,0.2,0.4,0.2,0.6v0.7c0,0.2-0.1,0.5-0.2,0.6
			c-0.2,0.2-0.5,0.2-0.6,0.2h-2.4c-0.2,0-0.5,0-0.6-0.2c-0.2-0.2-0.2-0.5-0.2-0.7V46l0.7-0.2v0.4h2.6v-0.9h-2.3
			c-0.1,0-0.4,0-0.6-0.2c-0.2-0.2-0.2-0.5-0.2-0.7v-0.4c0-0.2,0-0.5,0.2-0.7c0.2-0.2,0.5-0.2,0.6-0.2h2.2c0.2,0,0.5,0,0.7,0.2
			c0.2,0.2,0.2,0.5,0.2,0.6v0.1l-0.7,0.2v-0.4H72.1z"/>
		<path class="st47" d="M78.5,43.9v2.3h2.3v-0.8l0.8,0.2v0.4c0,0.2,0,0.5-0.2,0.7c-0.2,0.2-0.5,0.2-0.7,0.2h-2.2
			c-0.2,0-0.5,0-0.7-0.2c-0.2-0.2-0.2-0.5-0.2-0.7v-1.9c0-0.2,0-0.5,0.2-0.7c0.2-0.2,0.5-0.2,0.7-0.2h2.2c0.2,0,0.5,0,0.7,0.2
			c0.2,0.2,0.2,0.5,0.2,0.7v0.4l-0.8,0.1v-0.7H78.5z"/>
		<path class="st47" d="M84.9,46.9h-0.8v-3.6h0.8V46.9z"/>
		<path class="st47" d="M91.1,43.3v0.6h-2.9v0.8h1.7v0.6h-1.7v0.9h2.9v0.7h-3.7v-3.6H91.1z"/>
		<path class="st47" d="M96.6,45.4c0.1,0.1,0.1,0.1,0.4,0.4l0-0.6v-1.9h0.8v3.6h-0.6l-2.7-2.2c0,0-0.2-0.2-0.3-0.3
			c0,0.1,0,0.2,0,0.3c0,0,0,0.1,0,0.1c0,0.1,0,0.1,0,0.2v2h-0.8v-3.6h0.6L96.6,45.4z"/>
		<path class="st47" d="M102.3,46.9h-0.8v-3h-1.7v-0.7h4.2v0.7h-1.7V46.9z"/>
		<path class="st47" d="M106.9,46.9h-0.8v-3.6h0.8V46.9z"/>
		<path class="st47" d="M113.1,43.3v0.7h-2.8v1h1.5v0.7h-1.5v1.3h-0.8v-3.6H113.1z"/>
		<path class="st47" d="M116,46.9h-0.8v-3.6h0.8V46.9z"/>
		<path class="st47" d="M119.3,43.9v2.3h2.3v-0.8l0.8,0.2v0.4c0,0.2,0,0.5-0.2,0.7c-0.2,0.2-0.5,0.2-0.7,0.2h-2.2
			c-0.2,0-0.5,0-0.7-0.2c-0.2-0.2-0.2-0.5-0.2-0.7v-1.9c0-0.2,0-0.5,0.2-0.7c0.2-0.2,0.5-0.2,0.7-0.2h2.2c0.2,0,0.5,0,0.7,0.2
			c0.2,0.2,0.2,0.5,0.2,0.7v0.4l-0.8,0.1v-0.7H119.3z"/>
		<path class="st47" d="M130.3,43.3c0.2,0,0.4,0,0.6,0.2c0.2,0.2,0.2,0.4,0.2,0.5v0.8c0,0.1,0,0.4-0.2,0.5c-0.2,0.2-0.5,0.2-0.6,0.2
			H128v1.4h-0.8v-3.6H130.3z M128,43.9v1h1.8c0.1,0,0.2,0,0.3-0.1c0.1-0.1,0.1-0.2,0.1-0.2v-0.4c0-0.1,0-0.2-0.1-0.2
			c-0.1,0-0.1-0.1-0.3-0.1H128z"/>
		<path class="st47" d="M136.4,43.3c0.2,0,0.4,0,0.6,0.1c0.2,0.2,0.2,0.4,0.2,0.6v0.9c0,0.3-0.1,0.4-0.2,0.5
			c-0.2,0.1-0.5,0.2-0.6,0.2h-0.5l1.7,1.4h-1.2l-1.5-1.4h-0.8v1.4h-0.8v-3.6H136.4z M134.2,43.9v1h1.9c0.1,0,0.2,0,0.2-0.1
			c0.1-0.1,0.1-0.2,0.1-0.2v-0.4c0-0.1,0-0.2-0.1-0.2c-0.1-0.1-0.2-0.1-0.2-0.1H134.2z"/>
		<path class="st47" d="M139.7,44.1c0-0.2,0-0.5,0.2-0.7c0.2-0.2,0.5-0.2,0.7-0.2h2.7c0.2,0,0.5,0,0.7,0.2c0.2,0.2,0.2,0.5,0.2,0.7
			v1.9c0,0.2,0,0.5-0.2,0.7c-0.2,0.2-0.5,0.2-0.7,0.2h-2.7c-0.2,0-0.5,0-0.7-0.2c-0.2-0.2-0.2-0.5-0.2-0.7V44.1z M143.3,46.2v-2.3
			h-2.8v2.3H143.3z"/>
		<path class="st47" d="M149,43.3c0.5,0,1.1,0.1,1.6,0.5c0.3,0.3,0.5,0.7,0.5,1.3c0,0.9-0.5,1.4-0.8,1.5c-0.4,0.2-0.9,0.3-1.5,0.3
			h-2.1v-3.6H149z M148.7,46.2c0.5,0,0.9-0.1,1.1-0.3c0.3-0.3,0.3-0.6,0.3-0.8c0-1-0.7-1.1-1.2-1.1h-1.5v2.3H148.7z"/>
		<path class="st47" d="M154.2,46.2h2.4v-3h0.8v2.8c0,0.2,0,0.5-0.2,0.7c-0.2,0.2-0.5,0.2-0.7,0.2h-2.3c-0.2,0-0.5,0-0.7-0.2
			c-0.2-0.2-0.2-0.5-0.2-0.7v-2.8h0.8V46.2z"/>
		<path class="st47" d="M160.8,43.9v2.3h2.3v-0.8l0.8,0.2v0.4c0,0.2,0,0.5-0.2,0.7c-0.2,0.2-0.5,0.2-0.7,0.2h-2.2
			c-0.2,0-0.5,0-0.7-0.2c-0.2-0.2-0.2-0.5-0.2-0.7v-1.9c0-0.2,0-0.5,0.2-0.7c0.2-0.2,0.5-0.2,0.7-0.2h2.2c0.2,0,0.5,0,0.7,0.2
			c0.2,0.2,0.2,0.5,0.2,0.7v0.4l-0.8,0.1v-0.7H160.8z"/>
		<path class="st47" d="M168.4,46.9h-0.8v-3h-1.7v-0.7h4.2v0.7h-1.7V46.9z"/>
		<path class="st47" d="M173,46.9h-0.8v-3.6h0.8V46.9z"/>
		<path class="st47" d="M175.4,44.1c0-0.2,0-0.5,0.2-0.7c0.2-0.2,0.5-0.2,0.7-0.2h2.7c0.2,0,0.5,0,0.7,0.2c0.2,0.2,0.2,0.5,0.2,0.7
			v1.9c0,0.2,0,0.5-0.2,0.7c-0.2,0.2-0.5,0.2-0.7,0.2h-2.7c-0.2,0-0.5,0-0.7-0.2c-0.2-0.2-0.2-0.5-0.2-0.7V44.1z M179.1,46.2v-2.3
			h-2.8v2.3H179.1z"/>
		<path class="st47" d="M185.5,45.4c0.1,0.1,0.1,0.1,0.4,0.4l0-0.6v-1.9h0.8v3.6H186l-2.7-2.2c0,0-0.2-0.2-0.3-0.3
			c0,0.1,0,0.2,0,0.3c0,0,0,0.1,0,0.1c0,0.1,0,0.1,0,0.2v2h-0.8v-3.6h0.6L185.5,45.4z"/>
		<path class="st47" d="M193.7,43.3l2.1,3.6h-0.9l-0.4-0.8h-2.3l-0.4,0.8h-0.8l2-3.6H193.7z M194,45.5l-0.8-1.5l-0.8,1.5H194z"/>
		<path class="st47" d="M198.6,43.9v0.8h2.2c0.2,0,0.5,0,0.7,0.2c0.1,0.1,0.2,0.4,0.2,0.6v0.7c0,0.2-0.1,0.5-0.2,0.6
			c-0.2,0.2-0.5,0.2-0.6,0.2h-2.4c-0.2,0-0.5,0-0.6-0.2c-0.2-0.2-0.2-0.5-0.2-0.7V46l0.7-0.2v0.4h2.6v-0.9h-2.3
			c-0.1,0-0.4,0-0.6-0.2c-0.2-0.2-0.2-0.5-0.2-0.7v-0.4c0-0.2,0-0.5,0.2-0.7c0.2-0.2,0.5-0.2,0.6-0.2h2.2c0.2,0,0.5,0,0.7,0.2
			c0.2,0.2,0.2,0.5,0.2,0.6v0.1l-0.7,0.2v-0.4H198.6z"/>
		<path class="st47" d="M205,43.9v0.8h2.2c0.2,0,0.5,0,0.7,0.2c0.1,0.1,0.2,0.4,0.2,0.6v0.7c0,0.2-0.1,0.5-0.2,0.6
			c-0.2,0.2-0.5,0.2-0.6,0.2H205c-0.2,0-0.5,0-0.6-0.2c-0.2-0.2-0.2-0.5-0.2-0.7V46l0.7-0.2v0.4h2.6v-0.9h-2.3c-0.1,0-0.4,0-0.6-0.2
			c-0.2-0.2-0.2-0.5-0.2-0.7v-0.4c0-0.2,0-0.5,0.2-0.7c0.2-0.2,0.5-0.2,0.6-0.2h2.2c0.2,0,0.5,0,0.7,0.2c0.2,0.2,0.2,0.5,0.2,0.6
			v0.1l-0.7,0.2v-0.4H205z"/>
		<path class="st47" d="M210.6,44.1c0-0.2,0-0.5,0.2-0.7c0.2-0.2,0.5-0.2,0.7-0.2h2.7c0.2,0,0.5,0,0.7,0.2c0.2,0.2,0.2,0.5,0.2,0.7
			v1.9c0,0.2,0,0.5-0.2,0.7c-0.2,0.2-0.5,0.2-0.7,0.2h-2.7c-0.2,0-0.5,0-0.7-0.2c-0.2-0.2-0.2-0.5-0.2-0.7V44.1z M214.2,46.2v-2.3
			h-2.8v2.3H214.2z"/>
		<path class="st47" d="M218.3,43.9v2.3h2.3v-0.8l0.8,0.2v0.4c0,0.2,0,0.5-0.2,0.7c-0.2,0.2-0.5,0.2-0.7,0.2h-2.2
			c-0.2,0-0.5,0-0.7-0.2c-0.2-0.2-0.2-0.5-0.2-0.7v-1.9c0-0.2,0-0.5,0.2-0.7c0.2-0.2,0.5-0.2,0.7-0.2h2.2c0.2,0,0.5,0,0.7,0.2
			c0.2,0.2,0.2,0.5,0.2,0.7v0.4l-0.8,0.1v-0.7H218.3z"/>
		<path class="st47" d="M224.7,46.9h-0.8v-3.6h0.8V46.9z"/>
		<path class="st47" d="M229.7,43.3l2.1,3.6h-0.9l-0.4-0.8h-2.3l-0.4,0.8h-0.8l2-3.6H229.7z M230.1,45.5l-0.8-1.5l-0.8,1.5H230.1z"
			/>
		<path class="st47" d="M235.2,46.9h-0.8v-3h-1.7v-0.7h4.2v0.7h-1.7V46.9z"/>
		<path class="st47" d="M239.8,46.9H239v-3.6h0.8V46.9z"/>
		<path class="st47" d="M242.3,44.1c0-0.2,0-0.5,0.2-0.7c0.2-0.2,0.5-0.2,0.7-0.2h2.7c0.2,0,0.5,0,0.7,0.2c0.2,0.2,0.2,0.5,0.2,0.7
			v1.9c0,0.2,0,0.5-0.2,0.7c-0.2,0.2-0.5,0.2-0.7,0.2h-2.7c-0.2,0-0.5,0-0.7-0.2c-0.2-0.2-0.2-0.5-0.2-0.7V44.1z M245.9,46.2v-2.3
			h-2.8v2.3H245.9z"/>
		<path class="st47" d="M252.3,45.4c0.1,0.1,0.1,0.1,0.4,0.4l0-0.6v-1.9h0.8v3.6h-0.6l-2.7-2.2c0,0-0.2-0.2-0.3-0.3
			c0,0.1,0,0.2,0,0.3c0,0,0,0.1,0,0.1c0,0.1,0,0.1,0,0.2v2h-0.8v-3.6h0.6L252.3,45.4z"/>
	</g>
	<g>
		<g>
			<g>
				<path class="st48" d="M93.4,35.6h-5.4l-1.5-2.7h-9.8l-1.4,2.7h-5.4l8.5-15h6.3L93.4,35.6z M84.7,29.7L81.6,24l-3.1,5.6H84.7z"/>
				<path class="st48" d="M111.1,35.6H95.4v-15h4.8v11.1h10.9V35.6z"/>
				<path class="st48" d="M132.2,27c0,1.3-0.3,2.4-0.9,3.2c-0.8,1-1.9,1.6-3.5,1.6h-9.6v3.8h-4.8v-15h13.2c2.2,0,3.7,0.5,4.6,1.5
					c0.8,0.8,1.1,2,1.1,3.7V27z M127.2,26.5v-0.6c0-1.1-0.7-1.6-2-1.6h-7.1v3.8h7.5C126.7,28.1,127.2,27.5,127.2,26.5z"/>
				<path class="st48" d="M154.5,35.6h-4.8v-5.7h-10.2v5.7h-4.8v-15h4.8v5.3h10.2v-5.3h4.8V35.6z"/>
				<path class="st48" d="M180,35.6h-5.4l-1.5-2.7h-9.8l-1.4,2.7h-5.4l8.5-15h6.3L180,35.6z M171.3,29.7l-3.1-5.6l-3.1,5.6H171.3z"
					/>
				<path class="st48" d="M207.8,35.6h-17.6v-15h17.3V24h-12.4v2.4h11.8v3.1h-11.8V32h12.7V35.6z"/>
				<path class="st48" d="M230.7,31.2c0,1.4-0.4,2.5-1.1,3.2c-0.9,0.9-2.5,1.3-4.7,1.3h-7.8c-2.4,0-4.1-0.4-5.1-1.1
					c-1.2-0.8-1.9-2.3-1.9-4.4v-4.5c0-2.1,0.6-3.5,1.9-4.4c1-0.7,2.7-1.1,5.1-1.1h5.7c2.9,0,4.8,0.3,5.9,0.9c1,0.5,1.6,1.5,1.8,3
					c0,0.4,0.1,1,0.1,1.7h-4.8v-0.4c0-0.9-0.8-1.4-2.3-1.4h-5.3c-1.2,0-2,0.3-2.5,0.8c-0.4,0.5-0.6,1.2-0.6,2.2v1.6
					c0,1.1,0.2,1.9,0.5,2.3c0.4,0.5,1.1,0.7,2.2,0.7h5.2c1.1,0,1.8-0.1,2.1-0.3c0.5-0.3,0.7-0.9,0.7-1.8h4.8V31.2z"/>
				<path class="st48" d="M254.8,30.3c0,2.1-0.6,3.5-1.8,4.4c-1.1,0.7-2.8,1.1-5.1,1.1H240c-2.4,0-4.1-0.4-5.1-1.1
					c-1.2-0.8-1.9-2.3-1.9-4.4v-4.5c0-2.1,0.6-3.5,1.9-4.4c1-0.7,2.7-1.1,5.1-1.1h7.8c2.4,0,4.1,0.4,5.1,1.1
					c1.2,0.8,1.8,2.3,1.8,4.4V30.3z M249.8,28.9v-1.6c0-1-0.2-1.8-0.6-2.2c-0.5-0.5-1.3-0.8-2.5-0.8h-5.7c-1.2,0-2,0.3-2.5,0.8
					c-0.4,0.5-0.6,1.2-0.6,2.2v1.6c0,1.1,0.2,1.9,0.5,2.3c0.4,0.5,1.1,0.7,2.2,0.7h6.2c1.1,0,1.9-0.2,2.2-0.7
					C249.6,30.8,249.8,30,249.8,28.9z"/>
			</g>
		</g>
		<circle class="st0" cx="183.4" cy="28.1" r="2.6"/>
	</g>
</g>
</svg>
