<!-- Generator: Adobe Illustrator 21.0.2, SVG Export Plug-In  -->
<svg version="1.1"
	 xmlns="http://www.w3.org/2000/svg" xmlns:xlink="http://www.w3.org/1999/xlink" xmlns:a="http://ns.adobe.com/AdobeSVGViewerExtensions/3.0/"
	 x="0px" y="0px" width="34.2px" height="32.6px" viewBox="0 0 34.2 32.6" style="enable-background:new 0 0 34.2 32.6;"
	 xml:space="preserve">
<style type="text/css">
	.st0{fill:#262E39;}
</style>
<defs>
</defs>
<path class="st0" d="M25.6,0c2.9,0,5.6,0,8.5,0c0,0.2,0.1,0.5,0.1,0.7c0,5.1,0,10.2,0,15.3c-0.1,8.1-6.2,15.2-14.2,16.5
	c-8.8,1.4-17-3.9-19.3-12.4C0.2,18.5,0,17,0,15.4c0-4.9,0-9.7,0-14.6C0,0.6,0,0.3,0.1,0c2.8,0,5.6,0,8.5,0c0,0.3,0,0.7,0,1
	c0,4.8,0,9.7,0,14.5c0,3.7,2.3,6.9,5.6,8.1c5.5,2,11.4-2,11.5-7.9c0.1-4.8,0-9.7,0-14.5C25.6,0.9,25.6,0.5,25.6,0z M27.1,7.1
	c0,0.4,0,0.8,0,1.1c0,2.3,0,4.6,0,6.9c0,0.7-0.1,1.4-0.1,2c-0.8,5.4-6.2,9.3-11.5,8.3c-4.9-0.9-8.2-4.9-8.2-9.9c0-2.4,0-4.9,0-7.3
	c0-0.3,0-0.7,0-1c-2,0-3.8,0-5.7,0c0,0.2,0,0.4,0,0.6c0,2.7,0,5.4,0,8.1c0,0.9,0.1,1.9,0.3,2.8c1.6,8.2,9.4,13.6,17.5,12.6
	c7.3-1,13.2-7.2,13.5-14.6c0.1-3,0.1-5.9,0.1-8.9c0-0.2-0.1-0.4-0.1-0.5C30.8,7.1,29,7.1,27.1,7.1z M7.1,1.4c-1.7-0.2-5-0.1-5.6,0.1
	c0,1.4,0,2.7,0,4.1c1.9,0,3.7,0,5.6,0C7.1,4.2,7.1,2.8,7.1,1.4z M27.1,5.6c1.9,0,3.7,0,5.6,0c0-1.4,0-2.8,0-4.2c-1.9,0-3.7,0-5.6,0
	C27.1,2.8,27.1,4.1,27.1,5.6z"/>
</svg>
