<!-- Generator: Adobe Illustrator 21.0.2, SVG Export Plug-In  -->
<svg version="1.1"
	 xmlns="http://www.w3.org/2000/svg" xmlns:xlink="http://www.w3.org/1999/xlink" xmlns:a="http://ns.adobe.com/AdobeSVGViewerExtensions/3.0/"
	 x="0px" y="0px" width="39.7px" height="32.3px" viewBox="0 0 39.7 32.3" style="enable-background:new 0 0 39.7 32.3;"
	 xml:space="preserve">
<style type="text/css">
	.st0{fill:#262E39;}
</style>
<defs>
</defs>
<path class="st0" d="M20,0c4.9,0,9.7,0,14.6,0c2.5,0,4.6,1.9,5,3.9c0.1,0.4,0.1,0.9,0.1,1.3c0,7.3,0,14.7,0,22
	c0,2.6-2.4,5.1-5.1,5.1c-9.9,0-19.7,0-29.6,0c-2.7,0-5.1-2.5-5.1-5.1c0.1-7.3,0.1-14.7,0-22C0,2.5,2.4,0,5.2,0C10.1,0.1,15,0,20,0z
	 M2.5,9.7c0,0.2-0.1,0.3-0.1,0.5c0,5.7,0,11.5,0,17.2c0,1.6,0.9,2.4,2.5,2.4c9.9,0,19.8,0,29.7,0c1.7,0,2.6-0.9,2.6-2.6
	c0-5.6,0-11.2,0-16.8c0-0.2,0-0.4-0.1-0.7c-0.4,0.2-0.7,0.4-1,0.6c-5.2,3.1-10.3,6.2-15.5,9.3c-0.6,0.4-1.1,0.4-1.7,0
	c-5.1-3.1-10.3-6.2-15.4-9.3C3.2,10.1,2.9,9.9,2.5,9.7z M19.9,17.2c0.3-0.2,0.6-0.3,0.8-0.5c5-3,10-6,15.1-9c0.5-0.3,1.2-0.6,1.4-1
	c0.2-0.7,0.1-1.5,0-2.2c-0.1-1.2-1-1.9-2.1-2c-0.2,0-0.5,0-0.7,0c-9.6,0-19.2,0-28.8,0c-0.2,0-0.5,0-0.7,0C3.4,2.6,2.6,3.4,2.5,4.7
	c0,0.3,0,0.6,0,0.9c-0.1,0.8,0.2,1.3,1,1.8c5.2,3.1,10.4,6.2,15.6,9.4C19.3,16.9,19.6,17,19.9,17.2z"/>
</svg>
