<!-- Generator: Adobe Illustrator 21.0.2, SVG Export Plug-In  -->
<svg version="1.1"
	 xmlns="http://www.w3.org/2000/svg" xmlns:xlink="http://www.w3.org/1999/xlink" xmlns:a="http://ns.adobe.com/AdobeSVGViewerExtensions/3.0/"
	 x="0px" y="0px" width="36.6px" height="36.6px" viewBox="0 0 36.6 36.6" style="enable-background:new 0 0 36.6 36.6;"
	 xml:space="preserve">
<style type="text/css">
	.st0{fill:#262E39;}
</style>
<defs>
</defs>
<path class="st0" d="M18.9,34.2c0,0.4,0,0.9,0,1.3c0,0.2,0,0.5-0.1,0.6c-0.1,0.2-0.4,0.5-0.6,0.5c-0.2,0-0.5-0.3-0.5-0.5
	c-0.1-0.4,0-0.8-0.1-1.2c0-0.2,0-0.5,0-0.7C8.7,33,3.7,28,2.4,19c-0.3,0-0.6,0-1,0c-0.2,0-0.5,0-0.7,0C0.2,18.9,0,18.6,0,18.3
	c0.1-0.4,0.3-0.6,0.7-0.6c0.6,0,1.1,0,1.7,0c1.2-8.9,6.2-14,15.2-15.3c0-0.2,0.1-0.5,0.1-0.7c0-0.4,0-0.7,0-1.1
	c0-0.3,0.2-0.6,0.6-0.6c0.4,0,0.6,0.2,0.6,0.6c0,0.3,0,0.6,0,0.8c0,0.3,0,0.7,0,1.1c4.1,0.3,7.6,1.8,10.5,4.6
	c2.9,2.9,4.4,6.4,4.7,10.6c0.6,0,1.1,0,1.7,0c0.4,0,0.8,0.1,0.8,0.6c0,0.4-0.2,0.7-0.8,0.7c-0.5,0-1,0-1.6,0
	C33,27.9,28,33,18.9,34.2z M3.9,19c0.1,8.2,7.7,14,13.8,13.7c0-0.5,0-1,0-1.6c0-0.5,0.2-0.8,0.6-0.8s0.6,0.3,0.6,0.8
	c0,0.5,0,1,0,1.7c4-0.2,7.2-1.7,9.9-4.5c2.5-2.6,3.8-5.7,4-9.4c-0.7,0-1.2,0-1.8,0c-0.4,0-0.7-0.2-0.7-0.6c0-0.4,0.3-0.6,0.7-0.6
	c0.2,0,0.4,0,0.6,0c0.4,0,0.8,0,1.2,0C32.6,10.1,26,3.9,18.9,3.9c0,0.6,0,1.2,0,1.7c0,0.4-0.2,0.7-0.6,0.6c-0.4,0-0.6-0.2-0.6-0.6
	c0-0.4,0-0.7,0-1.1c0-0.2-0.1-0.5-0.1-0.7C9.3,4.1,3.7,11.6,3.9,17.7c0.5,0,1.1,0,1.7,0c0.4,0,0.7,0.2,0.7,0.6
	c0,0.4-0.3,0.6-0.7,0.6c-0.2,0-0.4,0-0.6,0C4.7,19,4.3,19,3.9,19z"/>
<path class="st0" d="M18.3,17.5c0.3,0.4,0.5,0.6,0.6,0.8c0.1,0.3-0.3,0.7-0.6,0.6c-0.3-0.1-0.6-0.3-0.5-0.6
	C17.8,18.1,18,17.9,18.3,17.5z"/>
</svg>
