<!-- Generator: Adobe Illustrator 21.0.2, SVG Export Plug-In  -->
<svg version="1.1"
	 xmlns="http://www.w3.org/2000/svg" xmlns:xlink="http://www.w3.org/1999/xlink" xmlns:a="http://ns.adobe.com/AdobeSVGViewerExtensions/3.0/"
	 x="0px" y="0px" width="39.5px" height="39.5px" viewBox="0 0 39.5 39.5" style="enable-background:new 0 0 39.5 39.5;"
	 xml:space="preserve">
<style type="text/css">
	.st0{fill:#262E39;}
</style>
<defs>
</defs>
<path class="st0" d="M19.7,39.5C8.8,39.5,0,30.6,0,19.7C0,8.8,8.9,0,19.8,0c10.9,0,19.7,8.9,19.7,19.7
	C39.5,30.6,30.6,39.5,19.7,39.5z M19.7,38.2c10.1,0.1,18.5-8.2,18.5-18.3C38.2,9.7,30,1.4,19.8,1.3C9.7,1.3,1.4,9.5,1.3,19.6
	C1.2,29.8,9.4,38.1,19.7,38.2z"/>
<path class="st0" d="M16.7,23.3c0.9-1,1.8-1.9,2.7-2.8c2.1-2.1,4.2-4.3,6.4-6.4c0.2-0.2,0.4-0.4,0.6-0.6c0.3-0.2,0.6-0.2,0.8,0.2
	c0.1,0.2,0.1,0.5,0,0.8c-0.1,0.2-0.3,0.3-0.4,0.5c-3.1,3.1-6.2,6.2-9.3,9.3c-0.8,0.8-0.9,0.8-1.7,0c-1.1-1-2.1-2.1-3.2-3.2
	c-0.1-0.1-0.3-0.3-0.4-0.4c-0.2-0.3-0.2-0.6,0-0.8c0.3-0.3,0.6-0.3,0.9,0c0.2,0.2,0.4,0.3,0.5,0.5C14.7,21.3,15.6,22.3,16.7,23.3z"
	/>
</svg>
