<!-- Generator: Adobe Illustrator 21.0.2, SVG Export Plug-In  -->
<svg version="1.1"
	 xmlns="http://www.w3.org/2000/svg" xmlns:xlink="http://www.w3.org/1999/xlink" xmlns:a="http://ns.adobe.com/AdobeSVGViewerExtensions/3.0/"
	 x="0px" y="0px" width="45.7px" height="27.1px" viewBox="0 0 45.7 27.1" style="enable-background:new 0 0 45.7 27.1;"
	 xml:space="preserve">
<style type="text/css">
	.st0{fill:#262E39;}
</style>
<defs>
</defs>
<path class="st0" d="M18.9,25.7c0.4,0,0.8,0,1.3,0c0.2,0,0.5,0,0.7,0.1c0.3,0.1,0.6,0.4,0.5,0.7c-0.1,0.2-0.3,0.4-0.5,0.6
	c-0.1,0.1-0.3,0-0.5,0c-3.4,0-6.9,0-10.3,0c-0.2,0-0.3,0-0.5,0c-0.4-0.1-0.5-0.3-0.5-0.7c0-0.4,0.2-0.6,0.5-0.7c0.2,0,0.5,0,0.7,0
	c0.4,0,0.8,0,1.3,0c0.1-1.2,0-2.3,0-3.6c-0.4,0-0.7,0-1,0c-2.8,0-5.6,0-8.5,0c-0.3,0-0.6,0-0.8,0C0.6,22,0.1,21.5,0,20.8
	c0-0.2,0-0.4,0-0.7c0-6,0-12,0-18c0-0.2,0-0.5,0-0.7c0.1-0.7,0.6-1.2,1.3-1.2c0.2,0,0.4,0,0.7,0c9.1,0,18.2,0,27.3,0
	c0.2,0,0.5,0,0.7,0c0.7,0.1,1.1,0.5,1.2,1.2c0,0.3,0,0.6,0,0.8c0,6,0,12,0,18c0,0.2,0,0.5,0,0.7c-0.1,0.7-0.6,1.2-1.3,1.3
	c-0.2,0-0.5,0-0.7,0c-3.1,0-6.2,0-9.3,0c-0.3,0-0.7,0-1,0C18.7,22.8,18.7,24.6,18.9,25.7z M1.4,1.5c0,6.5,0,12.8,0,19.2
	c9.5,0,18.9,0,28.4,0c0.2-1,0.2-18.5,0-19.2C20.4,1.5,10.9,1.5,1.4,1.5z M17.3,25.7c0-1.3,0-2.4,0-3.5c-1.4,0-2.8,0-4.2,0
	c0,1.2,0,2.3,0,3.5c0.3,0,0.5,0.1,0.8,0.1C15,25.7,16.1,25.7,17.3,25.7z"/>
<path class="st0" d="M32.7,13.4c0-3.8,0-7.6,0-11.3c0-0.2,0-0.5,0-0.7c0.1-0.7,0.5-1.1,1.2-1.2c0.3,0,0.6,0,0.9,0c2.9,0,5.8,0,8.7,0
	c0.3,0,0.6,0,0.8,0c0.7,0.1,1.2,0.5,1.3,1.3c0,0.3,0,0.6,0,0.8c0,7.6,0,15.1,0,22.7c0,0.2,0,0.5,0,0.7c-0.1,0.8-0.6,1.2-1.4,1.3
	c-0.2,0-0.4,0-0.6,0c-3,0-6.1,0-9.1,0c-0.2,0-0.4,0-0.6,0c-0.8-0.1-1.2-0.6-1.3-1.4c0-0.6,0-1.2,0-1.8
	C32.7,20.3,32.7,16.8,32.7,13.4z M34.2,9.5c0,5.3,0,10.6,0,15.9c3.4,0,6.7,0,10.1,0c0-5.3,0-10.6,0-15.9C40.9,9.5,37.5,9.5,34.2,9.5
	z M34.1,8.4c1.1,0.2,9.5,0.2,10.2,0c0.2-0.8-0.3-1.7,0.7-2.2c-0.8-0.4-0.7-1-0.7-1.6c0-1,0-2,0-3.1c-3.4,0-6.8,0-10.2,0
	c0,1.4,0,2.8,0,4.1c-0.4,0.2-0.7,0.3-1.2,0.5c0.5,0.3,0.8,0.4,1.2,0.6C34.1,7.3,34.1,7.8,34.1,8.4z"/>
</svg>
