<!-- Generator: Adobe Illustrator 21.0.2, SVG Export Plug-In  -->
<svg version="1.1"
	 xmlns="http://www.w3.org/2000/svg" xmlns:xlink="http://www.w3.org/1999/xlink" xmlns:a="http://ns.adobe.com/AdobeSVGViewerExtensions/3.0/"
	 x="0px" y="0px" width="36px" height="35.9px" viewBox="0 0 36 35.9" style="enable-background:new 0 0 36 35.9;"
	 xml:space="preserve">
<style type="text/css">
	.st0{fill:#262E39;}
</style>
<defs>
</defs>
<path class="st0" d="M28.5,35.9c-1.5-0.1-2.9-0.4-4.2-1c-1.9-0.8-3.7-1.9-5.4-3.1c-5.7-4.2-10.7-9.2-14.9-14.9
	c-1.3-1.7-2.3-3.5-3.1-5.5C0.3,10.1,0,8.8,0,7.4c0-1.4,0.5-2.5,1.5-3.5c0.9-0.9,1.8-1.8,2.7-2.7C6-0.5,8.3-0.4,9.9,1.6
	C11,3.1,12.2,4.5,13.3,6c1.2,1.6,1.2,3.2,0,4.9c-0.2,0.3-0.4,0.5-0.6,0.8c-0.8,1-0.7,2.1,0.2,3c0.1,0.2,0.3,0.3,0.5,0.5
	c2.5,2.5,5.1,5.1,7.6,7.6c0.2,0.2,0.4,0.4,0.6,0.6c0.8,0.6,1.8,0.7,2.6,0.1c0.4-0.3,0.8-0.7,1.3-1c1.3-0.9,3-1,4.3,0
	c1.7,1.2,3.3,2.5,4.9,3.8c1.6,1.3,1.8,3.7,0.4,5.2c-1.1,1.1-2.2,2.2-3.3,3.3C30.8,35.7,29.7,35.9,28.5,35.9z M28.4,34.5
	c1.1,0,1.8-0.2,2.3-0.7c1.1-1.1,2.2-2.1,3.2-3.2c0.9-1,0.8-2.3-0.2-3.1c-1.6-1.3-3.2-2.5-4.8-3.8c-0.9-0.7-1.8-0.6-2.7,0
	c-0.4,0.3-0.7,0.6-1.1,0.9c-0.7,0.5-1.5,0.7-2.4,0.7c-1,0-1.8-0.5-2.5-1.2c-2.3-2.3-4.6-4.6-6.9-6.9c-0.5-0.5-1-1-1.5-1.5
	c-1.3-1.4-1.4-3.2-0.3-4.8c0.2-0.3,0.5-0.6,0.7-0.9c0.8-1.1,0.9-2,0-3c-1.2-1.5-2.3-3-3.5-4.5C7.7,1.2,6.4,1.1,5.3,2.2c-1,1-2,2-3,3
	c-0.5,0.6-0.8,1.2-0.9,2C1.4,8.2,1.6,9.3,2,10.4c0.7,1.9,1.7,3.7,2.9,5.4C9,21.5,14,26.4,19.6,30.6c1.6,1.2,3.3,2.2,5.2,3
	C26,34.1,27.2,34.5,28.4,34.5z"/>
</svg>
