<!-- Generator: Adobe Illustrator 21.0.2, SVG Export Plug-In  -->
<svg version="1.1"
	 xmlns="http://www.w3.org/2000/svg" xmlns:xlink="http://www.w3.org/1999/xlink" xmlns:a="http://ns.adobe.com/AdobeSVGViewerExtensions/3.0/"
	 x="0px" y="0px" width="31.2px" height="31.2px" viewBox="0 0 31.2 31.2" style="enable-background:new 0 0 31.2 31.2;"
	 xml:space="preserve">
<style type="text/css">
	.st0{fill:#262E39;}
</style>
<defs>
</defs>
<path class="st0" d="M25.4,24.8c0,0.7,0,1.3,0,1.9c0,1,0,2,0,3.1c0,1.1-0.4,1.4-1.5,1.5c-1,0-1.9,0-2.9,0c-4.3,0-8.7,0-13,0
	c-0.2,0-0.5,0-0.7,0c-1,0-1.4-0.4-1.4-1.4c0-1.3,0-2.7,0-4c0-0.3,0-0.6,0-1c-0.8,0-1.5,0-2.2,0c-2.1,0-3.5-1.4-3.6-3.5
	c0-3,0-6.1,0-9.1c0-2,1.3-3.3,3.3-3.5c0.3,0,0.6,0,0.9,0c7.6,0,15.1,0,22.7,0c0.4,0,0.8,0,1.2,0.1c1.9,0.3,3,1.6,3,3.5
	c0,2.5,0,5,0,7.5c0,0.5,0,1.1,0,1.6c-0.1,2-1.5,3.4-3.5,3.4C27,24.8,26.2,24.8,25.4,24.8z M25.4,23.6c0.8,0,1.4,0,2.1,0
	c1.6,0.1,2.5-1.1,2.5-2.6c-0.1-2.9,0-5.7,0-8.6c0-1.8-0.8-2.6-2.5-2.6c-7.9,0-15.8,0-23.6,0c-1.5,0-2.6,1-2.6,2.5
	c0.1,2.9,0,5.8,0,8.7c0,0.2,0,0.4,0,0.7c0.1,0.8,0.7,1.6,1.6,1.8c1,0.2,2,0.1,3,0.1c0-0.4,0-0.7,0-1c0-1.2,0-2.4,0-3.5
	c0-1.1,0.4-1.5,1.5-1.5c0.1,0,0.2,0,0.3,0c5.3,0,10.6,0,15.9,0c0.2,0,0.4,0,0.7,0c0.7,0.1,1.1,0.4,1.2,1.1c0,0.3,0,0.7,0,1
	C25.4,20.9,25.4,22.2,25.4,23.6z M24.1,18.8c-1.5,0-2.9,0-4.3,0c-1.4,0-2.8,0-4.2,0c-1.4,0-2.9,0-4.3,0c-1.4,0-2.8,0-4.2,0
	C6.9,20.9,7,29.3,7.2,29.9c5.6,0,11.3,0,16.9,0C24.1,26.2,24.1,22.6,24.1,18.8z"/>
<path class="st0" d="M24.2,1.2c-5.7,0-11.3,0-17.1,0c0,0.5,0,0.9,0,1.4c0,1.1,0,2.2,0,3.3c0,0.2,0,0.5-0.1,0.7
	C7,6.8,6.8,7.1,6.6,7.1C6.4,7,6.2,6.8,6,6.6c-0.1-0.1,0-0.2,0-0.4c0-2,0-3.9,0-5.9C6,0.3,6,0.2,6,0c6.5,0,12.9,0,19.4,0
	c0,0.2,0.1,0.4,0.1,0.6c0,1.8,0,3.6,0,5.4c0,0,0,0.1,0,0.1c0,0.7-0.2,1-0.6,1c-0.4,0-0.6-0.3-0.6-1c0-1.3,0-2.6,0-3.9
	C24.3,1.9,24.3,1.6,24.2,1.2z"/>
<path class="st0" d="M25.4,11.8c1,0,1.9,0.8,1.9,1.9c0,1-0.8,1.9-1.9,1.9c-1.1,0-2-0.8-2-1.9C23.5,12.6,24.3,11.8,25.4,11.8z
	 M26.1,13.7c0-0.4-0.3-0.7-0.6-0.7c-0.3,0-0.6,0.3-0.7,0.6c0,0.4,0.3,0.7,0.7,0.7C25.8,14.3,26.1,14,26.1,13.7z"/>
<path class="st0" d="M15.6,25.6c1.3,0,2.7,0,4,0c0.2,0,0.3,0,0.5,0c0.7,0,1,0.2,1,0.6c0,0.4-0.3,0.6-1,0.6c-3,0-5.9,0-8.9,0
	c-0.2,0-0.4,0-0.5-0.1c-0.2-0.1-0.4-0.4-0.4-0.6c0-0.2,0.2-0.4,0.4-0.5c0.2-0.1,0.5-0.1,0.7-0.1C12.8,25.6,14.2,25.6,15.6,25.6z"/>
<path class="st0" d="M15.5,23.2c-1.1,0-2.3,0-3.4,0c-0.8,0-1.1-0.2-1.1-0.6c0-0.4,0.3-0.6,1-0.6c2.4,0,4.8,0,7.2,0
	c0.1,0,0.2,0,0.4,0c0.4,0,0.6,0.2,0.6,0.6c0,0.4-0.2,0.6-0.6,0.6c-0.2,0-0.4,0-0.6,0C17.8,23.2,16.7,23.2,15.5,23.2z"/>
</svg>
