<!-- Generator: Adobe Illustrator 21.0.2, SVG Export Plug-In  -->
<svg version="1.1"
	 xmlns="http://www.w3.org/2000/svg" xmlns:xlink="http://www.w3.org/1999/xlink" xmlns:a="http://ns.adobe.com/AdobeSVGViewerExtensions/3.0/"
	 x="0px" y="0px" width="35.9px" height="34.8px" viewBox="0 0 35.9 34.8" style="enable-background:new 0 0 35.9 34.8;"
	 xml:space="preserve">
<style type="text/css">
	.st0{fill:#262E39;}
</style>
<defs>
</defs>
<path class="st0" d="M8.5,22.4c-0.6,1.1-1.2,2-1.8,3.1c0.4,0,0.6,0.1,0.9,0.1c1.6,0,3.3,0,4.9,0c1,0,1.1,0.1,1.1,1.1
	c0,1.5,0,3,0,4.5c0,0.8-0.1,1-1,1c-3.3,0-6.6,0-9.9,0c-0.7,0-0.9-0.1-1-0.8c-0.6-2.2-1.2-4.4-1.8-6.6c-0.1-0.4,0-0.7,0.2-1
	c0.7-1.2,1.4-2.5,2.1-3.7c0.2-0.3,0.3-0.5,0.5-0.8c-0.6-0.3-1-0.6-1.5-0.9c-0.3-0.2-0.5-0.4-0.4-0.7C0.9,17.1,1.2,17,1.5,17
	c2.2-0.4,4.3-0.9,6.5-1.3c0.6-0.1,0.8,0,1,0.6c0.7,2,1.4,4.1,2.1,6.1c0.1,0.3,0.2,0.7-0.2,0.9c-0.2,0.1-0.6,0.1-0.9,0
	C9.6,23.1,9.1,22.8,8.5,22.4z M4.5,18.7c-1,1.7-1.9,3.4-2.9,5c-0.3,0.5-0.3,0.9-0.2,1.5c0.4,1.3,0.7,2.6,1.1,3.9
	c0.1,0.2,0.2,0.4,0.3,0.8c1.8-3.1,3.5-6.1,5.3-9.1c0.5,0.2,0.9,0.4,1.4,0.7c-0.6-1.6-1.1-3-1.6-4.5c-1.6,0.3-3,0.6-4.6,0.9
	C3.8,18.2,4.2,18.5,4.5,18.7z M12.4,27c-0.1,0-0.2-0.1-0.3-0.1c-1.9,0-3.8,0-5.7,0c-0.4,0-0.6,0.2-0.8,0.5c-0.6,1-1.1,1.9-1.7,2.9
	c-0.1,0.2-0.1,0.4-0.2,0.6c2.9,0,5.7,0,8.6,0C12.4,29.5,12.4,28.3,12.4,27z"/>
<path class="st0" d="M24.3,32.2c0,0.7,0,1.2,0,1.8c0,0.3,0,0.6-0.4,0.8c-0.3,0.1-0.6,0-0.8-0.3c-1.5-1.7-2.9-3.4-4.4-5
	c-0.3-0.4-0.3-0.7,0-1.1c1.5-1.7,2.9-3.4,4.4-5c0.2-0.2,0.4-0.4,0.8-0.3c0.3,0.2,0.4,0.4,0.4,0.8c0,0.6,0,1.2,0,1.8
	c1.2,0,2.3,0,3.6,0c-0.1-0.2-0.1-0.4-0.3-0.6c-0.8-1.5-1.7-2.9-2.6-4.4c-0.5-0.9-0.5-1,0.4-1.5c1.3-0.7,2.5-1.5,3.8-2.2
	c0.8-0.5,1-0.4,1.5,0.4c1.6,2.8,3.2,5.6,4.8,8.4c0.4,0.7,0.4,0.9-0.2,1.5c-1.6,1.6-3.1,3.1-4.7,4.7c-0.4,0.4-0.7,0.5-1.2,0.5
	C27.8,32.2,26.2,32.2,24.3,32.2z M23.2,31c0.3,0,0.6,0,0.9,0c1.6,0,3.2,0,4.8,0c0.5,0,0.9-0.1,1.3-0.5c0.9-1,1.9-1.9,2.8-2.8
	c0.2-0.2,0.3-0.3,0.6-0.7c-3.6,0-7,0-10.5,0c-0.1-0.5-0.1-1-0.2-1.6c-1.1,1.3-2.1,2.4-3.1,3.5c1,1.2,2,2.3,3.1,3.5
	C23.1,31.9,23.1,31.5,23.2,31z M34.2,25.7c-1.5-2.6-3-5.1-4.4-7.7c-1.2,0.7-2.3,1.3-3.4,2c0,0.1,0,0.2,0,0.3c1,1.7,1.9,3.4,2.9,5.1
	c0.2,0.3,0.4,0.4,0.7,0.4C31.3,25.7,32.6,25.7,34.2,25.7z"/>
<path class="st0" d="M19.3,10.4c-0.6-1.1-1.2-2-1.8-3.1c-0.2,0.2-0.3,0.4-0.4,0.6c-0.8,1.4-1.7,2.9-2.5,4.3c-0.5,0.9-0.7,1-1.6,0.5
	c-1.3-0.7-2.5-1.5-3.8-2.2C8.4,10,8.3,9.9,8.7,9.1c1.6-2.8,3.3-5.6,4.9-8.5C14,0,14.2-0.1,14.9,0.1c2.2,0.6,4.3,1.2,6.5,1.7
	c0.5,0.1,0.8,0.4,1.1,0.8c0.8,1.5,1.7,2.9,2.5,4.4c0.6-0.3,1.1-0.6,1.6-0.9c0.3-0.2,0.6-0.3,0.9,0c0.3,0.2,0.3,0.5,0.1,0.8
	c-0.7,2.1-1.4,4.2-2.1,6.2c-0.2,0.6-0.4,0.7-1,0.6c-2.2-0.4-4.3-0.8-6.5-1.2c-0.2,0-0.5-0.2-0.6-0.3c-0.2-0.3-0.1-0.7,0.3-0.9
	C18.1,11,18.7,10.7,19.3,10.4z M25.8,8.1c-0.5,0.2-0.9,0.4-1.3,0.6c-0.7-1.2-1.4-2.4-2.1-3.6c-0.4-0.7-0.7-1.6-1.3-2
	c-0.6-0.5-1.5-0.5-2.3-0.7c-1-0.3-2-0.5-3.2-0.8c1.8,3.2,3.5,6.2,5.3,9.2c-0.4,0.3-0.8,0.5-1.3,0.9c1.6,0.3,3.1,0.6,4.6,0.9
	C24.8,11.1,25.3,9.7,25.8,8.1z M14.4,1.9c-1.5,2.6-3,5.1-4.4,7.6c1.2,0.7,2.3,1.3,3.5,2c1.1-1.9,2.2-3.8,3.3-5.6
	C15.9,4.6,15.2,3.3,14.4,1.9z"/>
</svg>
