<!-- Generator: Adobe Illustrator 21.0.2, SVG Export Plug-In  -->
<svg version="1.1"
	 xmlns="http://www.w3.org/2000/svg" xmlns:xlink="http://www.w3.org/1999/xlink" xmlns:a="http://ns.adobe.com/AdobeSVGViewerExtensions/3.0/"
	 x="0px" y="0px" width="34px" height="37.6px" viewBox="0 0 34 37.6" style="enable-background:new 0 0 34 37.6;"
	 xml:space="preserve">
<style type="text/css">
	.st0{fill:#262E39;}
</style>
<defs>
</defs>
<path class="st0" d="M15.6,3.6c0-0.9,0-1.7,0-2.5c0-0.9,0.2-1,1-1.1c1.7-0.1,1.8,0,1.8,1.7c0,0.6,0,1.2,0,1.9c4,0.4,7.5,2,10.4,4.8
	C29.2,7.9,29.6,7.4,30,7c-0.2-0.2-0.5-0.5-0.7-0.8c-0.3-0.4-0.3-0.7,0-1.1c0.1-0.2,0.3-0.3,0.5-0.5c0.6-0.5,0.8-0.5,1.4,0
	c0.8,0.8,1.6,1.6,2.4,2.4c0.5,0.5,0.5,0.8,0,1.3c-0.1,0.2-0.3,0.3-0.5,0.5c-0.4,0.4-0.7,0.4-1.1,0c-0.3-0.2-0.5-0.5-0.8-0.8
	c-0.4,0.5-0.9,0.9-1.3,1.4c3,3.6,4.4,7.8,4.1,12.5c-0.3,3.8-1.7,7.1-4.2,9.9c-4.9,5.5-12.8,7.3-19.5,4.3c-6.6-3-11-9.9-10-17.7
	C1,10.9,7.1,4.4,15.6,3.6z M32.6,20.6C32.7,12.6,26.1,5,17,4.9c-8.6,0-15.6,7-15.6,15.5c0,8.6,6.9,15.6,15.6,15.7
	C25.5,36.2,32.6,29.2,32.6,20.6z"/>
<path class="st0" d="M16.3,19.2c0-3.3,0-6.7,0-10c0-0.3,0-0.6,0-0.8C16.4,8,16.7,7.8,17,7.8c0.4,0,0.6,0.2,0.6,0.5
	c0,0.3,0,0.6,0,0.8c0,3.1,0,6.1,0,9.2c0,0.5,0.1,0.8,0.5,1.2c1.2,0.9,1.2,2.5,0,3.4c-0.4,0.3-0.5,0.5-0.5,1c0,0.6-0.3,0.8-0.6,0.9
	c-0.4,0-0.7-0.3-0.7-0.9c0-0.4,0-0.6-0.4-0.9c-1.5-0.9-1.3-3,0.1-3.7C16.1,19.3,16.2,19.3,16.3,19.2z"/>
</svg>
