<!-- Generator: Adobe Illustrator 21.0.2, SVG Export Plug-In  -->
<svg version="1.1"
	 xmlns="http://www.w3.org/2000/svg" xmlns:xlink="http://www.w3.org/1999/xlink" xmlns:a="http://ns.adobe.com/AdobeSVGViewerExtensions/3.0/"
	 x="0px" y="0px" width="47.5px" height="46.5px" viewBox="0 0 47.5 46.5" style="enable-background:new 0 0 47.5 46.5;"
	 xml:space="preserve">
<style type="text/css">
	.st0{fill:#262E39;}
</style>
<defs>
</defs>
<path class="st0" d="M10.7,18.3c-0.1-0.6-0.2-1.3-0.2-2c0-0.9,0.3-1.3,1.1-1.6c0.1,0,0.1,0,0.2-0.1c2.1-0.7,2.8-0.4,3.5,1.6
	c0.4,1.4,1.2,1.9,2.6,2c1,0.1,1.6-0.2,2-1.1c0.2-0.5,0.5-0.9,0.9-1.3c0.5-0.7,1.1-0.8,1.9-0.6c0.2,0.1,0.4,0.1,0.5,0.2
	c1.7,0.8,2.1,1.4,1.4,3.2c0,0,0,0.1,0,0.1c-0.8,2.1-0.8,1.8,0.8,3.6c0.4,0.4,0.9,0.5,1.4,0.3c0.6-0.2,1.2-0.4,1.8-0.6
	c1.2-0.3,1.8-0.1,2.4,1c0.1,0.1,0.1,0.2,0.2,0.3c0.7,1.5,0.5,2.2-0.9,3.1c-0.4,0.2-0.8,0.5-1.2,0.7c-0.1,0.1-0.2,0.1-0.3,0.2
	c-1,0.7-0.8,3.2,0.3,3.7c0.6,0.3,1.3,0.5,1.9,0.8c1.1,0.5,1.3,1,1.2,2.1c0,0.2-0.1,0.4-0.1,0.6c-0.4,1.5-1,1.8-2.5,1.7
	c-0.6-0.1-1.3-0.2-1.9-0.3c-0.5-0.1-1,0.1-1.3,0.5c-0.1,0.2-0.3,0.3-0.4,0.5c-0.7,0.7-0.8,1.5-0.2,2.4c0.4,0.6,0.7,1.2,0.9,1.8
	c0.3,0.7,0.1,1.4-0.5,1.9c-0.3,0.2-0.5,0.4-0.8,0.6c-1.2,0.7-1.9,0.6-2.9-0.4c-0.5-0.5-0.9-1-1.3-1.6c-0.3-0.4-0.8-0.6-1.3-0.5
	c-0.2,0-0.4,0.1-0.5,0.1c-1,0.2-1.6,0.7-1.7,1.7c-0.1,0.7-0.3,1.3-0.5,2c-0.1,0.5-0.4,0.9-0.9,1c-1.1,0.4-2.1,0.2-3-0.4
	c-0.5-0.3-0.6-1-0.7-1.6c0-0.7,0-1.4,0-2c0-0.6-0.2-1.1-0.8-1.3c-1.9-0.9-1.7-0.8-3.1,0.3c-0.4,0.3-0.9,0.7-1.4,1
	c-0.7,0.4-1.4,0.4-2-0.1C5.1,42,5,41.9,4.9,41.9c-1.6-1.4-1.6-2.2-0.3-3.8c0.3-0.3,0.5-0.6,0.8-0.9c0.2-0.2,0.3-0.4,0.4-0.6
	c0.3-0.9-0.8-2.8-1.8-2.9c-0.6-0.1-1.1-0.1-1.7-0.1c-1.5,0-2.2-0.5-2.3-2.1c0-0.2-0.1-0.3-0.1-0.5c-0.1-1.2,0.3-1.8,1.5-2.1
	c0.6-0.2,1.2-0.3,1.8-0.4c0.7-0.1,1.1-0.4,1.3-1.1c0.6-2.3,0.7-2-0.9-3.4c0,0,0,0-0.1-0.1c-1.6-1.4-1.3-3.3,0.5-4.3
	c0.5-0.3,1-0.3,1.4,0c0.6,0.3,1.2,0.6,1.8,1C7.9,21,8.5,21,9,20.5c0.3-0.3,0.7-0.5,1.1-0.8C10.6,19.5,10.8,19,10.7,18.3z M13.6,43
	c0,0.4,0,0.8,0,1.2c0,0.6,0.4,0.9,1.1,1c0.7,0.1,1-0.1,1.2-0.7c0.1-0.4,0.2-0.8,0.2-1.3c0.4-2.1,0.7-2.5,3.2-3c0.1,0,0.1,0,0.2,0
	c0.9-0.2,1.7,0.1,2.3,0.8c0.4,0.5,0.9,1.1,1.3,1.6c0.5,0.6,0.8,0.6,1.5,0.1c0.7-0.5,0.8-0.8,0.5-1.5c-0.3-0.5-0.6-1-0.9-1.5
	c-0.4-0.7-0.6-1.4-0.3-2.1c0.5-1,1.1-2,2.2-2.6c0.3-0.1,0.6-0.1,0.9-0.1c0.8,0.1,1.5,0.2,2.3,0.3c0.3,0,0.7,0.1,0.9-0.1
	c0.5-0.4,0.6-0.9,0.5-1.5c0-0.5-0.4-0.6-0.8-0.7c-0.6-0.3-1.3-0.5-1.9-0.8c-0.7-0.3-1.1-0.8-1.2-1.6c-0.1-0.7-0.1-1.4-0.1-2
	c-0.1-0.9,0.3-1.6,1.1-2c0.6-0.3,1.1-0.6,1.7-1c0.6-0.4,0.7-0.7,0.4-1.5c-0.4-0.8-0.6-0.9-1.3-0.7c-0.6,0.2-1.2,0.4-1.8,0.6
	c-0.8,0.2-1.5,0.1-2.1-0.5c-0.5-0.5-0.9-1-1.4-1.5c-0.6-0.7-0.7-1.4-0.4-2.2c0.2-0.6,0.4-1.2,0.6-1.8c0.2-0.4,0-0.7-0.3-1
	c-0.1-0.1-0.3-0.2-0.4-0.2c-0.9-0.4-1.1-0.4-1.6,0.5c-0.3,0.5-0.5,0.9-0.8,1.3c-0.5,0.7-1.1,1-2,1c-0.7-0.1-1.4-0.1-2.1-0.2
	c-0.8-0.1-1.4-0.6-1.7-1.4c-0.2-0.5-0.4-1.1-0.6-1.7c-0.3-0.7-0.5-0.8-1.2-0.6c-0.2,0-0.4,0.1-0.5,0.1c-0.5,0.1-0.7,0.4-0.6,0.9
	c0.1,0.6,0.2,1.3,0.2,1.9c0.1,0.8-0.2,1.4-0.8,1.9c-0.5,0.4-1.1,0.8-1.6,1.2c-0.8,0.6-1.7,0.6-2.6,0.1C6.5,21.5,6,21.2,5.5,21
	c-0.3-0.1-0.6-0.2-0.9-0.1c-1,0.4-1.1,1.5-0.3,2.2c2.1,1.7,2.3,1.9,1.3,5c-0.3,0.9-0.8,1.5-1.8,1.7c-0.6,0.1-1.2,0.2-1.8,0.3
	c-0.7,0.1-0.9,0.4-0.8,1.1c0.1,1,0.2,1.2,1,1.2c0.7,0,1.4,0.1,2.1,0.1c0.8,0,1.3,0.4,1.7,1.1c0.2,0.3,0.3,0.6,0.5,0.9
	c0.8,1.4,0.7,2.6-0.5,3.8c-0.3,0.3-0.5,0.6-0.7,0.8c-0.5,0.6-0.5,0.8,0,1.4c0.7,0.8,1,0.8,1.9,0.1c0.3-0.3,0.7-0.5,1-0.8
	c1-0.8,2-0.9,3.2-0.4C13.4,40.4,13.7,40.8,13.6,43z"/>
<path class="st0" d="M31.8,3.1c-0.1-0.5-0.2-0.9-0.2-1.3c-0.1-0.8,0.2-1.2,0.9-1.5c0.2-0.1,0.4-0.1,0.5-0.2c1.3-0.3,1.7-0.1,2.2,1.1
	c0,0.1,0.1,0.1,0.1,0.2c0.2,1,0.8,1.4,1.8,1.4c0.5,0,0.8-0.1,1.1-0.5c0.2-0.3,0.4-0.7,0.7-1c0.5-0.7,1-0.8,1.8-0.5
	c0.3,0.1,0.6,0.3,0.8,0.4c0.7,0.4,0.8,0.9,0.7,1.7c-0.1,0.4-0.2,0.7-0.4,1.1c-0.3,0.6-0.2,1.1,0.3,1.5c0.1,0.1,0.2,0.2,0.3,0.3
	c0.3,0.4,0.7,0.4,1.1,0.3c0.4-0.1,0.9-0.3,1.3-0.4c0.7-0.2,1.2,0,1.6,0.6c0.2,0.3,0.3,0.7,0.4,1c0.3,0.6,0.1,1.2-0.5,1.6
	c-0.4,0.3-0.8,0.5-1.2,0.7c-0.5,0.3-0.8,0.6-0.7,1.2c0.1,0.6,0.1,1.2,0.9,1.4c0.4,0.1,0.9,0.3,1.3,0.6c0.7,0.4,0.8,0.8,0.7,1.6
	c-0.1,0.3-0.1,0.6-0.3,0.9c-0.3,0.8-0.8,1.1-1.7,1c-0.5-0.1-1-0.1-1.5-0.2c-0.6-0.1-0.9,0.2-1.2,0.7c-0.3,0.4-0.5,0.8-0.2,1.3
	c0.3,0.4,0.5,0.9,0.7,1.3c0.4,0.8,0.2,1.4-0.5,2c-0.2,0.1-0.4,0.3-0.5,0.4c-0.9,0.5-1.3,0.4-2-0.3c-0.3-0.3-0.7-0.7-1-1.1
	c-0.4-0.5-0.8-0.5-1.3-0.3c-0.5,0.1-0.9,0.3-1,0.9c-0.1,0.5-0.2,0.9-0.3,1.4c-0.3,1-0.7,1.3-1.7,1.3c-1.5,0-2-0.5-2-2
	c0-0.2,0-0.4,0-0.7c0-1-0.4-1.5-1.4-1.6c-0.3,0-0.6,0.1-0.8,0.3c-0.5,0.3-0.9,0.7-1.3,1c-0.5,0.3-1.1,0.3-1.5-0.1
	c-0.2-0.2-0.4-0.3-0.5-0.5c-0.8-0.9-0.8-1.4-0.1-2.3c0.2-0.2,0.4-0.5,0.6-0.7c0.4-0.4,0.6-0.9,0.3-1.5c-0.3-0.6-0.6-1.1-1.4-1
	c-0.5,0-0.9-0.1-1.4-0.1c-0.6-0.1-1-0.4-1.1-1c-0.1-0.3-0.1-0.6-0.1-0.9c0-1.1,0.3-1.5,1.3-1.7c0.2,0,0.4-0.1,0.5-0.1
	c1.3-0.2,1.4-0.4,1.7-1.6c0.1-0.4,0-0.7-0.3-1c-0.3-0.3-0.7-0.6-1-0.9c-0.6-0.7-0.7-1.1-0.2-1.9c0.1-0.2,0.2-0.4,0.4-0.5
	c0.7-0.8,1.1-0.9,2.1-0.5c0.2,0.1,0.3,0.2,0.5,0.3c0.4,0.2,0.8,0.5,1.1,0.4c0.5-0.2,1-0.5,1.4-0.9C31.8,3.6,31.8,3.2,31.8,3.1z
	 M28,18.4c0.6,1,0.7,1,1.6,0.3c0.2-0.2,0.5-0.4,0.7-0.6c0.6-0.5,1.2-0.5,1.9-0.2c0.3,0.1,0.6,0.3,0.9,0.4c0.8,0.4,1.1,1,1.1,1.8
	c0,0.3,0,0.7,0,1c0,0.7,0.1,0.9,0.6,0.9c0.5,0.1,0.7-0.1,0.8-0.8c0.1-0.4,0.1-0.7,0.2-1.1c0.1-0.4,0.3-0.8,0.6-1
	c0.7-0.6,1.5-0.7,2.4-0.7c0.7,0,1.1,0.5,1.5,0.9c0.3,0.4,0.7,0.8,1.1,1.2c0.4-0.3,0.7-0.5,1-0.8c-0.3-0.6-0.5-1-0.8-1.5
	c-0.5-0.8-0.4-1.5,0.1-2.3c0.2-0.2,0.3-0.5,0.5-0.7c0.4-0.6,1-0.8,1.7-0.7c0.5,0.1,1,0.2,1.6,0.2c0.4,0.1,0.6-0.2,0.7-0.5
	c0.1-0.4,0-0.7-0.4-0.8c-0.5-0.2-0.9-0.4-1.4-0.6c-0.5-0.2-0.8-0.5-0.9-1c-0.1-0.6-0.1-1.3-0.1-1.9c0-0.6,0.3-1.1,0.8-1.4
	c0.4-0.2,0.7-0.5,1.1-0.6c0.4-0.2,0.5-0.5,0.3-0.9c-0.1-0.2-0.2-0.3-0.3-0.5c-0.3,0.1-0.5,0.1-0.7,0.2c-1.9,0.6-2.3,0.5-3.5-1
	c0,0,0,0-0.1-0.1c-0.5-0.6-0.7-1.3-0.4-2.1c0.1-0.3,0.3-0.7,0.4-1c0.1-0.3,0-0.6-0.3-0.7C40.5,2,40.3,2,40.1,1.9
	c-0.2,0.3-0.4,0.6-0.5,0.9c-0.5,1-1.3,1.5-2.4,1.3c-0.2,0-0.3,0-0.5,0c-1.1-0.1-1.9-0.6-2.2-1.7c-0.1-0.4-0.3-0.7-0.4-1.2
	c-0.4,0.1-0.8,0.2-1.1,0.3C32.9,2.2,33,2.8,33,3.4c0,0.3-0.1,0.7-0.2,1c-0.6,0.7-1.3,1.3-2.3,1.6c-0.8,0.2-1.5-0.1-2-0.6
	c0,0,0,0-0.1-0.1c-0.5-0.3-0.7-0.2-1,0.2c-0.3,0.4-0.2,0.7,0.2,0.9c0.2,0.1,0.3,0.2,0.4,0.4c0.9,0.7,1.2,1.6,0.8,2.6
	c-0.1,0.2-0.1,0.4-0.2,0.6c-0.2,0.9-0.8,1.4-1.7,1.5c-0.5,0.1-1,0.2-1.4,0.3c-0.2,1.2-0.1,1.3,0.9,1.3c0.3,0,0.6,0,0.8,0
	c0.8,0,1.4,0.4,1.7,1.1c0.1,0.2,0.2,0.5,0.4,0.8c0.5,0.9,0.3,1.7-0.3,2.4C28.7,17.6,28.3,18,28,18.4z"/>
<path class="st0" d="M16.2,34.4c-2.5,0-4.5-2.1-4.4-4.5c0.1-2.5,2.1-4.4,4.6-4.4c2.5,0,4.5,2.1,4.4,4.5
	C20.7,32.4,18.7,34.4,16.2,34.4z M16.3,33.1c1.8,0,3.2-1.4,3.2-3.2c0-1.8-1.5-3.2-3.3-3.2c-1.7,0-3.3,1.3-3.2,3.3
	C13,32.1,14.8,33.2,16.3,33.1z"/>
<path class="st0" d="M39.3,11.3c0,1.9-1.5,3.4-3.3,3.4c-1.9,0-3.4-1.4-3.4-3.3C32.5,9.5,34,8,35.9,8C37.8,8,39.3,9.5,39.3,11.3z
	 M38.1,11.3c0-1.2-1-2.1-2.2-2.1c-1.2,0-2.1,1-2.1,2.2c0,1.2,1,2.1,2.1,2.1C37.1,13.5,38.1,12.5,38.1,11.3z"/>
</svg>
