<!-- Generator: Adobe Illustrator 21.0.2, SVG Export Plug-In  -->
<svg version="1.1"
	 xmlns="http://www.w3.org/2000/svg" xmlns:xlink="http://www.w3.org/1999/xlink" xmlns:a="http://ns.adobe.com/AdobeSVGViewerExtensions/3.0/"
	 x="0px" y="0px" width="41.8px" height="41.8px" viewBox="0 0 41.8 41.8" style="enable-background:new 0 0 41.8 41.8;"
	 xml:space="preserve">
<style type="text/css">
	.st0{fill:#262E39;}
</style>
<defs>
</defs>
<path class="st0" d="M20.8,41.8C9.1,41.7-0.2,32.2,0,20.6C0.2,9.1,9.7-0.2,21.1,0c11.7,0.2,21,9.6,20.7,21.3
	C41.6,32.9,32.2,41.9,20.8,41.8z M1.6,20.9c0,10.6,8.7,19.3,19.3,19.4c10.7,0,19.4-8.6,19.4-19.3c0-10.7-8.6-19.4-19.3-19.4
	C10.3,1.5,1.6,10.2,1.6,20.9z"/>
<path class="st0" d="M20.1,20.1c0-0.5,0-0.9,0-1.3c0-4.2,0-8.3,0-12.5c0-0.3,0-0.6,0-0.8c0-0.4,0.3-0.7,0.7-0.7
	c0.4,0,0.7,0.2,0.8,0.7c0,0.2,0,0.4,0,0.6c0,4.7,0,9.4,0,14.1c0,0.2,0,0.4,0,0.6c-0.1,0.5-0.3,0.8-0.8,0.8c-0.2,0-0.4,0-0.7,0
	c-3.6,0-7.1,0-10.7,0c-0.3,0-0.6,0-0.8,0c-0.4-0.1-0.7-0.4-0.6-0.8c0-0.4,0.2-0.6,0.6-0.7c0.3,0,0.6,0,0.8,0c3.2,0,6.3,0,9.5,0
	C19.3,20.1,19.7,20.1,20.1,20.1z"/>
</svg>
