<!-- Generator: Adobe Illustrator 21.0.2, SVG Export Plug-In  -->
<svg version="1.1"
	 xmlns="http://www.w3.org/2000/svg" xmlns:xlink="http://www.w3.org/1999/xlink" xmlns:a="http://ns.adobe.com/AdobeSVGViewerExtensions/3.0/"
	 x="0px" y="0px" width="41.3px" height="24.2px" viewBox="0 0 41.3 24.2" style="enable-background:new 0 0 41.3 24.2;"
	 xml:space="preserve">
<style type="text/css">
	.st0{fill:#262E39;}
</style>
<defs>
</defs>
<path class="st0" d="M20.8,17.2c1.7,0,3.3,0,5,0c0-0.4,0-0.8,0-1.1c0-3.9,0-7.8,0-11.7c0-0.2,0-0.4,0-0.7c0-0.8,0.2-1.1,1-1.1
	c2.3,0,4.6,0,6.9,0c0.6,0,0.9,0.3,1.2,0.9c0.7,1.7,1.4,3.4,2.1,5.2c0.2,0.6,0.6,0.8,1.2,0.9c0.6,0,1.1,0.1,1.7,0.2
	c1,0.1,1.5,0.7,1.5,1.7c0,1.4-0.1,2.7-0.2,4.1c-0.1,1.3-0.2,2.5-0.3,3.8c-0.1,1.6-0.7,2.1-2.2,2.1c-0.2,0-0.5,0-0.8,0
	c-0.1,0.2-0.2,0.4-0.3,0.5c-0.8,1.5-2,2.2-3.6,2.2c-1.6,0-2.8-0.8-3.5-2.2c-0.2-0.5-0.5-0.6-1-0.6c-4.7,0-9.3,0-14,0
	c-0.2,0-0.4,0-0.6,0.1c-0.2,0.3-0.3,0.6-0.5,0.8c-1.6,2.6-5.4,2.6-6.8-0.1c-0.4-0.7-0.8-0.9-1.4-0.8c-0.4,0-0.8,0-1.2,0
	c-0.8,0-1-0.3-1-1c0-0.5,0-1,0-1.5c0-0.5-0.1-0.8-0.5-1.1c-0.9-0.6-1.7-1.3-2.6-2c-0.8-0.6-0.9-0.7-0.6-1.7c0.7-2.2,1.4-4.4,2.1-6.6
	c0.2-0.6,0.4-1.2,0.6-1.8c0.2-0.5,0.5-0.7,1-0.7c2.9,0,5.9,0,8.8,0.1c1.8,0,3.6,0,5.4,0c0.5,0,0.9-0.1,1.3-0.6c1-1.3,2-2.5,3-3.8
	C22.8,0.2,23.3,0,24,0c2,0,4,0,6,0c0.2,0,0.6,0,0.7,0.1c0.2,0.2,0.4,0.5,0.4,0.7c0.1,0.3-0.2,0.6-0.5,0.7c-0.3,0.1-0.6,0.1-0.8,0.1
	c-1.8,0-3.7,0-5.6,0C23,6.7,22,11.9,20.8,17.2z M22.1,4.1C22,4,21.9,3.9,21.8,3.9c-0.1,0.2-0.2,0.4-0.3,0.6C21,5,20.6,5.5,20.2,6
	c-0.3,0.5-0.8,0.7-1.3,0.6c-0.4,0-0.8,0-1.2,0c-4.2,0-8.4,0-12.5,0c-0.4,0-0.8,0-1,0.6c-0.8,2.4-1.6,4.9-2.4,7.4
	c0.5,0.4,1,0.8,1.6,1.2c2,1.5,2,1.5,4.4,1.4c0.4,0,0.7-0.1,1-0.3c1.5-0.9,3-0.9,4.5,0c0.3,0.2,0.7,0.3,1.1,0.3c1.4,0,2.8,0,4.2,0
	c0.2,0,0.5-0.1,0.8-0.1C20.2,12.7,21.1,8.4,22.1,4.1z M27.5,4.2c-0.2,0.9-0.2,12.1,0,13c0.9,0,1.9,0,2.8,0c0.5,0,1-0.1,1.4-0.4
	c1.4-0.9,2.9-0.8,4.3,0c0.2,0.1,0.5,0.3,0.7,0.3c0.8,0,1.7,0,2.6,0c0.2-2,0.4-3.9,0.4-6c-1-0.1-1.8-0.3-2.7-0.3
	c-0.6,0-1-0.3-1.2-0.9c-0.7-1.7-1.4-3.4-2.1-5.2c-0.2-0.5-0.5-0.7-1-0.7c-1.5,0-3.1,0-4.6,0C27.9,4.1,27.7,4.2,27.5,4.2z M10.9,17.8
	c-1.3,0-2.4,1.1-2.4,2.4c0,1.3,1.2,2.5,2.5,2.5c1.3,0,2.4-1.2,2.4-2.5C13.4,18.8,12.3,17.7,10.9,17.8z M31.5,20.1
	c0,1.3,1,2.5,2.3,2.5c1.3,0.1,2.4-1.1,2.5-2.4c0.1-1.1-1-2.5-2.4-2.5C32.6,17.7,31.5,18.8,31.5,20.1z M15,19.8c5,0,9.9,0,14.9,0
	c0.1-0.3,0.2-0.6,0.2-0.9c-0.9-0.2-14.6-0.2-15.3,0C14.8,19.2,14.9,19.4,15,19.8z M7.2,18.8c-0.6,0-1.1,0-1.7,0c0,0.4,0,0.6,0,1
	c0.5,0,1,0,1.4,0C7,19.5,7.1,19.2,7.2,18.8z M37.9,19.8c0.4,0,0.8,0,1.2-0.1c0.1-0.4,0.1-0.6,0.1-0.9c-0.6,0-1.1,0-1.6,0
	C37.7,19.2,37.8,19.5,37.9,19.8z"/>
<path class="st0" d="M31.6,9.5c0.6,0,1.3,0,1.9,0c0.5,0,0.8,0.3,0.8,0.7c0,0.4-0.3,0.7-0.8,0.8c-0.4,0.1-0.9,0-1.3,0
	c-0.8,0-1.6,0-2.4,0c-0.2,0-0.4,0-0.6-0.1c-0.4-0.1-0.7-0.4-0.6-0.8c0-0.4,0.3-0.7,0.7-0.7C30.1,9.5,30.8,9.5,31.6,9.5
	C31.6,9.5,31.6,9.5,31.6,9.5z"/>
</svg>
