<!-- Generator: Adobe Illustrator 21.0.2, SVG Export Plug-In  -->
<svg version="1.1"
	 xmlns="http://www.w3.org/2000/svg" xmlns:xlink="http://www.w3.org/1999/xlink" xmlns:a="http://ns.adobe.com/AdobeSVGViewerExtensions/3.0/"
	 x="0px" y="0px" width="35.9px" height="35.9px" viewBox="0 0 35.9 35.9" style="enable-background:new 0 0 35.9 35.9;"
	 xml:space="preserve">
<style type="text/css">
	.st0{fill:#262E39;}
</style>
<defs>
</defs>
<path class="st0" d="M15.3,8c-0.3-0.2-0.6-0.5-0.8-0.7c-2.4-1.8-4.8-3.7-7.1-5.5C7.2,1.7,7,1.5,6.8,1.4C6.5,1,6.5,0.6,6.7,0.3
	C7,0,7.4-0.1,7.7,0.1C8,0.3,8.2,0.4,8.4,0.6c2.9,2.3,5.9,4.5,8.8,6.8c0.2,0.2,0.4,0.3,0.7,0.5c1.7-1.3,3.4-2.6,5-3.9
	c1.5-1.1,2.9-2.3,4.4-3.4c1-0.7,1.4-0.8,1.7-0.3c0.3,0.5,0.1,0.9-0.7,1.6c-2.3,1.7-4.5,3.5-6.8,5.2c-0.4,0.3-0.7,0.6-1.2,1
	c0.5,0,0.7,0.1,1,0.1c3.6,0,7.1,0.1,10.7,0c1.9-0.1,3.8,1.5,3.8,3.8c-0.1,6.8,0,13.5,0,20.3c0,1.8-1,3.2-2.6,3.6
	c-0.3,0.1-0.7,0.1-1,0.1c-9.5,0-19,0-28.5,0c-2,0-3.7-1.7-3.7-3.7c0.1-6.8,0.1-13.5,0-20.3c0-2.1,1.7-3.8,3.8-3.8
	c3.5,0.1,7,0,10.5,0c0.3,0,0.6,0,0.9,0C15.3,8.1,15.3,8,15.3,8z M18,9.8c-4.7,0-9.3,0-14,0c-2,0-2.4,0.7-2.4,2.4
	c0,6.6,0,13.1,0,19.7c0,1.6,0.4,2.4,2.3,2.4c9.3,0,18.7,0,28,0c0.2,0,0.5,0,0.7,0c0.9-0.1,1.5-0.6,1.6-1.5c0-0.3,0-0.6,0-0.8
	c0-6.5,0-13.1,0-19.6c0-0.2,0-0.5,0-0.7c-0.1-1.1-0.6-1.6-1.7-1.7c-0.2,0-0.4,0-0.6,0C27.4,9.8,22.7,9.8,18,9.8z"/>
<path class="st0" d="M27.8,22c-0.2,2.5-0.4,5.1-0.6,7.6c-0.1,1.3-1,2.2-2.3,2.4c-3.5,0.5-7,0.6-10.6,0.6c-2.6,0-5.3-0.2-7.9-0.6
	c-1.4-0.2-2.2-0.9-2.4-2.3c-0.2-1.7-0.4-3.4-0.5-5.2c-0.1-3.3,0.1-6.7,0.5-10C4.2,13,5,12.3,6.5,12c3.9-0.6,7.8-0.7,11.8-0.5
	c2.2,0.1,4.4,0.3,6.7,0.6c1.4,0.2,2.2,1,2.3,2.4C27.5,16.9,27.6,19.5,27.8,22z M15.6,31.1c2.9-0.2,5.7-0.4,8.5-0.7
	c1.3-0.1,1.4-0.3,1.6-1.6c0.1-1.7,0.3-3.3,0.4-5c0.1-3.1,0-6.1-0.4-9.2c-0.1-0.8-0.2-0.9-0.9-1c-0.6-0.1-1.2-0.2-1.7-0.2
	c-5.3-0.5-10.6-0.5-15.9,0.2c-1.2,0.2-1.3,0.3-1.5,1.5C5.2,18,5.2,21,5.2,24c0,1.8,0.3,3.6,0.4,5.5c0,0.6,0.3,0.9,0.9,0.9
	c0.2,0,0.4,0.1,0.5,0.1C10,30.7,12.8,30.9,15.6,31.1z"/>
<path class="st0" d="M30.9,21.2c-0.8,0-1.6-0.9-1.5-1.7c0-0.8,0.8-1.5,1.6-1.5c0.8,0,1.6,0.8,1.6,1.6C32.6,20.4,31.7,21.2,30.9,21.2
	z"/>
<path class="st0" d="M32.6,24.5c0,0.8-0.9,1.6-1.7,1.6c-0.8,0-1.6-0.9-1.5-1.7c0-0.8,0.8-1.5,1.6-1.5C31.8,22.8,32.6,23.7,32.6,24.5
	z"/>
<path class="st0" d="M31,30.9c-0.8,0-1.6-0.8-1.6-1.6c0-0.8,0.8-1.6,1.5-1.6c0.8,0,1.6,0.8,1.7,1.6C32.6,30.1,31.8,30.9,31,30.9z"/>
</svg>
