<!-- Generator: Adobe Illustrator 21.1.0, SVG Export Plug-In  -->
<svg version="1.1"
	 xmlns="http://www.w3.org/2000/svg" xmlns:xlink="http://www.w3.org/1999/xlink" xmlns:a="http://ns.adobe.com/AdobeSVGViewerExtensions/3.0/"
	 x="0px" y="0px" width="29.3px" height="36.3px" viewBox="0 0 29.3 36.3" style="enable-background:new 0 0 29.3 36.3;"
	 xml:space="preserve">
<style type="text/css">
	.st0{fill:#262E39;}
</style>
<defs>
</defs>
<path class="st0" d="M0,18C0,12.9,0,7.7,0,2.6C0,1,0.9,0,2.5,0c8.1,0,16.2,0,24.3,0c1.4,0,2.5,1.2,2.5,2.5c0,10.4,0,20.8,0,31.2
	c0,1.5-0.9,2.5-2.5,2.5c-8.1,0-16.2,0-24.3,0c-1.6,0-2.5-0.9-2.5-2.6C0,28.5,0,23.2,0,18z M28,8.4c-9,0-17.7,0-26.6,0
	c0,0.4,0,0.7,0,1.1c0,8,0,15.9,0,23.9C1.3,34.9,1.4,35,3,35c7.8,0,15.6,0,23.3,0c0.2,0,0.5,0,0.7,0c0.6-0.1,0.9-0.3,0.9-1
	c0-0.2,0-0.4,0-0.6c0-8,0-16.1,0-24.1C28,9.1,28,8.8,28,8.4z M1.4,6.9c8.9,0,17.7,0,26.6,0c0-1.6,0-3.2,0-4.8c0-0.5-0.3-0.8-0.8-0.8
	c-0.2,0-0.5,0-0.7,0c-7.8,0-15.7,0-23.5,0c-0.1,0-0.2,0-0.4,0c-1,0-1.1,0.2-1.2,1.1c0,1.3,0,2.5,0,3.8C1.3,6.5,1.4,6.7,1.4,6.9z"/>
<path class="st0" d="M14.4,32.3c-5.8,0-10.7-4.8-10.7-10.7C3.8,15.8,8.6,11,14.4,11C20.2,11,25,15.8,25,21.7
	C25,27.4,20.2,32.3,14.4,32.3z M5.1,21.6c0,5.3,4,9.4,9.2,9.4c5.2,0,9.4-4,9.4-9.1c0-5.3-3.9-9.4-9.1-9.5
	C9.4,12.2,5.1,16.3,5.1,21.6z"/>
<path class="st0" d="M16.3,4.2c0,0.6-0.6,1.1-1.2,1.1c-0.6,0-1.1-0.6-1.1-1.2c0-0.6,0.6-1.1,1.2-1.1C15.8,3,16.3,3.6,16.3,4.2z"/>
<path class="st0" d="M5.3,4.2c0,0.6-0.5,1.1-1.1,1.1c-0.6,0-1.1-0.6-1.1-1.1C3.1,3.6,3.6,3,4.2,3C4.7,3,5.3,3.6,5.3,4.2z"/>
<path class="st0" d="M21.3,4.2c0,0.6-0.6,1.1-1.2,1.1c-0.6,0-1.1-0.6-1.1-1.2c0-0.6,0.6-1.1,1.2-1.1C20.7,3,21.3,3.6,21.3,4.2z"/>
<path class="st0" d="M26.3,4.1c0,0.5-0.6,1.1-1.1,1.2c-0.6,0-1.1-0.5-1.2-1.1C24,3.6,24.6,3,25.1,3C25.7,3,26.3,3.6,26.3,4.1z"/>
</svg>
