<?xml version="1.0" encoding="UTF-8"?><!DOCTYPE svg PUBLIC "-//W3C//DTD SVG 1.1//EN" "http://www.w3.org/Graphics/SVG/1.1/DTD/svg11.dtd"><svg xmlns="http://www.w3.org/2000/svg"><symbol id="ico-attention" viewBox="0 0 43 38.1">
    <style>
        .st0{fill:#262e39}
    </style>
    <path class="st0" d="M21.5 38.1H3.7c-.5 0-1 0-1.5-.1-1.9-.5-2.8-2.6-1.8-4.4.5-1 1.1-1.9 1.7-2.9C7.6 21.1 13.2 11.5 18.7 2c.3-.4.6-.9 1-1.2C21.1-.3 23 0 24 1.5l.3.6 18 31.2c.3.5.5 1.1.6 1.7.2 1.6-.8 2.8-2.3 3.1-.4.1-.9.1-1.4.1-5.9-.1-11.8-.1-17.7-.1zM3 35c.4 0 .6.1.8.1h36.1l.1-.1.1-.1c-6.3-10.6-12.4-21.2-18.6-32C15.3 13.7 9.2 24.3 3 35z"/>
    <path class="st0" d="M20 19.5v-6.3c0-1.3.7-1.9 1.5-1.8.9 0 1.5.7 1.5 1.9v13c-.1.9-.7 1.5-1.5 1.5s-1.5-.6-1.5-1.6v-6.7z"/>
    <path class="st0" d="M23 31.5c-.1.4-.1.8-.2 1.1-.2.7-.8 1-1.5 1-.7-.1-1.2-.6-1.3-1.2-.1-.6-.1-1.2 0-1.8.1-.7.6-1.3 1.3-1.3.7-.1 1.3.3 1.5 1.1.2.2.2.6.2 1.1z"/>
</symbol><symbol id="ico-barcode" viewBox="0 0 39.3 32.4">
    <style>
        .st0{fill:#262e39}
    </style>
    <path class="st0" d="M10.8 32.4H7.5V0h3.2c.2.7.3 31.1.1 32.4z"/>
    <path class="st0" d="M35.8 32.4h-2.7V.1h2.6c.2.6.3 30.6.1 32.3z"/>
    <path class="st0" d="M25.2 32.4h-2.7V.1h2.6c.2.6.3 31.1.1 32.3z"/>
    <path class="st0" d="M16.1 32.4h-1.2c-.2-.7-.2-31.2 0-32.4h1.2v32.4z"/>
    <path class="st0" d="M18.4 0h1.1c.2.7.3 30.8.1 32.4h-1.2c-.2-.6-.2-30.9 0-32.4z"/>
    <path class="st0" d="M3.5 0h1.2c.2.7.2 31.2.1 32.4H3.6C3.5 21.6 3.5 10.9 3.5 0z"/>
    <path class="st0" d="M0 0h1.3v32.3H0V0z"/>
    <path class="st0" d="M38.1 0h1.3v32.3h-1.3V0z"/>
    <path class="st0" d="M28.2 0h1.3v32.4h-1.3V0z"/>
</symbol><symbol id="ico-car" viewBox="0 0 42.8 30.9">
    <style>
        .st0{fill:#262e39}
    </style>
    <path class="st0" d="M3.2 25.7H1.3c-1 0-1.3-.3-1.3-1.3V1.3C0 .2.3 0 1.4 0H28.5c.8 0 1.1.3 1.1 1.2V11h8c.8 0 1.3.3 1.7 1 1 1.9 2.2 3.8 3.2 5.7.2.4.3.9.4 1.3v5.4c0 1.1-.3 1.3-1.4 1.4h-1.3c-.5 3.5-2.3 5.4-5 5.2-2-.1-4.6-1.5-4.6-5.1-.6-.2-16.3-.2-17.6-.1 0 1.6-.5 3.1-1.9 4.1-.9.7-1.9 1-3 1-2.8 0-4.4-1.8-4.9-5.2zm24.4-1.9V1.9H1.9v21.8c.3 0 .5 0 .8.1.8.1 1.3-.1 1.9-.8 1.9-2.2 5.3-2.1 7.2.2.4.5.7.6 1.3.6h14.5zm2-.1c1.3.3 1.3.2 2.1-.7.9-1 2.1-1.6 3.5-1.6 1.6 0 2.8.6 3.8 1.9.3.4.6.6 1.1.5.3 0 .5 0 .9-.1v-3.9c0-.9-.2-1.6-.7-2.3-.2-.4-.5-.5-.9-.5h-3.7c-.6-.1-.9-.4-.9-.9s.3-.9.9-1h3.2c-.4-.7-.7-1.2-1-1.8-.2-.5-.6-.6-1.1-.6h-6.5c-.2 0-.5 0-.7.1v10.9zm-21.5-.4c-1.6 0-2.9 1.3-2.9 2.9 0 1.5 1.3 2.8 2.8 2.9 1.6 0 2.9-1.3 2.9-2.9 0-1.6-1.2-2.9-2.8-2.9zm30 2.9c0-1.6-1.2-2.8-2.8-2.9-1.6 0-2.9 1.2-2.9 2.8 0 1.6 1.3 2.9 2.8 2.9 1.6.1 2.9-1.2 2.9-2.8z"/>
    <path class="st0" d="M9 26.1c0 .5-.4.9-.9 1-.5 0-.9-.3-.9-.8s.3-1 .8-1c.5-.1 1 .3 1 .8z"/>
    <path class="st0" d="M35.3 25.2c.5 0 .9.5.9 1s-.5.9-1 .9-.9-.4-.9-.9.5-1 1-1z"/>
</symbol><symbol id="ico-certificate" viewBox="0 0 27.6 37.7">
    <style>
        .st0{fill:#262e39}
    </style>
    <path class="st0" d="M22.6 35.2v1.4c0 .4.1.8-.3 1-.4.2-.7-.1-1-.3-.8-.6-1.6-1.3-2.4-1.9-.7.6-1.3 1.1-2 1.6-.2.2-.4.3-.6.5-.7.5-1.1.3-1.2-.5v-.8-.9H.8c-.6 0-.7-.2-.8-.8v-.6V1.4.8C0 .2.2 0 .9 0h19c.8 0 1.4.3 1.9.8C23.5 2.6 25.2 4.3 27 6c.5.4.6.9.6 1.6v26.7c0 .7-.2.9-.9.9H22.6zm-7.5-1.3c-.1-1.1.4-2.2-.5-3.1-.1-.1-.2-.3-.2-.4-.1-.4-.3-.7-.7-.9-.9-.6-1.1-1.5-.8-2.5.1-.4.1-.7 0-1.1-.3-1.1-.1-1.8.8-2.5.3-.2.5-.5.6-.9.3-1 1-1.5 2.1-1.5.4 0 .7-.1 1-.3 1-.7 1.7-.7 2.7 0 .3.2.6.3.9.3 1.2 0 1.8.4 2.2 1.5.1.4.3.6.6.9.9.7 1.1 1.4.8 2.5-.1.3-.1.6 0 1 .4 1.2.2 1.9-.8 2.6-.3.2-.5.5-.6.8-.1.3-.3.6-.5.9-.1.2-.2.3-.2.5v2.2h3.7c.2-1.4.1-25.6-.1-26.3H21.5c-1.5 0-1.5 0-1.5-1.5v-4c0-.2 0-.5-.1-.7-1.7-.3-17.9-.2-18.6 0v32.5h13.8zm1.6-11.7c-.8 0-1.1.2-1.3 1-.1.5-.3.8-.8 1.1-.7.4-.9.8-.5 1.5.2.5.2.8 0 1.3-.4.8-.3 1.1.5 1.5.4.2.7.5.8 1 .1.9.5 1.1 1.4 1 .4-.1.8 0 1.1.3.8.7 1 .7 1.8 0 .3-.3.6-.4 1.1-.3.9.1 1.2-.1 1.4-1 .1-.5.3-.8.8-1 .7-.4.9-.8.5-1.4-.3-.5-.3-.9 0-1.5s.2-1-.4-1.3c-.6-.3-.9-.7-1-1.3-.1-.7-.5-.9-1.1-.8-.6.1-1 0-1.4-.4-.6-.6-1-.6-1.5 0-.5.3-.9.5-1.4.3zm4.6 13.5v-4c-.4.1-.7.1-1 .3-1 .8-2 .8-3 0-.2-.2-.6-.2-1-.3v3.9c.7-.5 1.2-1 1.8-1.4.6-.5.7-.5 1.4 0 .6.5 1.1 1 1.8 1.5zm.1-29.5c1.5.2 3.3.1 3.7 0l-3.7-3.7v3.7z"/>
    <path class="st0" d="M13.8 17.6H6.3c-.3 0-.6 0-.8-.1-.2-.1-.4-.4-.4-.5 0-.2.3-.5.5-.6.2-.1.4 0 .6 0h15.3c.8 0 1 .2 1.1.6 0 .5-.3.7-1.1.7-2.6-.1-5.1-.1-7.7-.1z"/>
    <path class="st0" d="M13.8 13.8H6.4c-.3 0-.6.1-.8-.1-.2-.1-.5-.4-.5-.6 0-.2.3-.4.5-.6.1-.1.4 0 .5 0h15.3c.2 0 .5 0 .6.1.2.1.4.4.4.6 0 .2-.2.4-.4.5-.2.1-.5.1-.8.1h-7.4z"/>
    <path class="st0" d="M13.8 10h-2.7c-.2 0-.4.1-.5 0-.2-.1-.5-.4-.5-.6 0-.2.3-.4.5-.6.1-.1.4 0 .5 0h6c.3 0 .5.2.5.6 0 .4-.2.6-.6.6h-3.2z"/>
</symbol><symbol id="ico-check-list" viewBox="0 0 28 35.3">
    <style>
        .st0{fill:#262e39}
    </style>
    <path class="st0" d="M8.1 2.2c.2-.3.3-.6.4-.8C9.1.6 9.8 0 10.8 0h6.4c1 0 1.7.5 2.2 1.3.2.2.3.5.4.8h4.4c.4 0 .9 0 1.3.1 1.3.2 2.2 1.2 2.4 2.5v27c0 .4 0 .7-.1 1.1-.2 1.2-1.1 2.2-2.4 2.4-.4.1-.7.1-1.1.1H3.4c-.4 0-.7 0-1.1-.1C1.1 35 .1 33.9 0 32.6v-.7V5.6v-.7c.1-1.3 1.1-2.3 2.3-2.6.4-.1.9-.1 1.3-.1h4.5zm0 1.4H3.6c-1.7 0-2.1.4-2.1 2.2v26.6c.1.8.5 1.3 1.3 1.4H25c.9-.1 1.5-.6 1.5-1.5v-.7V5.7 5c-.1-.8-.6-1.4-1.4-1.4h-5.3c-.2.3-.3.6-.4.8-.6.9-1.3 1.4-2.4 1.4h-6.1c-1 0-1.8-.5-2.4-1.4-.1-.2-.2-.5-.4-.8zm5.8.8h3c.9 0 1.5-.6 1.5-1.4 0-.8-.5-1.5-1.4-1.5-2-.1-4-.1-6 0-.9 0-1.5.7-1.5 1.6 0 .8.6 1.3 1.6 1.4 1-.1 1.9-.1 2.8-.1z"/>
    <path class="st0" d="M11.8 25.8c0 1.6-1.4 3-3 2.9-1.6 0-2.9-1.4-2.9-3s1.3-2.9 2.9-2.9c1.6 0 3 1.3 3 3zm-1.5 0c0-.8-.6-1.5-1.4-1.5-.8 0-1.5.6-1.5 1.4 0 .8.6 1.5 1.4 1.5.8 0 1.5-.6 1.5-1.4z"/>
    <path class="st0" d="M8.4 15.2c.9-1 1.7-1.9 2.5-2.7.1-.2.3-.3.5-.5.3-.2.6-.3.9 0 .3.3.3.6.1.9-.1.1-.1.2-.2.3-1 1.1-1.9 2.2-2.9 3.2-.6.6-.9.6-1.5.2-.5-.4-.9-.7-1.4-1.1-.5-.4-.6-.8-.3-1.2.3-.4.7-.4 1.2 0 .3.3.7.5 1.1.9z"/>
    <path class="st0" d="M18.4 15.5h-2.5c-.2 0-.5 0-.7-.1-.2-.1-.4-.4-.4-.7 0-.3.2-.6.6-.6h6.2c.4 0 .6.3.6.6.1.4-.2.7-.5.8-.2.1-.5.1-.7.1-1-.1-1.8-.1-2.6-.1z"/>
    <path class="st0" d="M18.4 25h3.1c.4.1.6.3.6.7 0 .4-.2.6-.6.7h-6c-.5-.1-.8-.3-.8-.7s.3-.7.8-.7H18.4z"/>
</symbol><symbol id="ico-check" viewBox="0 0 33.1 27.9">
    <style>
        .st0{fill:#262e39}
    </style>
    <path class="st0" d="M21.8 23.3h9.8c.3 0 .7 0 1 .1.4.1.6.5.6.9s-.2.7-.6.8c-.3.1-.5.1-.8.1H11.4c-.6-.1-.8-.5-.8-1s.3-.8.9-.9c.3-.1.6 0 .8 0h9.5z"/>
    <path class="st0" d="M21.8 4.5H11.2c-.5-.1-.8-.4-.8-.9s.3-.8.7-.9c.2-.1.5 0 .7 0h19.8c.3 0 .6 0 .8.1.4.1.7.5.6.9 0 .5-.3.8-.7.9-.3.1-.6.1-.9.1-3.1-.2-6.4-.2-9.6-.2z"/>
    <path class="st0" d="M21.7 14.9H12c-.3 0-.6 0-.9-.1-.5-.1-.7-.5-.7-.9 0-.5.3-.8.8-.9.3-.1.6 0 .8 0h20.3c.5.1.8.4.8.9 0 .4-.3.8-.7.9-.3.1-.6.1-.9.1h-9.8z"/>
    <path class="st0" d="M2.9 4.8C4 3.4 5 2.2 6 .9c.2-.2.3-.4.5-.6.4-.4 1-.4 1.4-.1.4.3.5.9.2 1.3-.1.2-.2.4-.4.5-1.2 1.5-2.3 3-3.6 4.5-.6.8-1.1.9-1.9.3C1.6 6.4 1 5.9.5 5.5-.1 5-.1 4.5.2 4c.4-.5.9-.6 1.5-.2.4.3.7.6 1.2 1z"/>
    <path class="st0" d="M2.9 25.5c.2-.3.5-.5.6-.8.9-1.2 1.8-2.3 2.8-3.5.5-.6 1.1-.7 1.5-.3.5.4.5 1 .1 1.6-1.3 1.7-2.6 3.3-4 4.9-.5.6-1 .7-1.6.2-.6-.4-1.3-.9-1.9-1.4-.6-.4-.6-1-.3-1.5.4-.5.9-.6 1.6-.2.4.4.8.7 1.2 1z"/>
    <path class="st0" d="M2.9 15.1c1-1.2 2-2.4 2.9-3.7.2-.3.4-.5.7-.8.4-.4.9-.4 1.3-.1.4.3.5.9.2 1.3 0 .2-.1.4-.2.5-1.2 1.5-2.5 3.1-3.7 4.6-.6.8-1.1.8-1.9.2-.6-.4-1.1-.8-1.6-1.2-.6-.5-.7-1-.4-1.5.4-.5.9-.6 1.6-.1.3.2.7.5 1.1.8z"/>
</symbol><symbol id="ico-circle" viewBox="0 0 35.6 35.6">
    <style>
        .st0{fill:#262e39}
    </style>
    <path class="st0" d="M17.8 35.6C8 35.6 0 27.7 0 17.8 0 8 8 0 17.8 0s17.8 8 17.8 17.8-8 17.8-17.8 17.8zm-.1-1.2c8.8.1 16.6-7 16.7-16.5.1-9.2-7.4-16.7-16.6-16.7-9.1 0-16.6 7.4-16.6 16.6-.1 9.2 7.4 16.6 16.5 16.6z"/>
    <path class="st0" d="M23.5 20.3c.6.1 1.1.2 1.7.4-.2.5-.2 1 .3 1.5-.4 0-.7 0-1 .1-.2.1-.4.3-.7.6-.2-.6-.4-1.1-1.3-1.2.7-.4 1.1-.9 1-1.4z"/>
    <path class="st0" d="M12.1 20.1c-.1.7.2 1.2.6 1.4-.4.4-.8.8-1.2 1.3-.3-.4-.8-.6-1.4-.5.4-.9.4-.9.2-1.7.3 0 .6.1.9.1.3-.1.6-.3.9-.6z"/>
    <path class="st0" d="M18.5 11.7c-.4-.4-.9-.3-1.4 0-.2-.6-.3-1.1-.5-1.7.4-.1 1-.3 1.1-1.1.2.4.3.6.5.8.2.2.5.2.7.3-.1.5-.2 1-.4 1.7z"/>
    <path class="st0" d="M21 23.4c.1-.2.3-.4.5-.7.3.6.6 1.1 1.4 1.2-.6.4-.9.9-.7 1.7-.6-.4-1.1-.6-1.7-.2.1-.7.2-1.3-.5-1.8.5-.1.7-.2 1-.2z"/>
    <path class="st0" d="M15.2 25.3c-.9-.3-.9-.3-1.8.1.1-.7-.1-1.1-.6-1.5.9-.4.9-.4 1.3-1.2l.3.3c.1.1.2.2.3.4.3 0 .6 0 .9.1-.5.5-.8 1-.4 1.8z"/>
    <path class="st0" d="M9 17.8c.7-.5.7-.5.9-1.3.5.4 1 .7 1.8.4-.4.7-.5 1.2-.2 1.6-.5.2-1 .3-1.5.5-.2-.6-.2-.6-1-1.2z"/>
    <path class="st0" d="M23.9 16.9c.8.3 1.3.1 1.8-.5 0 .8.4 1.2 1.1 1.4-.7.3-1.1.7-1.1 1.2-.6-.2-1.1-.3-1.6-.5.2-.7.2-.7-.2-1.6z"/>
    <path class="st0" d="M19.4 25.6c-.8.2-1.4.4-1.5 1.2-.2-.4-.3-.7-.6-.8-.2-.2-.5-.2-.7-.3.2-.5.4-1 .6-1.6.4.1.9.5 1.4-.3 0 .8-.1 1.4.8 1.8z"/>
    <path class="st0" d="M20.6 10.4c.6.3 1.1.1 1.7-.3-.1.7 0 1.2.7 1.5-.7.2-1.2.6-1.3 1.2-.6-.7-.6-.7-1.4-.9.2-.3.5-.8.3-1.5z"/>
    <path class="st0" d="M13.3 10.2c.9.4.9.4 1.7.2 0 .5-.3 1.2.6 1.6-.8.2-1.4.3-1.5.8-.4-.4-.8-.8-1.3-1.2.4-.3.7-.7.5-1.4z"/>
    <path class="st0" d="M25.5 13.4c-.3.5-.7 1 0 1.7-.8-.1-1.4-.2-1.9.5-.1-.4-.1-.7-.2-1-.2-.2-.4-.3-.7-.5.7-.2 1.1-.6 1.2-1.3.3.3.5.5.7.6h.9z"/>
    <path class="st0" d="M10.1 13.4c.7.1 1.2-.1 1.6-.7.2.7.5 1.2 1.3 1.3-.3.2-.5.4-.8.6 0 .2-.1.5-.1.9-.5-.4-1-.6-1.7-.3.1-.4.2-.7.2-.9-.1-.3-.3-.6-.5-.9z"/>
</symbol><symbol id="ico-contract" viewBox="0 0 25.3 37.2">
    <style>
        .st0{fill:#262e39}
    </style>
    <path class="st0" d="M0 18.5V1.6.9C0 .4.3.1.8.1c.2-.1.5-.1.7-.1h22.8c.8 0 1 .3 1 1V36.3c0 .7-.3.9-1 1H.8c-.6 0-.8-.3-.9-.8v-.7c.1-5.9.1-11.6.1-17.3zm23.7 17.2c.2-1.5.1-33.5-.1-34.2H1.5c-.1 1.6 0 33.5.1 34.2h22.1z"/>
    <path class="st0" d="M9 26.6c1.1-.6 1.6-.5 1.7 1.1 1 0 1.9-.2 2.8-.6.4-.2.6-.4.6-.8.2-.9.2-.9 1.2-1.1.4 0 .7-.1 1.1-.1.4 0 .7.3.7.7.1.4-.3.7-.8.8h-.8c-.3 1.3-1.3 1.9-2.5 2.2-.7.2-1.4.3-2.1.4-.4.1-.7.2-.9.7-.1.3-.3.7-.6.9-.6.6-1.3.6-1.8-.1s-.8-1.4-.4-2.2c.1-.2.2-.5.3-.9-.4.3-.6.4-.9.5-.3.1-.7.3-1.1.3-.4 0-.7-.2-.7-.6 0-.3.2-.7.4-.7 1.2-.3 1.5-1.3 2.1-2.1.4-.8.7-1 1.1-.8.6.2.5.8.5 1.3.1.3.1.7.1 1.1z"/>
    <path class="st0" d="M12.6 7.4H5.1c-.4-.1-.7-.3-.6-.7.1-.3.3-.5.5-.7.2-.1.5 0 .7 0h13.9c.8 0 1.2.2 1.2.7 0 .5-.4.8-1.2.8-2.4-.1-4.7-.1-7-.1z"/>
    <path class="st0" d="M11.9 16.4H5.2c-.4 0-.7-.3-.7-.7 0-.4.3-.7.8-.8h13.5c.4.1.6.3.6.7 0 .4-.2.6-.6.7h-.7c-2.2.1-4.2.1-6.2.1z"/>
    <path class="st0" d="M11.9 11.9H5.2c-.4 0-.7-.3-.7-.7 0-.4.3-.7.8-.8h13.5c.4.1.6.3.6.7 0 .4-.2.6-.6.7h-.7c-2.2.1-4.2.1-6.2.1z"/>
</symbol><symbol id="ico-cyber" viewBox="0 0 33.7 33.8">
    <style>
        .st0{fill:#262e39}
    </style>
    <path class="st0" d="M22.2 3.8h1.6V1.7.9c.1-.6.3-.9.8-.9.4 0 .7.3.8.8v3h1.5V2.2.9c0-.6.3-.9.8-.8.4 0 .7.3.7.8v2.9c.5.1 1 .2 1.3.4.2.2.3.7.4 1.2.5.2 1.1 0 1.7.1H33c.5.1.8.4.8.8s-.3.7-.8.7h-2.4c-.2 0-.3 0-.5.1v1.5h2.7c.7 0 1.1.3 1 .8 0 .5-.4.7-1.1.7H30v1.5c.6.2 1.2.1 1.8.1H33c.5.1.8.4.7.8 0 .4-.3.7-.7.7H29.9v1.6H33c.4.1.6.3.6.7 0 .4-.2.7-.7.8H29.8v1.6h3c.4 0 .7.3.7.7 0 .4-.3.7-.7.8-.3.1-.6 0-.8 0h-2.3v1.5h3c.4.1.7.4.7.7 0 .4-.3.7-.7.7H29.6v1.5c.3 0 .6.1 1 .1h1.8c.7 0 1 .3 1 .8s-.3.7-1 .7h-2.8v1.5h3c.5 0 .8.4.7.8 0 .4-.3.7-.7.7h-2.9c-.1.5-.1 1-.4 1.3-.3.3-.8.3-1.3.4V33c-.1.4-.4.7-.7.7-.4 0-.7-.3-.7-.7v-1.9-1.2h-1.5c0 .4-.1.7-.1 1.1v1.6c0 .7-.3 1.1-.8 1-.5 0-.7-.4-.8-1.1v-1.9c0-.3 0-.5-.1-.9h-1.5v3c0 .5-.4.8-.8.7-.4 0-.7-.3-.7-.7v-2-1h-1.5v3c-.1.5-.4.8-.8.7-.4-.1-.7-.3-.7-.8v-2-1h-1.6v3c0 .4-.3.7-.7.7-.4 0-.7-.2-.7-.7v-1.4-1.7h-1.6V32.7c-.1.4-.3.6-.7.6-.4 0-.6-.2-.7-.6-.1-.3 0-.6 0-.9v-2.2H9.8v2.9c0 .6-.3 1-.8.9-.4 0-.7-.3-.7-.9v-1.9-1H6.8c0 .3 0 .6-.1.9v1.8c0 .8-.3 1.2-.8 1.1-.5 0-.7-.4-.8-1.2v-1.7-.8c-.5-.1-1-.1-1.2-.4-.3-.3-.3-.8-.4-1.3H.6c-.4.3-.6 0-.6-.4s.3-.7.7-.7h3v-1.5H.8c-.5-.1-.8-.4-.8-.8 0-.5.3-.8.8-.8H3.7v-1.5h-3c-.5-.1-.7-.4-.7-.8s.3-.7.7-.7H3.8v-1.5H.9c-.6-.2-.9-.5-.9-.9s.3-.7.8-.7h3v-1.6h-3c-.5-.1-.8-.4-.8-.8s.2-.7.7-.7H3.8v-1.5c-.3 0-.6 0-.9-.1h-2c-.6 0-.9-.2-.9-.7 0-.4.2-.8.7-.8h3V10H.8c-.5-.1-.8-.4-.8-.8s.3-.7.8-.7h3V6.9h-3c-.5-.1-.8-.3-.8-.7 0-.4.2-.7.6-.8.2-.1.5 0 .7 0h2.3c.1-.5.2-1 .4-1.2.2-.3.7-.3 1.2-.4V2.1.9c.2-.6.5-.9.9-.9s.7.3.7.8v2.9h1.5v-1-2c0-.4.3-.7.7-.7.4 0 .7.2.8.7v3h1.5V1.5.7c.3-.4.5-.7 1-.7.4 0 .7.3.7.7V3.8h1.5V1.9.8c.1-.5.5-.8.9-.8s.7.3.7.7v3h1.5V1.5.7c.1-.4.4-.7.8-.7s.7.3.8.7V3.8h1.5V2.1.8c0-.5.4-.8.8-.7.4 0 .7.3.7.7v3zM5.4 5.4v22.9h22.9V5.4H5.4z"/>
    <path class="st0" d="M16.9 8.4h7.3c1 0 1.2.2 1.2 1.2V24c0 1.1-.2 1.3-1.2 1.3H9.8c-1.1 0-1.2-.2-1.2-1.3V9.7v-.3c0-.8.2-1 1-1h7.3zm6.8 15.3V10.1c-1.1-.2-13.1-.2-13.7 0v13.6h13.7z"/>
</symbol><symbol id="ico-cycle" viewBox="0 0 41.9 35.2">
    <style>
        .st0{fill:#262e39}
    </style>
    <path class="st0" d="M23.6 35c-9.5 1.6-17.9-5.2-19.5-13.7 0-.2-.1-.3-.2-.7-.6.8-1.2 1.5-1.7 2.2-.2.2-.4.5-.6.7-.4.4-.9.4-1.3 0-.3-.3-.4-.8-.2-1.2.1-.1.2-.3.3-.4 1.2-1.5 2.3-2.9 3.5-4.4.5-.6 1-.7 1.6-.2 1.5 1.2 2.9 2.3 4.3 3.5.2.1.3.3.5.5.2.3.2.7 0 1-.3.4-.6.5-1.1.3-.2-.1-.4-.3-.6-.4-.7-.5-1.4-1.1-2-1.6-.2-.1-.4-.3-.7-.5.5 3.9 2.1 6.9 4.8 9.4 7.6 6.8 20.6 4.6 24.6-6.2l.3-.9c.2-.4.7-.6 1.1-.4.4.2.6.5.6.9 0 .2-.1.5-.2.7-2.4 6.3-6.9 10.2-13.5 11.4"/>
    <path class="st0" d="M38 15l1.7-1.7c.2-.2.4-.5.7-.6.5-.4 1-.3 1.3 0 .3.4.3.8 0 1.3-.2.2-.4.4-.6.7l-3 3c-.6.6-.9.6-1.6.2-1.4-.8-2.8-1.7-4.1-2.5-.8-.5-1-1-.7-1.5.3-.5.9-.6 1.6-.2.9.6 1.8 1.1 2.9 1.7-.1-.5-.1-.9-.2-1.2C34.7 7.7 29.4 2.8 22.9 2 15.5 1.1 9 5.2 6.5 12.2c-.1.2-.1.4-.2.6-.2.4-.6.6-1.1.5-.5-.1-.8-.5-.7-1.1 0-.2.1-.4.2-.5C7.2 5.2 11.8 1.3 18.7.2c9.1-1.4 17.7 5.2 19.2 14.2-.1.1 0 .2.1.6z"/>
</symbol><symbol id="ico-doc-doc" viewBox="0 0 27 37">
    <style>
        .st0{fill:#262e39}
    </style>
    <path class="st0" d="M26.9 37H0V.1C.3.1.5 0 .7 0h12.4c.5 0 .9.1 1.2.5 4 4.1 8.1 8.1 12.2 12.2.3.3.5.7.5 1.1v22.5c0 .2-.1.4-.1.7zM12.3 1.6H1.6c-.2 1.3-.2 33.2 0 33.8 1.6.2 23.1.1 23.8-.1V13.8H12.3V1.6zm1.6 10.6c.9.2 9.2.2 9.7 0-3.2-3.2-6.4-6.5-9.7-9.7v9.7z"/>
    <path class="st0" d="M10 23.7v8.5h-.9v-1c-.3.6-1 1.1-2 1.1-1.4 0-2.5-1.2-2.5-3 0-1.9 1.2-3.1 2.6-3.1.9 0 1.5.4 1.8.9v-3.5h1zm-1.1 5.1v-.4c-.2-.7-.7-1.2-1.5-1.2-1.1 0-1.7 1-1.7 2.2 0 1.2.6 2.1 1.7 2.1.7 0 1.4-.5 1.5-1.3v-1.4z"/>
    <path class="st0" d="M17 29.2c0 2.1-1.5 3.1-2.9 3.1-1.6 0-2.8-1.2-2.8-3 0-1.9 1.3-3.1 2.9-3.1 1.7.1 2.8 1.3 2.8 3zm-4.6.1c0 1.3.7 2.2 1.8 2.2 1 0 1.8-.9 1.8-2.3 0-1-.5-2.2-1.7-2.2-1.4.1-1.9 1.2-1.9 2.3z"/>
    <path class="st0" d="M22.5 32c-.3.1-.9.3-1.7.3-1.8 0-2.9-1.2-2.9-3s1.2-3.1 3.1-3.1c.6 0 1.2.2 1.5.3l-.2.8c-.3-.1-.6-.3-1.2-.3-1.3 0-2.1 1-2.1 2.2 0 1.3.9 2.2 2 2.2.6 0 1-.2 1.3-.3l.2.9z"/>
</symbol><symbol id="ico-doc-pdf" viewBox="0 0 27 37">
    <style>
        .st0{fill:#262e39}
    </style>
    <path class="st0" d="M26.9 37H0V.1C.3.1.5 0 .7 0h12.4c.5 0 .9.1 1.2.5 4 4.1 8.1 8.1 12.2 12.2.3.3.5.7.5 1.1v22.5c0 .2-.1.4-.1.7zM12.3 1.6H1.6c-.2 1.3-.2 33.2 0 33.8 1.6.2 23.1.1 23.8-.1V13.8H12.3V1.6zm1.6 10.6c.9.2 9.2.2 9.7 0-3.2-3.2-6.4-6.5-9.7-9.7v9.7z"/>
    <path class="st0" d="M5.5 28.3v-1.9h.9v1c.4-.7 1.1-1.1 2.1-1.1 1.4 0 2.5 1.2 2.5 3 0 2.1-1.3 3.1-2.6 3.1-.8 0-1.4-.3-1.8-.9v3.2h-1v-6.4zm1 1.5v.4c.2.7.8 1.2 1.6 1.2 1.1 0 1.8-.9 1.8-2.2 0-1.2-.6-2.2-1.7-2.2-.7 0-1.4.5-1.6 1.3 0 .1-.1.3-.1.4v1.1z"/>
    <path class="st0" d="M17.3 23.7v8.5h-.9v-1c-.3.6-1 1.1-2 1.1-1.4 0-2.5-1.2-2.5-3 0-1.9 1.2-3.1 2.6-3.1.9 0 1.5.4 1.8.9v-3.5h1zm-1 5.1v-.4c-.2-.7-.7-1.2-1.5-1.2-1.1 0-1.7 1-1.7 2.2 0 1.2.6 2.1 1.7 2.1.7 0 1.4-.5 1.5-1.3v-1.4z"/>
    <path class="st0" d="M19.2 32.2v-5h-.8v-.8h.8v-.3c0-.8.2-1.6.7-2 .4-.4.9-.5 1.4-.5.4 0 .7.1.9.2l-.2.7c-.2-.1-.4-.1-.7-.1-.9 0-1.1.8-1.1 1.7v.3h1.4v.8h-1.4v5h-1z"/>
</symbol><symbol id="ico-doc-star" viewBox="0 0 31 36.9">
    <style>
        .st0{fill:#262e39}
    </style>
    <path class="st0" d="M0 18.4V2.9 2C.1.9.9.2 2 0h16.7c1 0 1.8.3 2.6 1.1C24.1 4 27.1 6.9 30 9.8c.7.7 1 1.4 1 2.4V35c-.1 1-.9 1.7-1.9 1.8h-27c-1.1-.1-1.9-.9-2-2V34C0 28.9 0 23.7 0 18.4zM19.2 1.5H2.4c-.7 0-.9.2-1 .9v32.4c0 .4.3.7.7.7H28.7c.5 0 .7-.3.8-.8v-.6-21.3c0-.3 0-.6-.1-1H21.6c-.5 0-1.1-.1-1.5-.4-.8-.4-1-1.2-1-2V2.6c.1-.3.1-.7.1-1.1zm9.1 8.8c-1.4-1.7-7-7.2-7.7-7.5V9.2c0 1.1.2 1.2 1.2 1.2h5.7c.2-.1.5-.1.8-.1z"/>
    <path class="st0" d="M15.5 26.1c-.9.5-1.7.9-2.6 1.4-.2.1-.5.3-.7.4-.6.2-1 0-1-.6s.2-1.2.2-1.8c.1-.7.4-1.5.2-2.1-.2-.6-.9-1.1-1.4-1.6-.3-.4-.7-.7-1-1.1-.6-.7-.4-1.2.4-1.4.9-.2 1.9-.3 2.8-.4.5-.1.8-.2 1-.7.3-.8.7-1.5 1.1-2.3.1-.2.2-.3.2-.5.1-.3.3-.7.7-.6.3.1.5.3.7.6.4.7.7 1.4 1.1 2.2.6 1.2.6 1.2 1.9 1.4.6.1 1.3.2 1.9.3.4.1.9.1 1.1.6.1.5-.2.7-.5 1-.6.6-1.1 1.2-1.7 1.7-.6.5-.7 1-.5 1.7.2.9.3 1.8.5 2.7.1.4.1.7-.2.9-.3.3-.6.1-.9-.1-1.2-.5-2.2-1.1-3.3-1.7zm2.6-.2c-.1-.9-.1-1.5-.3-2.1-.2-.7 0-1.2.6-1.7.5-.4.9-.9 1.5-1.5-1.1-.2-2.1-.3-3-.5-.4-.9-.8-1.7-1.3-2.7-.5 1-.9 1.9-1.3 2.7-1 .2-1.9.3-3 .5.6.6 1.1 1.2 1.7 1.7.4.4.5.8.4 1.3-.1.7-.2 1.4-.4 2.3 1-.5 1.8-1 2.7-1.4.6.4 1.5.9 2.4 1.4z"/>
</symbol><symbol id="ico-doc-zip" viewBox="0 0 27 37">
    <style>
        .st0{fill:#262e39}
    </style>
    <path class="st0" d="M26.9 37H0V.1C.3.1.5 0 .7 0h12.4c.5 0 .9.1 1.2.5 4 4.1 8.1 8.1 12.2 12.2.3.3.5.7.5 1.1v22.5c0 .2-.1.4-.1.7zM12.3 1.6H1.6c-.2 1.3-.2 33.2 0 33.8 1.6.2 23.1.1 23.8-.1V13.8H12.3V1.6zm1.6 10.6c.9.2 9.2.2 9.7 0-3.2-3.2-6.4-6.5-9.7-9.7v9.7z"/>
    <path d="M6.4 31.6L9 28.2c.3-.3.5-.6.8-.9H6.6v-.9H11v.7l-2.6 3.4c-.2.2-.4.5-.7.8h3.4v.8H6.4v-.5z"/>
    <path d="M13.3 24.8c0 .4-.3.6-.7.6-.4 0-.6-.3-.6-.6 0-.4.3-.7.7-.7.4 0 .6.3.6.7zm-1.1 7.4v-5.8h1.1v5.8h-1.1z"/>
    <path d="M15 28.3v-1.9h.9v1c.4-.7 1.1-1.1 2.1-1.1 1.4 0 2.5 1.2 2.5 3 0 2.1-1.3 3.1-2.6 3.1-.8 0-1.4-.3-1.8-.9v3.2h-1v-6.4zm1 1.5v.4c.2.7.8 1.2 1.6 1.2 1.1 0 1.8-.9 1.8-2.2 0-1.2-.6-2.2-1.7-2.2-.7 0-1.4.5-1.6 1.3 0 .1-.1.3-.1.4v1.1z"/>
</symbol><symbol id="ico-doc" viewBox="0 0 27 37">
    <style>
        .st0{fill:#262e39}
    </style>
    <path class="st0" d="M26.9 37H0V.1C.3.1.5 0 .7 0h12.4c.5 0 .9.1 1.2.5 4 4.1 8.1 8.1 12.2 12.2.3.3.5.7.5 1.1v22.5c0 .2-.1.4-.1.7zM12.3 1.6H1.6c-.2 1.3-.2 33.2 0 33.8 1.6.2 23.1.1 23.8-.1V13.8H12.3V1.6zm1.6 10.6c.9.2 9.2.2 9.7 0-3.2-3.2-6.4-6.5-9.7-9.7v9.7z"/>
</symbol><symbol id="ico-docs" viewBox="0 0 28 37.2">
    <style>
        .st0{fill:#262e39}
    </style>
    <path class="st0" d="M24.8 34.2v2c0 .7-.2.9-.9 1H1.6c-1.6 0-1.7-.1-1.7-1.7C0 25.2 0 15 0 4.7c0-1.5.1-1.6 1.6-1.6h1.5V2c0-2-.1-2 2.1-2h13.7c.6 0 1 .2 1.5.6 2.3 2.3 4.6 4.7 7 7 .3.4.6.8.6 1.4v23.8c0 1.1-.2 1.2-1.2 1.3h-1.6c-.1 0-.2.1-.4.1zM4.7 1.6c-.1 1.5-.1 30.2.1 30.9h21.5c.2-1.1.1-22.5-.1-23.2h-6.1c-1.4 0-1.5-.2-1.5-1.5V2.4c0-.3 0-.5-.1-.8H4.7zm18.5 32.5H3.9c-.5-.1-.7-.3-.7-.8v-.8V5.9 4.8H1.6v30.8c1.1.2 21 .2 21.7 0-.1-.5-.1-1-.1-1.5zm-3-26.5c1.1.2 4.3.2 4.9-.1-1.5-1.8-4.2-4.4-4.9-4.6v4.7z"/>
    <path class="st0" d="M23.2 26.4v1.3c-.7.2-14.5.2-15.4 0v-1.3c.7-.1 13.9-.1 15.4 0z"/>
    <path class="st0" d="M23.2 21.8v1.3c-.7.2-14.5.2-15.4 0v-1.3c.7-.1 13.7-.2 15.4 0z"/>
    <path class="st0" d="M7.8 18.5v-1.4h15.4v1.4H7.8z"/>
    <path class="st0" d="M23.2 12.5c0 .2 0 .4.1.5v.7c-.7.3-14.5.3-15.5.1v-1.3c.7-.1 14.5-.2 15.4 0z"/>
    <path class="st0" d="M7.8 9.2V7.8h7.6v1.3c-.6.2-6.4.3-7.6.1z"/>
</symbol><symbol id="ico-email" viewBox="0 0 49 35">
    <title>
        email@2x
    </title>
    <g fill-rule="evenodd">
        <path d="M44.49 0c2.338 0 4.13 1.781 4.13 3.813v1.272l-5.402 3.813-19.067 13.029L5.402 8.897v26.059h-1.27C1.791 34.956 0 33.175 0 31.143V3.813C0 1.783 1.793.001 4.131 0l20.02 14.936L44.49 0z" fill-rule="nonzero"/>
        <path d="M48.62 5.085v26.058c-.092 2.737-1.316 3.765-5.402 3.813V8.898l5.403-3.813z" fill-rule="nonzero"/>
        <path d="M3.813 0h40.765v5.461H3.813z"/>
        <path d="M4.767 29.554h38.451v5.402H4.767z"/>
    </g>
</symbol><symbol id="ico-empty-doc" viewBox="0 0 27 37">
    <style>
        .st0{fill:#262e39}
    </style>
    <path class="st0" d="M26.9 37H0V.1C.2.1.5 0 .7 0h12.5c.5 0 .8.1 1.1.5l12.2 12.2c.3.3.5.6.5 1v22.8c0 .1-.1.3-.1.5zM1.5 35.4h23.8c.2-1.2.1-20.8-.1-21.6H12.3v-3.2-3-3.1-3c-1.3 0-10.1 0-10.8.2v33.7zm12.4-23.1c1.5.2 9.2.1 9.7 0-3.2-3.2-6.4-6.5-9.7-9.7v9.7z"/>
</symbol><symbol id="ico-eye" viewBox="0 0 47.4 30.5">
    <style>
        .st0{fill:#262e39}
    </style>
    <path class="st0" d="M0 14.8c.1-.1.1-.2.2-.3C3.8 9.9 8 5.9 13.1 3 15.7 1.5 18.4.5 21.4.1c3.7-.5 7.3.2 10.7 1.8 4.1 1.8 7.5 4.5 10.7 7.6 1.7 1.6 3.2 3.4 4.6 5.2-.1.1-.1.3-.2.3-3.3 4.5-7.2 8.5-12 11.6-2.5 1.6-5.2 2.8-8.1 3.4-3.7.8-7.3.2-10.8-1.2-3.7-1.5-6.8-3.9-9.7-6.6-2.2-2-4.2-4.3-6-6.7-.2-.1-.4-.4-.6-.7zm2 0c2.4 3.2 5 5.9 8 8.3 1.9 1.6 4 2.9 6.3 4 3.4 1.6 6.9 2.2 10.7 1.4 2.4-.5 4.5-1.4 6.6-2.7 4.6-2.8 8.3-6.5 11.6-10.6.1-.1.1-.2.2-.4-1.4-1.4-2.7-2.9-4.1-4.3-2.9-2.8-6.2-5.3-9.9-7-4.9-2.2-9.8-2.3-14.8-.2C12.7 5 9.3 7.5 6.3 10.5c-1.5 1.3-2.8 2.8-4.3 4.3z"/>
    <path class="st0" d="M34 15.2c0 5.7-4.6 10.4-10.3 10.4-5.7 0-10.4-4.6-10.4-10.4 0-5.7 4.6-10.4 10.3-10.4C29.4 4.8 34 9.4 34 15.2zm-10.4 8.6c4.8 0 8.6-3.8 8.7-8.6 0-4.8-3.8-8.7-8.5-8.7-4.8-.1-8.7 3.9-8.7 8.7-.1 4.7 3.8 8.6 8.5 8.6z"/>
    <path class="st0" d="M27 15.1c0 1.9-1.5 3.5-3.5 3.5-1.9 0-3.5-1.6-3.5-3.5s1.5-3.5 3.5-3.5c1.9 0 3.5 1.5 3.5 3.5zm-1.7 0c0-1-.7-1.8-1.7-1.8s-1.8.8-1.8 1.7c0 1 .8 1.8 1.7 1.8 1 .1 1.8-.7 1.8-1.7z"/>
</symbol><symbol id="ico-flash" viewBox="0 0 32.1 38.4">
    <style>
        .st0{fill:#262e39}
    </style>
    <path class="st0" d="M32.1.1v38.4H.2c-.2-.8-.3-7.5-.1-8.8H6.4v-4.8H.1c0-.3-.1-.5-.1-.7V9.8c0-.5.1-.8.4-1.1C3 6 5.6 3.2 8.2.5c.4-.4.7-.5 1.1-.5h22.1c.2 0 .4 0 .7.1zM8 31.3H1.7v5.5c1.5.2 28.1.1 28.8-.1V1.5H10.2c-.6 0-.9.2-1.3.5C6.6 4.5 4.3 6.9 2 9.3c-.3.3-.4.6-.4 1.1v12.3c0 .2.1.4.1.7h6.2c.1 2.6.1 5.1.1 7.9z"/>
    <path class="st0" d="M27.2 9.5h-1.5V3.2h1.5v6.3z"/>
    <path class="st0" d="M17.7 9.5V3.2h1.5v6.3h-1.5z"/>
    <path class="st0" d="M21.8 9.5V3.2h1.4v6.3h-1.4z"/>
    <path class="st0" d="M15.2 9.6h-1.5V3.3h1.5v6.3z"/>
</symbol><symbol id="ico-garbage" viewBox="0 0 34.1 38.3">
    <style>
        .st0{fill:#262e39}
    </style>
    <path class="st0" d="M29.5 9H31v.8c-.5 4.5-1 8.9-1.6 13.4-.5 3.9-.9 7.8-1.4 11.7-.2 1.9-1.6 3.3-3.5 3.4h-14c-.6 0-1.1 0-1.7-.1-1.5-.5-2.4-1.5-2.7-3-.3-2-.5-3.9-.7-5.9-.5-4-.9-8.1-1.4-12.1-.3-2.3-.5-4.7-.8-7 0-.3 0-.7-.1-1.1h1.5c.1 1.2.3 2.3.4 3.5.5 4.6 1.1 9.1 1.6 13.7.3 2.8.7 5.6 1 8.4.2 1.5 1 2.2 2.5 2.2H24c1.6 0 2.4-.7 2.5-2.3l1.2-10.2c.5-4 .9-8.1 1.4-12.1.2-1.2.3-2.2.4-3.3z"/>
    <path class="st0" d="M0 6.6V5.2c3.3-.1 6.6 0 9.9-.1 0-.4 0-.7.1-1 .2-2.2 2-4 4.2-4.1h5.1c2.6.1 4.3 1.9 4.4 4.4V5H34v1.5c-11.2.1-22.6.1-34 .1zm11.6-1.5h10.6c.2-2.2-1.1-3.5-3.1-3.5h-4.5c-2 0-3.3 1.5-3 3.5z"/>
    <path class="st0" d="M17.8 34.8h-1.4V10.3h1.4v24.5z"/>
    <path class="st0" d="M22.8 34.9c-.5-.1-1-.1-1.5-.1.7-8.2 1.3-16.2 1.9-24.4h1.5c-.6 8.1-1.2 16.2-1.9 24.5z"/>
    <path class="st0" d="M9.6 10.3h1.5c.5 8.1 1.1 16.2 1.6 24.4-.5 0-1 .1-1.5.1-.5-8.1-1-16.3-1.6-24.5z"/>
</symbol><symbol id="ico-half-time" viewBox="0 0 35.2 35.2">
    <style>
        .st0{fill:#262e39}
    </style>
    <path class="st0" d="M18.2 1.3V8.8c0 .5-.3.8-.7.7-.4 0-.6-.3-.7-.8v-.4V1c0-1 .2-1.1 1.1-1.1C26.5.1 33.8 6.7 35 15.2c1.3 9.2-4.8 17.5-13.4 19.6C11.9 37.1 2.1 30.8.3 21-.8 15.2.7 10.1 4.6 5.7l.6-.6c.3-.2.6-.2.8.1.2.2.2.6.1.8-.1.2-.3.4-.5.6C1.4 11.5.2 17 2.3 23c2.1 6 6.5 9.6 12.8 10.7 9 1.5 17.4-5 18.6-14.1 1.1-8.7-5-16.8-13.7-18.1-.5-.1-1.1-.1-1.8-.2z"/>
    <path class="st0" d="M9.4 9.3c2.2 1.7 4.5 3.4 6.7 5.1.8.6 1.5 1.1 2.3 1.8.6.5.7 1.2.4 1.9-.3.6-1 1-1.7.8-.3-.1-.7-.2-.9-.5l-6.9-9 .1-.1z"/>
</symbol><symbol id="ico-heart" viewBox="0 0 46.9 43.7">
    <style>
        .st0{fill:#262e39}
    </style>
    <path class="st0" d="M23.3 43.7c-1.3-1.2-2.6-2.4-3.9-3.5-4.1-3.7-8.3-7.5-12.4-11.3C3.3 25.6.9 21.5.2 16.5-.6 10.7 1.3 5.7 6 2.2c5-3.7 11.9-2.6 15.9 2.2.3.4.6.7.9 1.1.4.5.7.5 1.1 0 .1-.2.2-.4.3-.5C26.7 1.9 29.9.2 33.8.1c3.1-.1 5.9 1 8.2 3.1 2.7 2.4 4.2 5.5 4.7 9.1.6 4.4-.7 8.3-2.9 11.9-1.1 1.8-2.5 3.5-4.1 4.9-5.3 4.7-10.5 9.4-15.8 14.1-.1.1-.3.2-.6.5zm3-20.3c.1-.4.2-.6.2-.8.9-4.4 1.9-8.8 2.8-13.2.1-.2.1-.5.2-.7.2-.2.4-.4.7-.5.4-.1.7.1.8.5.1.2.1.4.1.5.6 4 1.3 8 1.9 12l.6 3.6c.1.1.2.1.3.1h7c.4 0 .6-.1.8-.4 2.5-3.6 4.1-7.5 3.5-12-.3-2.4-1.1-4.6-2.6-6.6C38.6.8 32 .7 27.9 3.8c-1 .7-1.8 1.6-2.5 2.6-1.1 1.4-3 1.4-4.1 0-.2-.2-.4-.5-.6-.7C16.7.6 8.9.6 4.9 5.5c-2.7 3.2-3.6 6.9-3 11 .4 2.9 1.6 5.5 3.3 7.9.2.3.4.6.8.6h3.4c.2-.4.4-.8.5-1.1 1.1-2.5 2.3-5 3.4-7.4.1-.2.2-.5.3-.7.4-.6 1.1-.6 1.5 0 .1.2.2.4.2.6 1.3 3.4 2.7 6.7 4 10.1.1.2.2.5.4.8 1.1-2 2.1-3.8 3.1-5.6.1-.2.2-.4.4-.6.4-.5 1-.5 1.4-.1.2.2.3.4.4.6.5.5.8 1.1 1.3 1.8zm-2.2-.3c-.3.4-.4.7-.6 1-.9 1.7-1.9 3.4-2.8 5.1l-.3.6c-.4.5-1.1.4-1.4-.1-.1-.2-.2-.5-.3-.7-1.3-3.2-2.6-6.4-3.8-9.6-.1-.3-.3-.7-.5-1.1-.2.4-.4.7-.5 1-1 2.1-2 4.3-2.9 6.4-.3.6-.6.9-1.3.8H7.5c.4.7 14.9 13.9 16 14.7 1.2-.8 15.8-13.9 16.2-14.7h-6.5c-.7 0-.9-.2-1-.8 0-.1-.1-.3-.1-.5-.4-2.5-.8-5.1-1.2-7.6-.2-1.1-.4-2.3-.6-3.4-.2.2-.3.5-.3.7-.7 3.4-1.4 6.7-2.1 10.1-.1.2-.1.5-.2.7-.1.4-.3.8-.8.8-.4.1-.7-.1-.9-.5-.1-.2-.3-.4-.4-.6-.5-.6-1-1.4-1.5-2.3z"/>
</symbol><symbol id="ico-key" viewBox="0 0 45.5 24.7">
    <style>
        .st0{fill:#262e39}
    </style>
    <path class="st0" d="M22.8 0H44.4c.7 0 1 .3 1.1 1v22.5c-.1.8-.3 1.1-1.1 1.1H1.8c-1.7 0-1.8-.2-1.8-1.8V1.7 1C.1.3.4 0 1.1 0h21.7zM2 1.9C1.8 3.4 1.8 22 2 22.7h41.6V1.9H2z"/>
    <path class="st0" d="M22.9 17.1H30.3c.6 0 1 .4 1 .9s-.4.9-.9 1H15.2c-.5-.1-.8-.5-.7-.9 0-.5.4-.8.9-.9h.6c2.2-.1 4.5-.1 6.9-.1z"/>
    <path class="st0" d="M8.6 9.5c-.6 0-1-.4-1-1 0-.5.5-.9 1.1-.9.6 0 .9.4.9.9.1.6-.4 1-1 1z"/>
    <path class="st0" d="M20 9.5c-.6 0-1-.4-1-.9s.4-.9.9-.9c.6 0 1.1.3 1.1.9.1.4-.4.9-1 .9z"/>
    <path class="st0" d="M37 9.5c-.6 0-1-.4-1-1s.5-.9 1.1-.9c.6 0 .9.4.9.9.1.6-.4 1-1 1z"/>
    <path class="st0" d="M29.5 13.3c-.6 0-1-.4-1-1 0-.5.5-.9 1.1-.9.6 0 .9.4.9.9 0 .6-.4 1-1 1z"/>
    <path class="st0" d="M18.1 11.4c.6 0 1 .4 1 1 0 .5-.4.9-1 .9s-1-.4-1.1-.9c.1-.6.6-1 1.1-1z"/>
    <path class="st0" d="M25.7 9.5c-.6 0-1-.4-1-.9s.4-.9.9-.9c.6 0 1.1.4 1.1.9 0 .4-.4.9-1 .9z"/>
    <path class="st0" d="M35.2 11.4c.6 0 1 .4 1 .9s-.4.9-1 .9-1-.4-1-.9c-.1-.5.4-.9 1-.9z"/>
    <path class="st0" d="M12.4 13.3c-.6 0-1-.5-1-1s.5-.9 1.1-.9c.6 0 .9.4.9.9 0 .6-.4 1-1 1z"/>
    <path class="st0" d="M23.8 13.3c-.6 0-1-.4-1-1 0-.5.5-.9 1.1-.9.6 0 .9.4.9.9 0 .6-.4 1-1 1z"/>
    <path class="st0" d="M31.3 7.6c.6 0 1 .4 1 .9s-.4.9-.9 1c-.6 0-1.1-.3-1.1-.9 0-.6.5-1 1-1z"/>
    <path class="st0" d="M14.3 9.5c-.6 0-1-.4-1-1 0-.5.4-.9 1-.9s1 .4 1 .9c0 .6-.4 1-1 1z"/>
</symbol><symbol id="ico-like" viewBox="0 0 27.2 29.7">
    <style>
        .st0{fill:#262e39}
    </style>
    <path class="st0" d="M13 10h9.8c2.1.2 3.3 2.1 2.6 4.1-.1.2-.1.3-.2.5 2.8 1.7 2.4 4.5 0 5.8.5 1 .6 2.1 0 3.2s-1.7 1.4-2.9 1.6c.1.2.1.4.2.6.5 2-.7 3.8-2.8 3.9H9.9c-1.9 0-3.8-.3-5.6-.9C2.5 28.1 1 27 .1 25.3c.1-.3 0-.5-.1-.7-.1-.4 0-.7.4-.9.3-.2.7-.1 1 .2.1.1.1.2.1.2.9 1.9 2.4 2.9 4.3 3.4 1.2.3 2.4.5 3.7.5 3.3.1 6.7 0 10 0 1.3 0 1.8-.6 1.7-1.8-.1-.7-.5-1.1-1.2-1.2h-1.2c-.6 0-.9-.3-.9-.8s.3-.8.9-.8h4c1.2-.1 1.9-1.1 1.3-2.2-.2-.5-.6-.7-1.1-.7h-3c-.3 0-.6 0-.8-.1-.4-.1-.6-.4-.6-.8s.2-.6.6-.7H24.3c1 0 1.4-.5 1.5-1.4 0-1-.4-1.6-1.5-1.6h-4.6c-.4.1-.7-.1-.7-.5s.2-.8.7-.8h3.1c.9 0 1.3-.5 1.4-1.4 0-.9-.4-1.4-1.3-1.5H12.4c-.9 0-1.2-.3-1-1.2.2-1.5.5-3 .8-4.5.1-.4.2-.9.2-1.3 0-.6 0-1.3-.2-1.9-.2-.7-.7-1-1.5-1.1-.6 0-.9.1-1.1.8 0 .2-.1.7-.1 1.1 0 .7-.2 1.3-.6 1.8-.5.8-1 1.5-1.6 2.2C6 9 4.5 10.2 3 11.2c-.2.1-.4.3-.7.3-.3.1-.7-.1-.7-.4-.1-.2 0-.6.1-.8.1-.2.4-.3.6-.5C3.4 9 4.5 8.1 5.6 7.2c.7-.6 1.3-1.4 1.8-2.1.4-.5.6-1.1.6-1.8 0-.5.1-1 .3-1.4.6-1.7 2-2.3 3.6-1.6.6.3 1.1.8 1.5 1.4.5 1 .7 2.1.5 3.2-.3 1.5-.6 3-.8 4.5 0 .1 0 .3-.1.6z"/>
</symbol><symbol id="ico-logotype" viewBox="0 0 259 65">
    <style>
        .st0{fill:#8dc63f}.st1{fill:url(#SVGID_1_)}.st2{fill:url(#SVGID_2_)}.st3{fill:url(#SVGID_3_)}.st4{fill:#e6e7e8}.st5{fill:#476320}.st6{fill:#2f3646}.st7{fill:#415168}.st8{fill:url(#SVGID_4_)}.st9{fill:url(#SVGID_5_)}.st10{fill:url(#SVGID_6_)}.st11{fill:url(#SVGID_7_)}.st12{fill:url(#SVGID_8_)}.st13{fill:url(#SVGID_9_)}.st14{fill:url(#SVGID_10_)}.st15{fill:url(#SVGID_11_)}.st16{fill:url(#SVGID_12_)}.st17{fill:url(#SVGID_13_)}.st18{fill:url(#SVGID_14_)}.st19{fill:#a4ff00}.st20{fill:#6a952f}.st21{fill:url(#SVGID_15_)}.st22{fill:url(#SVGID_16_)}.st23{fill:url(#SVGID_17_)}.st24{fill:url(#SVGID_18_)}.st25{fill:#d1d3d4}.st26{fill:url(#SVGID_19_)}.st27{opacity:.6;fill:url(#SVGID_20_)}.st28{fill:url(#SVGID_21_)}.st29{fill:url(#SVGID_22_)}.st30{fill:url(#SVGID_23_)}.st31{fill:#759933}.st32{fill:url(#SVGID_24_)}.st33{fill:url(#SVGID_25_)}.st34{fill:url(#SVGID_26_)}.st35{fill:url(#SVGID_27_)}.st36{fill:url(#SVGID_28_)}.st37{fill:url(#SVGID_29_)}.st38{fill:url(#SVGID_30_)}.st39{fill:url(#SVGID_31_)}.st40{fill:url(#SVGID_32_)}.st41{fill:url(#SVGID_33_)}.st42{fill:url(#SVGID_34_)}.st43{fill:url(#SVGID_35_)}.st44{fill:url(#SVGID_36_)}.st45{fill:url(#SVGID_37_)}.st46{fill:#528000}.st47{fill:#8996a1}.st48{fill:#c4cbd0}
    </style>
    <path class="st0" d="M14 18.6s.1-6.3 19 11.4c15.5 14.5 12.2 16.1 12.2 16.1s5.7 1.7 3.6-3.7-11.8-16-20-22.3c-9.1-7-17.7-8.8-14.8-1.5z"/>
    <linearGradient id="SVGID_1_" gradientUnits="userSpaceOnUse" x1="20.732" y1="22.822" x2="42.195" y2="22.822">
        <stop offset="0" stop-color="#415168"/>
        <stop offset=".269" stop-color="#2f3646"/>
        <stop offset=".532" stop-color="#9fa4ae"/>
        <stop offset=".774" stop-color="#e3ebf1"/>
        <stop offset="1" stop-color="#a7b6c7"/>
    </linearGradient>
    <path class="st1" d="M20.7 15.5s12 6.8 20.2 16.3l1.3-2.1s-7.1-9.3-18.8-16l-2.7 1.8z"/>
    <linearGradient id="SVGID_2_" gradientUnits="userSpaceOnUse" x1="-14.033" y1="-10.318" x2="59.536" y2="54.001">
        <stop offset="0" stop-color="#415168"/>
        <stop offset=".269" stop-color="#2f3646"/>
        <stop offset=".532" stop-color="#9fa4ae"/>
        <stop offset=".774" stop-color="#e3ebf1"/>
        <stop offset="1" stop-color="#a7b6c7"/>
    </linearGradient>
    <path class="st2" d="M45.5 46.2s7.9 2.1 0-8.9l-.6.9s7.2 8.9.6 8z"/>
    <linearGradient id="SVGID_3_" gradientUnits="userSpaceOnUse" x1="-10.146" y1="-12.813" x2="62.456" y2="50.661">
        <stop offset="0" stop-color="#415168"/>
        <stop offset=".269" stop-color="#2f3646"/>
        <stop offset=".532" stop-color="#9fa4ae"/>
        <stop offset=".774" stop-color="#e3ebf1"/>
        <stop offset="1" stop-color="#a7b6c7"/>
    </linearGradient>
    <path class="st3" d="M29.7 22.7s3.7 2.7 6.3 5.6l.5-.8s-4.3-4.3-6.1-5.4l-.7.6z"/>
    <path class="st4" d="M36.3 27.5c-2.7-2.8-6-5.2-6-5.3l.2-.3s3.4 2.4 6.1 5.3l-.3.3z"/>
    <path class="st5" d="M35.9 28.4c-3.5-3.6-6.2-5.6-6.3-5.6l.2-.2s2.8 2 6.3 5.6l-.2.2z"/>
    <path class="st5" d="M45 38.1s.4.4.9 1.1c.5.7 1.1 1.6 1.6 2.6.1.3.2.5.3.8.1.3.2.5.3.8 0 .1.1.3.1.4 0 .1.1.2.1.4v.8c0 .2-.1.4-.1.6-.1.2-.2.3-.2.4l-.2.2c-.1 0-.1.1-.1.1l.1-.1.2-.2c.1-.1.2-.2.2-.4.1-.2.1-.3.1-.5v-.2-.2-.3c0-.1 0-.2-.1-.4 0-.1-.1-.2-.1-.4-.1-.2-.2-.5-.3-.7-.1-.2-.2-.5-.4-.7-.5-1-1.2-1.9-1.7-2.6-.3-.3-.5-.6-.6-.8-.2-.2-.2-.3-.2-.3l.1-.4z"/>
    <path class="st6" d="M33.9 31c-3-2.9-6.3-5.6-6.3-5.6l.1-.1s3.2 2.8 6.3 5.6l-.1.1z"/>
    <path class="st6" d="M43.1 40.5s1 1.2 1.7 2.6c.2.3.3.7.5 1 .1.2.1.3.2.5 0 .2.1.3.1.5v.7c0 .1 0 .1-.1.2v0s0-.1.1-.2v-.3-.4c0-.1-.1-.3-.1-.4 0-.2-.1-.3-.2-.5-.1-.3-.3-.7-.5-1-.4-.7-.8-1.3-1.1-1.8-.5-.4-.7-.7-.7-.7l.1-.2z"/>
    <path class="st7" d="M14 18.6s1.1-4 15.8 9.2c8.8 8 12.9 13 14.4 15.7 1 1.8.6 2.5.1 2.5-1.2-.1 1.3 1.9 1.3-.7-.1-2.8-8-11.3-11.8-14.8S14.9 13.4 14 18.6z"/>
    <linearGradient id="SVGID_4_" gradientUnits="userSpaceOnUse" x1="37.477" y1="61.004" x2="54.269" y2="29.242">
        <stop offset="0" stop-color="#415168"/>
        <stop offset=".279" stop-color="#2f3646"/>
        <stop offset=".555" stop-color="#9fa4ae"/>
        <stop offset=".774" stop-color="#e3ebf1"/>
        <stop offset="1" stop-color="#a7b6c7"/>
    </linearGradient>
    <path class="st8" d="M42.2 29.8c-.3.6-.7 1.4-1.3 2.1 5.9 6.3 9.7 11.8 7.4 14-1.4 1.4-4.2.1-8.3-2.8 0 0-7.8 7.4-7.9 7.4 8.3 5.4 16.8 7.4 20.4 4 4.6-4.3-.5-14.7-10.3-24.7z"/>
    <linearGradient id="SVGID_5_" gradientUnits="userSpaceOnUse" x1="-12.968" y1="-10.621" x2="60.796" y2="53.869">
        <stop offset="0" stop-color="#415168"/>
        <stop offset=".269" stop-color="#2f3646"/>
        <stop offset=".532" stop-color="#9fa4ae"/>
        <stop offset=".774" stop-color="#e3ebf1"/>
        <stop offset="1" stop-color="#a7b6c7"/>
    </linearGradient>
    <path class="st9" d="M13.5 15.8s.5-2.4 6.3.3l.7-.7s-6.7-3.3-7 .4z"/>
    <radialGradient id="SVGID_6_" cx="31.392" cy="35.474" r="20.662" gradientUnits="userSpaceOnUse">
        <stop offset="0" stop-color="#a4ff00"/>
        <stop offset="1" stop-color="#7bbf00"/>
    </radialGradient>
    <ellipse class="st10" cx="32.7" cy="44.8" rx="1.4" ry="1.3"/>
    <path class="st5" d="M19.6 16.2c-.3-.1-.5-.3-.8-.4-.6-.3-1.3-.6-2.1-.8-.2-.1-.4-.1-.6-.1-.2 0-.4-.1-.6-.1H14.6c-.1 0-.2 0-.2.1-.1 0-.1.1-.2.1s-.1.1-.2.1l-.1.1-.1.1-.1.1v0s0-.1.1-.1l.1-.1.1-.1s.1-.1.2-.1.1-.1.2-.1.2-.1.2-.1c.1 0 .2 0 .3-.1h1.2c.2 0 .4.1.6.1.8.2 1.6.4 2.2.7.3.1.5.2.7.3l.2.1-.2.3z"/>
    <path class="st6" d="M17.5 18.2l-.6-.3c-.3-.1-.8-.3-1.3-.4h-.8c-.1 0-.2.1-.3.1l-.1.1-.1.1-.1.1s0 .1-.1.1c0 .1-.1.1-.1.2s-.1.2-.1.2v-.2s0-.1.1-.2c0 0 0-.1.1-.1l.1-.1.1-.1.1-.1c.1-.1.2-.1.3-.1.1 0 .2-.1.4-.1h.4c.5 0 1 .2 1.4.3.4.1.6.2.6.2v.3z"/>
    <linearGradient id="SVGID_7_" gradientUnits="userSpaceOnUse" x1="47.462" y1="47.144" x2="46.283" y2="43.109">
        <stop offset="0"/>
        <stop offset="1" stop-opacity="0"/>
    </linearGradient>
    <path class="st11" d="M44.6 45.9s2.6 1.4 3.9-.2-1.1-5.3-1.1-5.3l-3.2 3.4c.1-.1.8 1.3.4 2.1z"/>
    <linearGradient id="SVGID_8_" gradientUnits="userSpaceOnUse" x1="43.306" y1="38.203" x2="45.084" y2="44.668">
        <stop offset="0" stop-color="#415168"/>
        <stop offset="1" stop-color="#a7b6c7"/>
    </linearGradient>
    <path class="st12" d="M47 46.6c-2.6 0-6.3-2.9-6.5-3l.2-.3s3.8 2.9 6.2 2.9c.6 0 1.1-.2 1.4-.5 2-2-3-8.2-3-8.3l.3-.2c.2.3 5.2 6.5 3 8.7-.4.5-.9.7-1.6.7z"/>
    <linearGradient id="SVGID_9_" gradientUnits="userSpaceOnUse" x1="44.258" y1="37.995" x2="46.737" y2="40.474">
        <stop offset="0"/>
        <stop offset="1" stop-opacity="0"/>
    </linearGradient>
    <path class="st13" d="M42.6 41.2s2.3-2.7 4.3-6.1c0 0 1.5 1.8 2.4 3.2l-5.2 5s-.4-.7-.7-1.1c-.2-.3-.8-1-.8-1z"/>
    <linearGradient id="SVGID_10_" gradientUnits="userSpaceOnUse" x1="30.465" y1="23.101" x2="35.859" y2="28.495">
        <stop offset="0"/>
        <stop offset="1" stop-opacity="0"/>
    </linearGradient>
    <path class="st14" d="M33.7 31.5s2.8-3.6 4.1-6.7c0 0-2.6-2.5-4.2-3.9 0 0-3.1 1.2-6.3 4.7.1.1 5 4.5 6.4 5.9z"/>
    <linearGradient id="SVGID_11_" gradientUnits="userSpaceOnUse" x1="36.397" y1="28.613" x2="34.538" y2="27.081">
        <stop offset="0"/>
        <stop offset="1" stop-opacity="0"/>
    </linearGradient>
    <path class="st15" d="M33.7 31.5s3.1-4.1 4.1-6.7l-1.6-1.5-4.9 5.8c0 .1 2.2 2.1 2.4 2.4z"/>
    <linearGradient id="SVGID_12_" gradientUnits="userSpaceOnUse" x1="12.763" y1="16.733" x2="16.201" y2="16.089">
        <stop offset="0"/>
        <stop offset="1" stop-opacity="0"/>
    </linearGradient>
    <path class="st16" d="M16.2 18.2s-.5-3.2.5-4c0 0-4.4-1.3-2.7 4.4 0 0 .3-.9 2.2-.4z"/>
    <linearGradient id="SVGID_13_" gradientUnits="userSpaceOnUse" x1="43.166" y1="21.624" x2="15.609" y2="43.444">
        <stop offset="0" stop-color="#415168"/>
        <stop offset=".269" stop-color="#2f3646"/>
        <stop offset=".532" stop-color="#9fa4ae"/>
        <stop offset=".774" stop-color="#e3ebf1"/>
        <stop offset="1" stop-color="#a7b6c7"/>
    </linearGradient>
    <path class="st17" d="M23.1 44.2c-1.2 0-2.2-.3-3-1-3-2.7-1.1-9.7 4.5-16 5.6-6.3 12.3-9.1 15.3-6.4 3 2.7 1.1 9.7-4.5 16-4.1 4.7-8.9 7.4-12.3 7.4zM37 20.9c-3 0-7.7 2.7-11.5 7-5 5.6-7.1 12.2-4.6 14.4 2.5 2.2 8.8-.7 13.7-6.3 5-5.6 7.1-12.2 4.6-14.4-.6-.4-1.3-.7-2.2-.7z"/>
    <path class="st0" d="M17.9 22.7C11 30.9 8.7 40 12.6 43c1.8 1.4 4.5 1.3 7.6 0-.2-.1-.5-.1-.6-.3-1.8-3-.5-8.7 4.7-15 4.5-5.4 10.8-8.2 13.8-7.5.2.1.9.2 1 .4.6-3.2.1-5.8-1.7-7.1-3.9-3.1-12.6 1.1-19.5 9.2z"/>
    <linearGradient id="SVGID_14_" gradientUnits="userSpaceOnUse" x1="40.556" y1="19.579" x2="-.336" y2="67.824">
        <stop offset="0" stop-color="#415168"/>
        <stop offset=".269" stop-color="#2f3646"/>
        <stop offset=".532" stop-color="#9fa4ae"/>
        <stop offset=".774" stop-color="#e3ebf1"/>
        <stop offset="1" stop-color="#a7b6c7"/>
    </linearGradient>
    <path class="st18" d="M23 44.1c-1.1 0-2.1-.3-2.9-1-2.9-2.6-.9-9.7 4.5-15.9 2.6-3 5.6-5.3 8.5-6.5 2.9-1.2 5.3-1.2 6.7.1 1.4 1.3 1.8 3.6.9 6.7-.9 3-2.8 6.2-5.4 9.2l-.1-.1.1.1c-4 4.7-8.9 7.4-12.3 7.4zm14-23.9c-1.1 0-2.3.3-3.7.9-2.8 1.2-5.8 3.5-8.4 6.4-5.3 6-7.4 12.9-4.6 15.4.7.6 1.6.9 2.7.9 3.3 0 8.1-2.7 12.1-7.3 2.6-2.9 4.5-6.1 5.4-9.1.8-2.9.6-5.1-.8-6.3-.7-.6-1.6-.9-2.7-.9z"/>
    <path class="st19" d="M19.2 45.7c-1.6 0-3-.5-4.1-1.4-1.9-1.7-2.4-4.8-1.4-8.7 1-3.8 3.4-8 6.7-11.7 3.3-3.7 7.2-6.6 10.8-8.1 3.7-1.5 6.9-1.4 8.8.4 1.9 1.7 2.4 4.8 1.4 8.7-1 3.8-3.4 8-6.7 11.7-3.3 3.7-7.2 6.6-10.8 8.1-1.7.7-3.3 1-4.7 1zM36 15.3c-4.3 0-10.2 3.3-15.2 8.9-3.3 3.7-5.6 7.8-6.6 11.5s-.5 6.6 1.3 8.2c1 .9 2.3 1.3 3.8 1.3 4.3 0 10.2-3.3 15.2-8.9 6.7-7.5 9.1-16.4 5.3-19.7-1-.9-2.3-1.3-3.8-1.3z"/>
    <path class="st20" d="M18.9 45.7c-1.6 0-3-.4-4-1.4-1.9-1.7-2.4-4.8-1.4-8.7 1-3.9 3.4-8.1 6.8-11.9 3.4-3.8 7.3-6.7 11-8.2 3.8-1.5 6.9-1.4 8.8.3 1.9 1.7 2.4 4.8 1.4 8.7-1 3.9-3.4 8.1-6.8 11.9-5.2 5.9-11.3 9.3-15.8 9.3zM36 14.9c-1.4 0-2.9.3-4.6 1-3.7 1.5-7.5 4.3-10.8 8.1-3.3 3.7-5.7 7.9-6.7 11.7-1 3.8-.6 6.8 1.3 8.4 3.8 3.4 12.5-.1 19.3-7.8l.1.1-.1-.1c3.3-3.7 5.7-7.9 6.7-11.7 1-3.8.6-6.8-1.3-8.4-1-.9-2.3-1.3-3.9-1.3z"/>
    <path class="st19" d="M20.6 45.5c-1.5 0-2.7-.4-3.7-1.3-1.8-1.6-2.2-4.5-1.2-8.1 1-3.6 3.2-7.4 6.3-10.9 3.1-3.5 6.7-6.2 10.1-7.6 3.5-1.4 6.4-1.3 8.2.3 1.8 1.6 2.2 4.5 1.2 8.1-1 3.6-3.2 7.4-6.3 10.9-3.1 3.5-6.7 6.2-10.1 7.6-1.7.7-3.2 1-4.5 1zm16-28.3c-1.2 0-2.7.3-4.2 1-3.3 1.4-6.8 4-9.9 7.4-6.2 7-8.5 15.1-5.2 18.1 3.4 3 11.2-.3 17.4-7.3 3-3.4 5.2-7.2 6.2-10.7.9-3.4.6-6-1-7.4-.9-.7-2-1.1-3.3-1.1z"/>
    <path class="st20" d="M20.3 45.3c-1.4 0-2.7-.4-3.6-1.2-3.6-3.2-1.2-11.7 5.2-18.9 6.5-7.3 14.6-10.6 18.2-7.4 3.6 3.2 1.2 11.7-5.2 18.9l-.1-.1.1.1c-3.1 3.5-6.7 6.2-10.1 7.6-1.7.6-3.2 1-4.5 1zm16.2-28.5c-4 0-9.6 3.2-14.4 8.5-6.3 7.1-8.7 15.4-5.3 18.5 1.6 1.5 4.4 1.5 7.7.1 3.4-1.4 6.9-4.1 10-7.5 6.3-7.1 8.7-15.4 5.3-18.5-.8-.7-1.9-1.1-3.3-1.1z"/>
    <path class="st19" d="M22.1 44.9c-1.3 0-2.5-.4-3.3-1.1-1.6-1.4-2-4-1.1-7.3.9-3.2 3-6.8 5.8-10s6.1-5.7 9.2-6.9c3.2-1.3 5.8-1.2 7.4.2 1.6 1.4 2 4 1.1 7.3-.9 3.2-3 6.8-5.8 10s-6.1 5.7-9.2 6.9c-1.5.6-2.9.9-4.1.9zM36.9 19c-3.6 0-8.7 2.9-13 7.7-5.7 6.4-7.9 13.9-4.8 16.6 1.5 1.3 3.9 1.3 6.9.1 3-1.3 6.3-3.7 9-6.8 5.7-6.4 7.9-13.9 4.8-16.6-.7-.6-1.7-1-2.9-1z"/>
    <path class="st20" d="M21.8 44.8c-1.3 0-2.4-.4-3.2-1.1-1.6-1.4-1.9-4-1-7.3.9-3.3 3-6.8 5.9-10s6.2-5.7 9.3-7c3.2-1.3 5.8-1.3 7.4.1 1.6 1.4 1.9 4 1 7.3-.9 3.3-3 6.8-5.9 10-2.9 3.2-6.2 5.7-9.3 7-1.6.6-3 1-4.2 1zm15.1-26.1c-1.2 0-2.5.3-4 .9-3.1 1.3-6.3 3.8-9.2 6.9-2.8 3.2-4.9 6.7-5.8 9.9-.9 3.2-.6 5.6.9 7 1.5 1.3 4 1.3 7 .1 3.1-1.3 6.3-3.8 9.2-6.9 2.8-3.2 4.9-6.7 5.8-9.9.9-3.2.6-5.6-.9-7-.8-.7-1.8-1-3-1z"/>
    <path class="st5" d="M17.6 46.4c-1.8 0-3.4-.5-4.5-1.6-2.1-1.9-2.7-5.3-1.6-9.6 1.1-4.2 3.7-8.7 7.3-12.7 3.6-4 7.8-7.1 11.8-8.7 4.1-1.6 7.5-1.5 9.7.4s2.7 5.3 1.6 9.6c-1.1 4.2-3.7 8.7-7.3 12.7-3.6 4-7.8 7.1-11.8 8.7-1.9.8-3.6 1.2-5.2 1.2zm18.1-32.8c-1.4 0-3 .4-4.8 1.1-3.9 1.5-7.9 4.5-11.4 8.5-3.5 3.9-6 8.3-7.1 12.3-1 3.9-.6 6.9 1.3 8.6 1.9 1.7 4.9 1.7 8.7.3 3.9-1.5 7.9-4.5 11.4-8.5 3.5-3.9 6-8.3 7.1-12.3 1-3.9.6-6.9-1.3-8.6-1-.9-2.3-1.4-3.9-1.4z"/>
    <linearGradient id="SVGID_15_" gradientUnits="userSpaceOnUse" x1="42.47" y1="11.54" x2="4.649" y2="53.32">
        <stop offset="0" stop-color="#415168"/>
        <stop offset=".269" stop-color="#2f3646"/>
        <stop offset=".532" stop-color="#9fa4ae"/>
        <stop offset=".774" stop-color="#e3ebf1"/>
        <stop offset="1" stop-color="#a7b6c7"/>
    </linearGradient>
    <path class="st21" d="M17.3 46.1c-1.8 0-3.3-.5-4.5-1.5-2.1-1.9-2.7-5.3-1.5-9.5 1.1-4.1 3.7-8.6 7.3-12.6 3.6-4 7.7-7.1 11.7-8.7 4.1-1.6 7.5-1.5 9.6.4 2.1 1.9 2.7 5.3 1.5 9.5-1.1 4.1-3.7 8.6-7.3 12.6-3.6 4-7.7 7.1-11.7 8.7-1.8.7-3.5 1.1-5.1 1.1zm18.1-32.5c-1.4 0-3 .4-4.8 1.1-3.8 1.5-7.8 4.5-11.3 8.4-3.5 3.9-6 8.3-7 12.2-1 3.9-.6 6.9 1.3 8.5 1.8 1.6 4.9 1.7 8.6.2 3.8-1.5 7.8-4.5 11.3-8.4 3.5-3.9 6-8.3 7-12.2 1-3.9.6-6.9-1.3-8.5-1-.9-2.3-1.3-3.8-1.3z"/>
    <linearGradient id="SVGID_16_" gradientUnits="userSpaceOnUse" x1="15.382" y1="44.764" x2="16.19" y2="37.275">
        <stop offset="0"/>
        <stop offset="1" stop-opacity="0"/>
    </linearGradient>
    <path class="st22" d="M21.2 42.6s-2.5-1.3-.5-6.9c0 0-1.8-5.9-8.7-2.9 0 0-4.1 8.2 2 10.8-.1 0 2.4 1.1 7.2-1z"/>
    <linearGradient id="SVGID_17_" gradientUnits="userSpaceOnUse" x1="40.028" y1="14.696" x2="29.28" y2="20.514">
        <stop offset="0"/>
        <stop offset="1" stop-opacity="0"/>
    </linearGradient>
    <path class="st23" d="M39.2 21.7s-2.5-2.3-8.3 1.5c0 0-6.1-.8-5-7.2 0 0 7.8-6 12.4-1.9-.1 0 2.1 1.7.9 7.6z"/>
    <linearGradient id="SVGID_18_" gradientUnits="userSpaceOnUse" x1="144.57" y1="-119.776" x2="159.843" y2="-164.082" gradientTransform="matrix(.6804 -.8451 .7789 .6271 38.55 253.475)">
        <stop offset="0" stop-color="#415168"/>
        <stop offset=".269" stop-color="#2f3646"/>
        <stop offset=".532" stop-color="#9fa4ae"/>
        <stop offset=".774" stop-color="#e3ebf1"/>
        <stop offset="1" stop-color="#a7b6c7"/>
    </linearGradient>
    <path class="st24" d="M15.2 20.7C4.9 33 2.6 47.6 10 53.4s22 .4 32.3-11.9S55 14.6 47.5 8.9s-21.9-.5-32.3 11.8zm17 13C25.3 41.9 16.5 46 13 43.2c-3.9-3.1-2.8-11.8 5-20.5 7.2-7.9 15.5-12.3 19.5-9.2s1.5 12.1-5.3 20.2z"/>
    <path class="st25" d="M38.1 13.6c-.9-.8-2.1-1.2-3.6-1.2s-3.2.4-5.1 1.2c-3.7 1.6-7.6 4.7-11.1 8.5-3.4 3.9-6 8.2-7.2 12-1.2 3.9-.8 7 1 8.6.9.8 2.1 1.2 3.6 1.2s3.2-.4 5.1-1.2c3.7-1.6 7.6-4.7 11.1-8.5 3.4-3.9 6-8.2 7.2-12 1.2-3.9.8-6.9-1-8.6zm-.3.4c1.7 1.5 2 4.4.9 8.2-1.2 3.8-3.7 8-7.1 11.9-3.4 3.8-7.3 6.8-10.9 8.4-1.8.8-3.5 1.2-4.9 1.2-1.4 0-2.5-.4-3.3-1.1-3.6-3.2-.8-12.2 6.2-20.1 5.2-5.8 11.4-9.6 15.8-9.6 1.3-.1 2.4.3 3.3 1.1z"/>
    <linearGradient id="SVGID_19_" gradientUnits="userSpaceOnUse" x1="11.963" y1="26.208" x2="12.285" y2="33.199">
        <stop offset="0"/>
        <stop offset="1" stop-opacity="0"/>
    </linearGradient>
    <path class="st26" d="M7.6 33.2l.8 1.5 8.6-1-.1-3.2-6.9-2.6s-.7 1.4-1.4 2.7c-.4 1.1-.8 2.1-1 2.6z"/>
    <radialGradient id="SVGID_20_" cx="15.996" cy="10.467" r="6.556" gradientTransform="matrix(1 0 0 .9562 0 14.355)" gradientUnits="userSpaceOnUse">
        <stop offset="0"/>
        <stop offset="1" stop-opacity="0"/>
    </radialGradient>
    <path class="st27" d="M16.6 19l1.8 3 1.5-1.8 1 9.7-3.6.4-3.2-8.5z"/>
    <linearGradient id="SVGID_21_" gradientUnits="userSpaceOnUse" x1="3.754" y1="37.936" x2="19.799" y2="7.586">
        <stop offset="0" stop-color="#415168"/>
        <stop offset=".269" stop-color="#2f3646"/>
        <stop offset=".532" stop-color="#9fa4ae"/>
        <stop offset=".774" stop-color="#e3ebf1"/>
        <stop offset="1" stop-color="#a7b6c7"/>
    </linearGradient>
    <path class="st28" d="M17.2 23.9c-3-4-4.7-7.7-3.3-9.2 1.1-1.1 3.9-.4 6.5.7.6-.4 1.3-1.2 2.3-1.9-.4-.3-1.5-.9-1.9-1.1-.4-.2-.9-.4-1.3-.6-.4-.2-.9-.4-1.3-.5-.4-.2-.8-.3-1.2-.4h-.1c-.4-.1-.8-.2-1.2-.4h-.1c-.2 0-.4-.1-.6-.1-.2 0-.4-.1-.6-.1h-.1c-.2 0-.3-.1-.5-.1s-.4-.1-.5-.1h-.6-.6-.5-.6-.5-.1c-.1 0-.3 0-.4.1h-.1c-.1 0-.2 0-.4.1h-.1c-.1 0-.3.1-.4.1h-.1c-.1 0-.2.1-.3.1h-.1c-.1 0-.2.1-.4.2-.1 0-.2.1-.3.2h-.1c-.1.1-.2.1-.3.2-.1.1-.2.1-.3.2 0 0-.1 0-.1.1-.1.1-.2.2-.3.2l-.2.2-.1.1-.1.1s0 .1-.1.1l-.1.1s0 .1-.1.1l-.1.1s0 .1-.1.1l-.1.1s0 .1-.1.1c0 0 0 .1-.1.1 0 0 0 .1-.1.1 0 0 0 .1-.1.1 0 0 0 .1-.1.1 0 0 0 .1-.1.1V17.1c.1.7.2 1.4.5 2.1 0 .1.1.2.1.3 0 .1.1.2.1.3 0 .1.1.2.1.3 0 .1.1.2.1.3v.1c0 .1.1.2.1.3v.1c0 .1.1.2.1.3v.1c0 .1.1.2.1.3 0 .1.1.2.2.3.4.9.5 1 .6 1.1.1.1.1.2.2.4.1.1.1.3.2.4 1.1 2.2 2.5 4.3 4.3 6.6-.7 1-1.1 1.6-1.1 1.6 3.9-.3 7.7-.6 7.7-.6v-8.8c-.5.5-.9.9-1.2 1.3z"/>
    <path class="st25" d="M18.2 23.1l-.9 1.1-.2-.2c-.2-.2-5.3-6.1-3.3-9.4 0 0 .2-.4.8-.6.3-.1.7-.2 1.1-.2 1.2 0 2.9.5 4.8 1.4h.1l-.3.3c-1.9-.9-3.4-1.3-4.5-1.3-.4 0-.7 0-1 .1-.5.2-.6.4-.6.4-1.7 2.8 2.4 8 3.1 8.8l1.2-1.5v9.4h-.3v-8.3z"/>
    <linearGradient id="SVGID_22_" gradientUnits="userSpaceOnUse" x1="20.294" y1="16.968" x2="17.566" y2="14.721">
        <stop offset="0"/>
        <stop offset="1" stop-opacity="0"/>
    </linearGradient>
    <path class="st29" d="M17 18.6s3.3-3.5 5.7-5c0 0-2-1.3-4-2 0 0-3.4 1.2-3.5 6.6 0 0 .6.1.9.1s.9.3.9.3z"/>
    <linearGradient id="SVGID_23_" gradientUnits="userSpaceOnUse" x1="8.328" y1="34.578" x2="15.301" y2="10.536">
        <stop offset="0" stop-color="#2f3646"/>
        <stop offset="1" stop-color="#a7b6c7"/>
    </linearGradient>
    <path class="st30" d="M16.7 30.1l-.2-4.4-1.3 1.4s-4.1-4.8-6-10.1c-1.9-5.2-.5-6.5.4-6.9 0 0-2.4.6-1.7 4.1s3.7 11 7.1 14.1l1.7 1.8z"/>
    <path class="st31" d="M16.2 29.6l-.1-2.6-.9 1.2-.1-.1s-2.2-2.4-4.3-6.2c-2.2-3.8-3.1-6.9-3-9.6H8c-.1 2.7.8 5.8 3 9.5 2 3.4 3.9 5.7 4.3 6.1l1-1.4.1 3.1h-.2z"/>
    <linearGradient id="SVGID_24_" gradientUnits="userSpaceOnUse" x1="19.594" y1="16.433" x2="10.228" y2="21.692">
        <stop offset="0" stop-color="#415168"/>
        <stop offset="1" stop-color="#a7b6c7"/>
    </linearGradient>
    <path class="st32" d="M16.7 30.1l-.4-.5-1.3-1.1c-1-1.3-5.9-7.5-7.1-13.3-.6-3 .2-4.3 1.2-4.9 0 0 0-.1.1-.1-1.1.5-2.1 1.8-1.9 4.9C7.7 20.9 14 29 14 29l-1 1.3 3.7-.2z"/>
    <radialGradient id="SVGID_25_" cx="16.126" cy="26.005" r="14.94" gradientUnits="userSpaceOnUse">
        <stop offset="0" stop-color="#a4ff00"/>
        <stop offset="1" stop-color="#7bbf00"/>
    </radialGradient>
    <path class="st33" d="M15.3 28.2l-.2-.2c-.1-.1-.2-.3-.4-.5s-.4-.5-.7-.8c-.1-.2-.3-.3-.4-.5-.1-.2-.3-.4-.4-.6-.3-.4-.6-.9-.9-1.3-.1-.1-.2-.2-.2-.4-.1-.1-.2-.3-.2-.4-.2-.3-.3-.5-.5-.8-.2-.3-.3-.5-.5-.8-.2-.3-.3-.6-.5-.9l-.9-1.8-.2-.5c-.1-.2-.1-.3-.2-.5-.1-.1-.1-.3-.2-.4l-.1-.2-.1-.2-.3-.9c-.1-.3-.2-.6-.2-.9l-.3-1.8c0-.6 0-1.1.1-1.6s.3-.9.6-1.2c.3-.3.6-.5.8-.6.3-.4.5-.4.7-.4h0c-.2 0-.4.1-.6.2-.3.1-.6.3-.9.6-.3.2-.5.7-.7 1.2-.1.5-.2 1.1-.2 1.7 0 .6.1 1.2.2 1.9.1.3.1.6.2 1 .1.3.2.6.3 1l.1.2.1.2c.1.2.1.3.2.5s.1.3.2.5l.2.5c.2.6.5 1.3.8 1.9.1.3.3.6.4.9.1.3.3.6.5.9.1.3.3.6.5.8.1.1.2.3.2.4.1.1.2.3.2.4.3.5.6 1 .9 1.4.1.2.3.4.4.6.1.2.3.4.4.5.2.3.5.6.6.9.2.2.3.4.4.5.1.1.4.5.4.5l.4-1z"/>
    <radialGradient id="SVGID_26_" cx="16.037" cy="25.748" r="14.707" gradientUnits="userSpaceOnUse">
        <stop offset="0" stop-color="#a4ff00"/>
        <stop offset="1" stop-color="#7bbf00"/>
    </radialGradient>
    <path class="st34" d="M14 28s-2.9-3.9-5.1-8.7-1.3-8-.1-8.8c0 0-1.8 1.1-.7 5.6 0 0 1.1 4 3.4 7.7l2.6 4-.1.2z"/>
    <radialGradient id="SVGID_27_" cx="16.441" cy="26.152" r="14.707" gradientUnits="userSpaceOnUse">
        <stop offset="0" stop-color="#a4ff00"/>
        <stop offset="1" stop-color="#7bbf00"/>
    </radialGradient>
    <path class="st35" d="M14.1 29.7l2.1-.1-.1-2.6z"/>
    <linearGradient id="SVGID_28_" gradientUnits="userSpaceOnUse" x1="41.839" y1="41.228" x2="47.011" y2="64.287">
        <stop offset="0" stop-color="#415168"/>
        <stop offset="1" stop-color="#a7b6c7"/>
    </linearGradient>
    <path class="st36" d="M33 46.9s6 5 13 6.7c7.1 1.7 8-1.6 8.1-2.4 0 0-1.2 3.6-7.2 1.8s-13.1-6.8-13.1-6.8-1.1.2-.8.7z"/>
    <linearGradient id="SVGID_29_" gradientUnits="userSpaceOnUse" x1="5.694" y1="29.484" x2="48.205" y2="29.484">
        <stop offset="0" stop-color="#415168"/>
        <stop offset=".269" stop-color="#2f3646"/>
        <stop offset="1" stop-color="#a7b6c7"/>
    </linearGradient>
    <path class="st37" d="M48.1 15.3c-.1-1.1-.3-2.2-.7-3.1-.4-1-.9-1.8-1.5-2.6-.1-.1-.2-.2-.2-.3-.1-.1-.2-.2-.2-.3-.1-.1-.2-.2-.3-.2l-.1-.1-.1-.1c-.3-.3-.7-.5-1.1-.7-.7-.4-1.5-.7-2.2-.9h-.2c.5.2.9.5 1.4.8 8.4 4.7 2.2 17.7 2.2 17.7-.9 2.3-2.2 4.5-3.6 6.7s-3 4.3-4.7 6.2c-1.7 2-3.6 3.8-5.6 5.4-2 1.6-4.1 3.1-6.2 4.3-2.1 1.2-4.3 2.1-6.5 2.7-1.1.3-2.1.4-3.2.5-1 .1-2 0-3-.2-.9-.2-1.8-.5-2.5-1-.4-.2-.7-.5-1-.8-.3-.3-.6-.5-.9-.9-1.2-1.6-1.8-3.4-2-4.7 0 0 .1.9.2 1.3.1.5.9 3 1.4 3.6.3.3.5.7.9 1 .3.3.7.6 1.1.9.8.5 1.7 1 2.7 1.2 1 .3 2.1.4 3.2.4s2.3-.2 3.4-.4c1.1-.3 2.3-.6 3.4-1s2.3-1 3.4-1.6c2.2-1.2 4.4-2.7 6.5-4.3 2.1-1.7 4-3.6 5.8-5.6 1.8-2 3.4-4.2 4.8-6.4.7-1.1 1.4-2.3 2-3.4.6-1.2 1.1-2.3 1.6-3.5.9-2.4 1.6-4.8 1.8-7.1.1-1.3.1-2.4 0-3.5z"/>
    <radialGradient id="SVGID_30_" cx="28.03" cy="37.923" r="33.318" gradientUnits="userSpaceOnUse">
        <stop offset="0" stop-color="#a4ff00"/>
        <stop offset="1" stop-color="#7bbf00"/>
    </radialGradient>
    <path class="st38" d="M37.1 6.9c.6-.1 1.6-.2 2.8-.2.6 0 1.3.1 2 .3.7.2 1.5.4 2.2.8.4.2.7.4 1.1.7.1.1.2.1.3.2.1.1.2.2.3.2.1.1.2.2.3.2.1.1.2.2.2.3.7.7 1.2 1.6 1.6 2.6.4 1 .6 2.1.8 3.2.1 1.1.1 2.3 0 3.5-.2 2.4-.9 4.8-1.8 7.2-.5 1.2-1 2.4-1.6 3.6-.6 1.2-1.3 2.4-2 3.5-1.5 2.3-3.1 4.5-5 6.6l-.7.8c-.2.3-.5.5-.7.7l-.4.4-.5.4-.7.7c-1 .9-2 1.8-3.1 2.7-1.1.9-2.2 1.6-3.3 2.4-1.1.7-2.3 1.4-3.4 2-1.2.6-2.3 1.1-3.5 1.6-1.2.4-2.4.8-3.5 1-1.2.2-2.3.4-3.5.3-1.1 0-2.2-.2-3.2-.5s-1.9-.8-2.7-1.4c-.1-.1-.2-.2-.3-.2l-.1-.1-.1-.1-.5-.5c-.1-.1-.2-.2-.2-.3-.1-.1-.1-.2-.2-.3-.1-.2-.2-.2-.2-.3-.1-.1-.1-.2-.2-.3-.5-.7-.8-1.5-1-2.2-.2-.7-.4-1.4-.4-2-.2-1.2-.2-2.1-.2-2.7 0-.3.1 1.4.3 2.6.1.6.3 1.3.5 2s.6 1.4 1 2c.1.1.1.2.2.3.1.1.1.2.2.2.1.2.2.3.3.3.1.1.1.2.2.2.1.2.3.3.5.5l.1.1.1.1c.1.1.2.1.3.2.7.5 1.6 1 2.5 1.2 1.9.6 4.1.5 6.4 0 1.1-.2 2.3-.6 3.4-1s2.3-1 3.4-1.6c2.2-1.2 4.4-2.7 6.5-4.4 1-.8 2-1.7 3-2.7l.7-.7.4-.4.3-.4.7-.7.7-.8c1.8-2 3.5-4.2 4.9-6.4.7-1.1 1.4-2.3 2-3.4.6-1.2 1.2-2.3 1.6-3.5.9-2.3 1.6-4.7 1.9-7 .1-1.1.2-2.3.1-3.3-.1-1.1-.3-2.1-.6-3-.3-.9-.8-1.8-1.4-2.5-.1-.1-.1-.2-.2-.3l-.2-.2-.2-.2c-.2.1-.3 0-.3 0-.3-.3-.7-.5-1-.7-.7-.4-1.4-.7-2.1-.9-.7-.2-1.3-.3-1.9-.3-1.3-.2-3.2-.1-2.9-.1z"/>
    <linearGradient id="SVGID_31_" gradientUnits="userSpaceOnUse" x1="35.657" y1="37.506" x2="30.25" y2="45.524">
        <stop offset="0" stop-color="#415168"/>
        <stop offset=".269" stop-color="#2f3646"/>
        <stop offset="1" stop-color="#a7b6c7"/>
    </linearGradient>
    <path class="st39" d="M30.9 45.1l.2.1 1.6-1.3-.2-1.4c-.2 0-.4-.1-.6-.1-1.2 0-2.3 1-2.3 2.3v.1l1.3.3z"/>
    <linearGradient id="SVGID_32_" gradientUnits="userSpaceOnUse" x1="5.82" y1="29.928" x2="49.166" y2="29.928">
        <stop offset="0" stop-color="#677486"/>
        <stop offset="1" stop-color="#a7b6c7"/>
    </linearGradient>
    <path class="st40" d="M44.2 7.8c.8.4 1.5 1 2.2 1.7.7.7 1.3 1.6 1.7 2.6.4 1 .7 2.1.9 3.2.2 1.1.2 2.3.1 3.6-.2 2.4-.8 5-1.7 7.5-.9 2.5-2.1 5-3.6 7.3-1.5 2.4-3.2 4.6-5.1 6.7-1.9 2.1-3.9 4-6.1 5.8-1.1.9-2.2 1.7-3.4 2.4-1.1.7-2.3 1.4-3.5 2-2.4 1.2-4.8 2-7.2 2.4-1.2.2-2.4.3-3.6.2-1.2-.1-2.3-.3-3.3-.6-1-.4-1.9-.9-2.7-1.5-.4-.3-.7-.6-1-1-.3-.4-.6-.8-.8-1.2-.6-1.2-1.1-2.6-1.3-4.9.1 1.1.4 2 .6 2.7.2.7.6 1.4 1 2.1.5.7 1.1 1.4 1.8 1.9.7.6 1.6 1 2.6 1.3 1.9.6 4.2.7 6.5.2 2.3-.4 4.7-1.3 7-2.5s4.5-2.7 6.7-4.4c2.1-1.7 4.1-3.6 6-5.7 1.8-2.1 3.5-4.3 5-6.6s2.7-4.7 3.6-7.1c.5-1.2.8-2.4 1.2-3.6.3-1.2.5-2.4.6-3.6.2-2.3 0-4.6-.8-6.5-.8-1.9-2.1-3.3-3.6-4.2-1.4-.9-2.9-1.2-4.1-1.3-1.2 0 1.9-.2 4.3 1.1z"/>
    <linearGradient id="SVGID_33_" gradientUnits="userSpaceOnUse" x1="32.407" y1="43.344" x2="37.579" y2="66.403">
        <stop offset="0" stop-color="#415168"/>
        <stop offset="1" stop-color="#a7b6c7"/>
    </linearGradient>
    <path class="st41" d="M33.1 44.1l-1.8 1.3.2 1.6c.2.1.4.1.7.1 1.2 0 2.3-1 2.3-2.3v-.3l-1.4-.4z"/>
    <linearGradient id="SVGID_34_" gradientUnits="userSpaceOnUse" x1="39.376" y1="34.823" x2="49.871" y2="45.974" gradientTransform="matrix(.9997 -.02298 .02298 .9997 4.92 15.738)">
        <stop offset="0" stop-color="#2f3646"/>
        <stop offset="1" stop-color="#a7b6c7"/>
    </linearGradient>
    <path class="st42" d="M54.2 50.9s-2 6.9-19.5-5.4l-.3-1-.9-.3-.3 1.4s18.6 13.2 21 5.3z"/>
    <g>
        <radialGradient id="SVGID_35_" cx="28.052" cy="37.923" r="33.296" gradientUnits="userSpaceOnUse">
            <stop offset="0" stop-color="#a4ff00"/>
            <stop offset="1" stop-color="#7bbf00"/>
        </radialGradient>
        <ellipse class="st43" cx="32.2" cy="44.8" rx="1.4" ry="1.3"/>
        <radialGradient id="SVGID_36_" cx="28.052" cy="37.923" r="33.296" gradientUnits="userSpaceOnUse">
            <stop offset="0" stop-color="#a4ff00"/>
            <stop offset="1" stop-color="#7bbf00"/>
        </radialGradient>
        <path class="st44" d="M33.1 44.8l.2.2c.1.1.3.3.6.5s.6.5 1 .8c.2.1.4.3.6.5.2.2.4.3.7.5.5.3 1 .7 1.6 1.1.1.1.3.2.4.3.1.1.3.2.4.3l.9.6c.3.2.6.4 1 .6.3.2.7.4 1 .5.7.3 1.4.7 2.1 1l.5.2c.2.1.4.1.5.2.2.1.4.1.5.2l.3.1.3.1c.4.1.7.2 1.1.3.4.1.7.2 1.1.3.7.2 1.4.3 2.1.3.7 0 1.3 0 1.9-.1.6-.1 1.1-.4 1.4-.7.4-.3.6-.6.7-.9.1-.3.2-.6.2-.7v-.3.3c0 .2-.1.4-.2.7-.1.3-.3.7-.7 1-.4.3-.9.6-1.4.8-.6.2-1.2.2-1.9.2s-1.4-.1-2.2-.2c-.4-.1-.7-.2-1.1-.2-.4-.1-.7-.2-1.1-.3l-.3-.1-.3-.4c-.2-.1-.4-.1-.6-.2-.2-.1-.4-.1-.6-.2l-.6-.2c-.7-.3-1.5-.6-2.2-.9-.4-.2-.7-.3-1-.5-.3-.2-.7-.4-1-.5-.3-.2-.6-.4-1-.5-.2-.1-.3-.2-.5-.3-.1-.1-.3-.2-.4-.3-.6-.3-1.1-.7-1.6-1-.2-.2-.5-.3-.7-.5-.2-.2-.4-.3-.6-.4-.4-.3-.7-.5-1-.7-.3-.2-.5-.4-.6-.5l-.2-.2.7-.8z"/>
        <radialGradient id="SVGID_37_" cx="28.052" cy="37.923" r="33.296" gradientUnits="userSpaceOnUse">
            <stop offset="0" stop-color="#a4ff00"/>
            <stop offset="1" stop-color="#7bbf00"/>
        </radialGradient>
        <path class="st45" d="M33.3 46.2s4.5 3.4 10.1 5.9c5.6 2.5 9.3 1.5 10.2.1 0 0-1.3 2.1-6.6.9 0 0-4.6-1.2-8.9-3.9l-4.6-3h-.2z"/>
        <path class="st46" d="M50.3 53.3c-1.3 0-2.9-.3-5.2-1.1-7-2.7-11.6-6.8-11.7-6.8l.1-.2s4.7 4.2 11.7 6.8c6.9 2.6 8.6-.3 8.6-.3-.1.1-.7 1.6-3.5 1.6z"/>
    </g>
    <path class="st46" d="M48.1 15.8c0-1-.2-2-.5-2.9-.3-1-.7-1.9-1.3-2.7-.6-.8-1.3-1.5-2.2-2-.8-.5-1.8-.9-2.7-1.2-1-.2-1.9-.4-2.9-.4 1 0 2 .2 2.9.4.9.3 1.9.6 2.7 1.2.8.5 1.5 1.2 2.1 2 .6.8 1 1.7 1.3 2.6.3.9.4 1.9.4 2.9s0 2-.2 2.9c-.1 1-.3 1.9-.6 2.9-.2 1-.5 1.9-.9 2.8l-.2.8-.1.3-.1.3-.3.7-.3.7c-.2.4-.4.9-.6 1.3-.2.4-.5.9-.7 1.3-.5.9-1 1.7-1.5 2.5s-1.1 1.6-1.7 2.4c-.6.8-1.2 1.6-1.8 2.3-.6.8-1.3 1.5-1.9 2.2-.7.7-1.3 1.4-2 2.1-.7.7-1.4 1.3-2.1 2h-.7c-.3 0-.5.1-.8.3-.1 0-.1.1-.2.1 0 .1-.1.1-.1.2s-.1.1-.1.2-.1.1-.1.2-.1.3-.1.4V44.9c-.5.4-1 .9-1.5 1.2-.6.4-1.1.8-1.7 1.2-1.2.7-2.4 1.4-3.6 2-1.2.6-2.5 1.1-3.8 1.5-1.3.4-2.6.7-4 .8-1.4.1-2.7 0-4-.4-.6-.2-1.3-.5-1.9-.8-.6-.3-1.1-.8-1.6-1.2-1-1-1.7-2.1-2.1-3.4-.1-.2-.3-1-.4-1.3 0 0 0 .5.3 1.3.4 1.3 1.1 2.5 2.1 3.5.5.5 1 .9 1.6 1.3.6.4 1.2.7 1.9.9.7.2 1.3.4 2 .4.7.1 1.4.1 2.1 0 1.4-.1 2.7-.4 4.1-.8 1.3-.4 2.6-.9 3.8-1.5 1.2-.6 2.5-1.3 3.6-2 .6-.4 1.2-.8 1.7-1.2.6-.4 1.1-.8 1.6-1.3h.1V45v-.2-.2c0-.1 0-.2.1-.3.1-.2.2-.4.4-.5.2-.1.4-.2.6-.2h1c.7-.7 1.5-1.3 2.2-2 .7-.7 1.4-1.4 2-2.1.7-.7 1.3-1.5 1.9-2.2.6-.8 1.2-1.5 1.8-2.3.6-.8 1.1-1.6 1.7-2.4.5-.8 1-1.7 1.5-2.5.2-.4.5-.9.7-1.3.2-.4.4-.9.6-1.3l.3-.7.3-.7.1-.3.1-.3.3-.7c.3-.9.6-1.9.8-2.8.2-1 .4-1.9.5-2.9.1-1.3.1-2.3.1-3.3z"/>
    <g>
        <path class="st47" d="M72.1 43.9v.8h2.2c.2 0 .5 0 .7.2.1.1.2.4.2.6v.7c0 .2-.1.5-.2.6-.2.2-.5.2-.6.2H72c-.2 0-.5 0-.6-.2-.2-.2-.2-.5-.2-.7V46l.7-.2v.4h2.6v-.9h-2.3c-.1 0-.4 0-.6-.2-.2-.2-.2-.5-.2-.7V44c0-.2 0-.5.2-.7.2-.2.5-.2.6-.2h2.2c.2 0 .5 0 .7.2.2.2.2.5.2.6v.1l-.7.2v-.4h-2.5z"/>
        <path class="st47" d="M78.5 43.9v2.3h2.3v-.8l.8.2v.4c0 .2 0 .5-.2.7-.2.2-.5.2-.7.2h-2.2c-.2 0-.5 0-.7-.2-.2-.2-.2-.5-.2-.7v-1.9c0-.2 0-.5.2-.7.2-.2.5-.2.7-.2h2.2c.2 0 .5 0 .7.2.2.2.2.5.2.7v.4l-.8.1v-.7h-2.3z"/>
        <path class="st47" d="M84.9 46.9h-.8v-3.6h.8v3.6z"/>
        <path class="st47" d="M91.1 43.3v.6h-2.9v.8h1.7v.6h-1.7v.9h2.9v.7h-3.7v-3.6h3.7z"/>
        <path class="st47" d="M96.6 45.4l.4.4v-2.5h.8v3.6h-.6l-2.7-2.2-.3-.3V47h-.8v-3.6h.6l2.6 2z"/>
        <path class="st47" d="M102.3 46.9h-.8v-3h-1.7v-.7h4.2v.7h-1.7v3z"/>
        <path class="st47" d="M106.9 46.9h-.8v-3.6h.8v3.6z"/>
        <path class="st47" d="M113.1 43.3v.7h-2.8v1h1.5v.7h-1.5V47h-.8v-3.6h3.6z"/>
        <path class="st47" d="M116 46.9h-.8v-3.6h.8v3.6z"/>
        <path class="st47" d="M119.3 43.9v2.3h2.3v-.8l.8.2v.4c0 .2 0 .5-.2.7-.2.2-.5.2-.7.2h-2.2c-.2 0-.5 0-.7-.2-.2-.2-.2-.5-.2-.7v-1.9c0-.2 0-.5.2-.7.2-.2.5-.2.7-.2h2.2c.2 0 .5 0 .7.2.2.2.2.5.2.7v.4l-.8.1v-.7h-2.3z"/>
        <path class="st47" d="M130.3 43.3c.2 0 .4 0 .6.2.2.2.2.4.2.5v.8c0 .1 0 .4-.2.5-.2.2-.5.2-.6.2H128v1.4h-.8v-3.6h3.1zm-2.3.6v1h1.8c.1 0 .2 0 .3-.1.1-.1.1-.2.1-.2v-.4c0-.1 0-.2-.1-.2s-.1-.1-.3-.1H128z"/>
        <path class="st47" d="M136.4 43.3c.2 0 .4 0 .6.1.2.2.2.4.2.6v.9c0 .3-.1.4-.2.5-.2.1-.5.2-.6.2h-.5l1.7 1.4h-1.2l-1.5-1.4h-.8V47h-.8v-3.6h3.1zm-2.2.6v1h1.9c.1 0 .2 0 .2-.1.1-.1.1-.2.1-.2v-.4c0-.1 0-.2-.1-.2-.1-.1-.2-.1-.2-.1h-1.9z"/>
        <path class="st47" d="M139.7 44.1c0-.2 0-.5.2-.7.2-.2.5-.2.7-.2h2.7c.2 0 .5 0 .7.2.2.2.2.5.2.7V46c0 .2 0 .5-.2.7-.2.2-.5.2-.7.2h-2.7c-.2 0-.5 0-.7-.2-.2-.2-.2-.5-.2-.7v-1.9zm3.6 2.1v-2.3h-2.8v2.3h2.8z"/>
        <path class="st47" d="M149 43.3c.5 0 1.1.1 1.6.5.3.3.5.7.5 1.3 0 .9-.5 1.4-.8 1.5-.4.2-.9.3-1.5.3h-2.1v-3.6h2.3zm-.3 2.9c.5 0 .9-.1 1.1-.3.3-.3.3-.6.3-.8 0-1-.7-1.1-1.2-1.1h-1.5v2.3h1.3z"/>
        <path class="st47" d="M154.2 46.2h2.4v-3h.8V46c0 .2 0 .5-.2.7-.2.2-.5.2-.7.2h-2.3c-.2 0-.5 0-.7-.2-.2-.2-.2-.5-.2-.7v-2.8h.8v3z"/>
        <path class="st47" d="M160.8 43.9v2.3h2.3v-.8l.8.2v.4c0 .2 0 .5-.2.7-.2.2-.5.2-.7.2h-2.2c-.2 0-.5 0-.7-.2-.2-.2-.2-.5-.2-.7v-1.9c0-.2 0-.5.2-.7.2-.2.5-.2.7-.2h2.2c.2 0 .5 0 .7.2.2.2.2.5.2.7v.4l-.8.1v-.7h-2.3z"/>
        <path class="st47" d="M168.4 46.9h-.8v-3h-1.7v-.7h4.2v.7h-1.7v3z"/>
        <path class="st47" d="M173 46.9h-.8v-3.6h.8v3.6z"/>
        <path class="st47" d="M175.4 44.1c0-.2 0-.5.2-.7.2-.2.5-.2.7-.2h2.7c.2 0 .5 0 .7.2.2.2.2.5.2.7V46c0 .2 0 .5-.2.7-.2.2-.5.2-.7.2h-2.7c-.2 0-.5 0-.7-.2-.2-.2-.2-.5-.2-.7v-1.9zm3.7 2.1v-2.3h-2.8v2.3h2.8z"/>
        <path class="st47" d="M185.5 45.4l.4.4v-2.5h.8v3.6h-.7l-2.7-2.2-.3-.3V47h-.8v-3.6h.6l2.7 2z"/>
        <path class="st47" d="M193.7 43.3l2.1 3.6h-.9l-.4-.8h-2.3l-.4.8h-.8l2-3.6h.7zm.3 2.2l-.8-1.5-.8 1.5h1.6z"/>
        <path class="st47" d="M198.6 43.9v.8h2.2c.2 0 .5 0 .7.2.1.1.2.4.2.6v.7c0 .2-.1.5-.2.6-.2.2-.5.2-.6.2h-2.4c-.2 0-.5 0-.6-.2-.2-.2-.2-.5-.2-.7V46l.7-.2v.4h2.6v-.9h-2.3c-.1 0-.4 0-.6-.2-.2-.2-.2-.5-.2-.7V44c0-.2 0-.5.2-.7.2-.2.5-.2.6-.2h2.2c.2 0 .5 0 .7.2.2.2.2.5.2.6v.1l-.7.2v-.4h-2.5z"/>
        <path class="st47" d="M205 43.9v.8h2.2c.2 0 .5 0 .7.2.1.1.2.4.2.6v.7c0 .2-.1.5-.2.6-.2.2-.5.2-.6.2H205c-.2 0-.5 0-.6-.2-.2-.2-.2-.5-.2-.7V46l.7-.2v.4h2.6v-.9h-2.3c-.1 0-.4 0-.6-.2-.2-.2-.2-.5-.2-.7V44c0-.2 0-.5.2-.7.2-.2.5-.2.6-.2h2.2c.2 0 .5 0 .7.2.2.2.2.5.2.6v.1l-.7.2v-.4H205z"/>
        <path class="st47" d="M210.6 44.1c0-.2 0-.5.2-.7.2-.2.5-.2.7-.2h2.7c.2 0 .5 0 .7.2.2.2.2.5.2.7V46c0 .2 0 .5-.2.7-.2.2-.5.2-.7.2h-2.7c-.2 0-.5 0-.7-.2-.2-.2-.2-.5-.2-.7v-1.9zm3.6 2.1v-2.3h-2.8v2.3h2.8z"/>
        <path class="st47" d="M218.3 43.9v2.3h2.3v-.8l.8.2v.4c0 .2 0 .5-.2.7-.2.2-.5.2-.7.2h-2.2c-.2 0-.5 0-.7-.2-.2-.2-.2-.5-.2-.7v-1.9c0-.2 0-.5.2-.7.2-.2.5-.2.7-.2h2.2c.2 0 .5 0 .7.2.2.2.2.5.2.7v.4l-.8.1v-.7h-2.3z"/>
        <path class="st47" d="M224.7 46.9h-.8v-3.6h.8v3.6z"/>
        <path class="st47" d="M229.7 43.3l2.1 3.6h-.9l-.4-.8h-2.3l-.4.8h-.8l2-3.6h.7zm.4 2.2l-.8-1.5-.8 1.5h1.6z"/>
        <path class="st47" d="M235.2 46.9h-.8v-3h-1.7v-.7h4.2v.7h-1.7v3z"/>
        <path class="st47" d="M239.8 46.9h-.8v-3.6h.8v3.6z"/>
        <path class="st47" d="M242.3 44.1c0-.2 0-.5.2-.7.2-.2.5-.2.7-.2h2.7c.2 0 .5 0 .7.2.2.2.2.5.2.7V46c0 .2 0 .5-.2.7-.2.2-.5.2-.7.2h-2.7c-.2 0-.5 0-.7-.2-.2-.2-.2-.5-.2-.7v-1.9zm3.6 2.1v-2.3h-2.8v2.3h2.8z"/>
        <path class="st47" d="M252.3 45.4l.4.4v-2.5h.8v3.6h-.6l-2.7-2.2-.3-.3V47h-.8v-3.6h.6l2.6 2z"/>
    </g>
    <g>
        <path class="st48" d="M93.4 35.6H88l-1.5-2.7h-9.8l-1.4 2.7h-5.4l8.5-15h6.3l8.7 15zm-8.7-5.9L81.6 24l-3.1 5.6h6.2z"/>
        <path class="st48" d="M111.1 35.6H95.4v-15h4.8v11.1h10.9v3.9z"/>
        <path class="st48" d="M132.2 27c0 1.3-.3 2.4-.9 3.2-.8 1-1.9 1.6-3.5 1.6h-9.6v3.8h-4.8v-15h13.2c2.2 0 3.7.5 4.6 1.5.8.8 1.1 2 1.1 3.7V27zm-5-.5v-.6c0-1.1-.7-1.6-2-1.6h-7.1v3.8h7.5c1.1 0 1.6-.6 1.6-1.6z"/>
        <path class="st48" d="M154.5 35.6h-4.8v-5.7h-10.2v5.7h-4.8v-15h4.8v5.3h10.2v-5.3h4.8v15z"/>
        <path class="st48" d="M180 35.6h-5.4l-1.5-2.7h-9.8l-1.4 2.7h-5.4l8.5-15h6.3l8.7 15zm-8.7-5.9l-3.1-5.6-3.1 5.6h6.2z"/>
        <path class="st48" d="M207.8 35.6h-17.6v-15h17.3V24h-12.4v2.4h11.8v3.1h-11.8V32h12.7v3.6z"/>
        <path class="st48" d="M230.7 31.2c0 1.4-.4 2.5-1.1 3.2-.9.9-2.5 1.3-4.7 1.3h-7.8c-2.4 0-4.1-.4-5.1-1.1-1.2-.8-1.9-2.3-1.9-4.4v-4.5c0-2.1.6-3.5 1.9-4.4 1-.7 2.7-1.1 5.1-1.1h5.7c2.9 0 4.8.3 5.9.9 1 .5 1.6 1.5 1.8 3 0 .4.1 1 .1 1.7h-4.8v-.4c0-.9-.8-1.4-2.3-1.4h-5.3c-1.2 0-2 .3-2.5.8-.4.5-.6 1.2-.6 2.2v1.6c0 1.1.2 1.9.5 2.3.4.5 1.1.7 2.2.7h5.2c1.1 0 1.8-.1 2.1-.3.5-.3.7-.9.7-1.8h4.8v1.7z"/>
        <path class="st48" d="M254.8 30.3c0 2.1-.6 3.5-1.8 4.4-1.1.7-2.8 1.1-5.1 1.1H240c-2.4 0-4.1-.4-5.1-1.1-1.2-.8-1.9-2.3-1.9-4.4v-4.5c0-2.1.6-3.5 1.9-4.4 1-.7 2.7-1.1 5.1-1.1h7.8c2.4 0 4.1.4 5.1 1.1 1.2.8 1.8 2.3 1.8 4.4v4.5zm-5-1.4v-1.6c0-1-.2-1.8-.6-2.2-.5-.5-1.3-.8-2.5-.8H241c-1.2 0-2 .3-2.5.8-.4.5-.6 1.2-.6 2.2v1.6c0 1.1.2 1.9.5 2.3.4.5 1.1.7 2.2.7h6.2c1.1 0 1.9-.2 2.2-.7.6-.4.8-1.2.8-2.3z"/>
        <circle class="st0" cx="183.4" cy="28.1" r="2.6"/>
    </g>
</symbol><symbol id="ico-magnet" viewBox="0 0 34.2 32.6">
    <style>
        .st0{fill:#262e39}
    </style>
    <path class="st0" d="M25.6 0h8.5c0 .2.1.5.1.7V16C34.1 24.1 28 31.2 20 32.5 11.2 33.9 3 28.6.7 20.1.2 18.5 0 17 0 15.4V.8C0 .6 0 .3.1 0h8.5v15.5c0 3.7 2.3 6.9 5.6 8.1 5.5 2 11.4-2 11.5-7.9.1-4.8 0-9.7 0-14.5-.1-.3-.1-.7-.1-1.2zm1.5 7.1v8c0 .7-.1 1.4-.1 2-.8 5.4-6.2 9.3-11.5 8.3-4.9-.9-8.2-4.9-8.2-9.9V8.2v-1H1.6v8.7c0 .9.1 1.9.3 2.8 1.6 8.2 9.4 13.6 17.5 12.6 7.3-1 13.2-7.2 13.5-14.6.1-3 .1-5.9.1-8.9 0-.2-.1-.4-.1-.5-2.1-.2-3.9-.2-5.8-.2zm-20-5.7c-1.7-.2-5-.1-5.6.1v4.1h5.6V1.4zm20 4.2h5.6V1.4h-5.6v4.2z"/>
</symbol><symbol id="ico-mail" viewBox="0 0 39.7 32.3">
    <style>
        .st0{fill:#262e39}
    </style>
    <path class="st0" d="M20 0h14.6c2.5 0 4.6 1.9 5 3.9.1.4.1.9.1 1.3v22c0 2.6-2.4 5.1-5.1 5.1H5c-2.7 0-5.1-2.5-5.1-5.1.1-7.3.1-14.7 0-22C0 2.5 2.4 0 5.2 0 10.1.1 15 0 20 0zM2.5 9.7c0 .2-.1.3-.1.5v17.2c0 1.6.9 2.4 2.5 2.4h29.7c1.7 0 2.6-.9 2.6-2.6V10.4c0-.2 0-.4-.1-.7-.4.2-.7.4-1 .6-5.2 3.1-10.3 6.2-15.5 9.3-.6.4-1.1.4-1.7 0-5.1-3.1-10.3-6.2-15.4-9.3-.3-.2-.6-.4-1-.6zm17.4 7.5c.3-.2.6-.3.8-.5 5-3 10-6 15.1-9 .5-.3 1.2-.6 1.4-1 .2-.7.1-1.5 0-2.2-.1-1.2-1-1.9-2.1-2H4.9c-1.5.1-2.3.9-2.4 2.2v.9c-.1.8.2 1.3 1 1.8 5.2 3.1 10.4 6.2 15.6 9.4.2.1.5.2.8.4z"/>
</symbol><symbol id="ico-military" viewBox="0 0 36.6 36.6">
    <style>
        .st0{fill:#262e39}
    </style>
    <path class="st0" d="M18.9 34.2v1.3c0 .2 0 .5-.1.6-.1.2-.4.5-.6.5-.2 0-.5-.3-.5-.5-.1-.4 0-.8-.1-1.2v-.7C8.7 33 3.7 28 2.4 19H.7c-.5-.1-.7-.4-.7-.7.1-.4.3-.6.7-.6h1.7c1.2-8.9 6.2-14 15.2-15.3 0-.2.1-.5.1-.7V.6c0-.3.2-.6.6-.6.4 0 .6.2.6.6V2.5c4.1.3 7.6 1.8 10.5 4.6 2.9 2.9 4.4 6.4 4.7 10.6h1.7c.4 0 .8.1.8.6 0 .4-.2.7-.8.7h-1.6C33 27.9 28 33 18.9 34.2zM3.9 19c.1 8.2 7.7 14 13.8 13.7v-1.6c0-.5.2-.8.6-.8s.6.3.6.8v1.7c4-.2 7.2-1.7 9.9-4.5 2.5-2.6 3.8-5.7 4-9.4H31c-.4 0-.7-.2-.7-.6 0-.4.3-.6.7-.6H32.8C32.6 10.1 26 3.9 18.9 3.9v1.7c0 .4-.2.7-.6.6-.4 0-.6-.2-.6-.6V4.5c0-.2-.1-.5-.1-.7-8.3.3-13.9 7.8-13.7 13.9h1.7c.4 0 .7.2.7.6 0 .4-.3.6-.7.6H5c-.3.1-.7.1-1.1.1z"/>
    <path class="st0" d="M18.3 17.5c.3.4.5.6.6.8.1.3-.3.7-.6.6-.3-.1-.6-.3-.5-.6 0-.2.2-.4.5-.8z"/>
</symbol><symbol id="ico-ok" viewBox="0 0 39.5 39.5">
    <style>
        .st0{fill:#262e39}
    </style>
    <path class="st0" d="M19.7 39.5C8.8 39.5 0 30.6 0 19.7S8.9 0 19.8 0s19.7 8.9 19.7 19.7c0 10.9-8.9 19.8-19.8 19.8zm0-1.3c10.1.1 18.5-8.2 18.5-18.3C38.2 9.7 30 1.4 19.8 1.3 9.7 1.3 1.4 9.5 1.3 19.6c-.1 10.2 8.1 18.5 18.4 18.6z"/>
    <path class="st0" d="M16.7 23.3c.9-1 1.8-1.9 2.7-2.8 2.1-2.1 4.2-4.3 6.4-6.4l.6-.6c.3-.2.6-.2.8.2.1.2.1.5 0 .8-.1.2-.3.3-.4.5l-9.3 9.3c-.8.8-.9.8-1.7 0-1.1-1-2.1-2.1-3.2-3.2l-.4-.4c-.2-.3-.2-.6 0-.8.3-.3.6-.3.9 0 .2.2.4.3.5.5 1.1.9 2 1.9 3.1 2.9z"/>
</symbol><symbol id="ico-pc" viewBox="0 0 45.7 27.1">
    <style>
        .st0{fill:#262e39}
    </style>
    <path class="st0" d="M18.9 25.7h1.3c.2 0 .5 0 .7.1.3.1.6.4.5.7-.1.2-.3.4-.5.6-.1.1-.3 0-.5 0H9.6c-.4-.1-.5-.3-.5-.7 0-.4.2-.6.5-.7h2c.1-1.2 0-2.3 0-3.6H1.3C.6 22 .1 21.5 0 20.8v-.7-18-.7C.1.7.6.2 1.3.2H30c.7.1 1.1.5 1.2 1.2v19.5c-.1.7-.6 1.2-1.3 1.3h-11c-.2.6-.2 2.4 0 3.5zM1.4 1.5v19.2h28.4c.2-1 .2-18.5 0-19.2H1.4zm15.9 24.2v-3.5h-4.2v3.5c.3 0 .5.1.8.1 1.1-.1 2.2-.1 3.4-.1z"/>
    <path class="st0" d="M32.7 13.4V2.1v-.7c.1-.7.5-1.1 1.2-1.2h10.4c.7.1 1.2.5 1.3 1.3v24.2c-.1.8-.6 1.2-1.4 1.3H33.9c-.8-.1-1.2-.6-1.3-1.4v-1.8c.1-3.5.1-7 .1-10.4zm1.5-3.9v15.9h10.1V9.5H34.2zm-.1-1.1c1.1.2 9.5.2 10.2 0 .2-.8-.3-1.7.7-2.2-.8-.4-.7-1-.7-1.6V1.5H34.1v4.1c-.4.2-.7.3-1.2.5.5.3.8.4 1.2.6v1.7z"/>
</symbol><symbol id="ico-phone" viewBox="0 0 36 35.9">
    <style>
        .st0{fill:#262e39}
    </style>
    <path class="st0" d="M28.5 35.9c-1.5-.1-2.9-.4-4.2-1-1.9-.8-3.7-1.9-5.4-3.1C13.2 27.6 8.2 22.6 4 16.9c-1.3-1.7-2.3-3.5-3.1-5.5-.6-1.3-.9-2.6-.9-4s.5-2.5 1.5-3.5l2.7-2.7C6-.5 8.3-.4 9.9 1.6 11 3.1 12.2 4.5 13.3 6c1.2 1.6 1.2 3.2 0 4.9-.2.3-.4.5-.6.8-.8 1-.7 2.1.2 3 .1.2.3.3.5.5l7.6 7.6.6.6c.8.6 1.8.7 2.6.1.4-.3.8-.7 1.3-1 1.3-.9 3-1 4.3 0 1.7 1.2 3.3 2.5 4.9 3.8 1.6 1.3 1.8 3.7.4 5.2l-3.3 3.3c-1 .9-2.1 1.1-3.3 1.1zm-.1-1.4c1.1 0 1.8-.2 2.3-.7 1.1-1.1 2.2-2.1 3.2-3.2.9-1 .8-2.3-.2-3.1-1.6-1.3-3.2-2.5-4.8-3.8-.9-.7-1.8-.6-2.7 0-.4.3-.7.6-1.1.9-.7.5-1.5.7-2.4.7-1 0-1.8-.5-2.5-1.2l-6.9-6.9-1.5-1.5c-1.3-1.4-1.4-3.2-.3-4.8.2-.3.5-.6.7-.9.8-1.1.9-2 0-3C11 5.5 9.9 4 8.7 2.5c-1-1.3-2.3-1.4-3.4-.3l-3 3c-.5.6-.8 1.2-.9 2 0 1 .2 2.1.6 3.2.7 1.9 1.7 3.7 2.9 5.4C9 21.5 14 26.4 19.6 30.6c1.6 1.2 3.3 2.2 5.2 3 1.2.5 2.4.9 3.6.9z"/>
</symbol><symbol id="ico-print" viewBox="0 0 31.2 31.2">
    <style>
        .st0{fill:#262e39}
    </style>
    <path class="st0" d="M25.4 24.8v5c0 1.1-.4 1.4-1.5 1.5H7.3c-1 0-1.4-.4-1.4-1.4v-4-1H3.7c-2.1 0-3.5-1.4-3.6-3.5v-9.1c0-2 1.3-3.3 3.3-3.5H27c.4 0 .8 0 1.2.1 1.9.3 3 1.6 3 3.5v9.1c-.1 2-1.5 3.4-3.5 3.4-.7-.1-1.5-.1-2.3-.1zm0-1.2h2.1c1.6.1 2.5-1.1 2.5-2.6-.1-2.9 0-5.7 0-8.6 0-1.8-.8-2.6-2.5-2.6H3.9c-1.5 0-2.6 1-2.6 2.5.1 2.9 0 5.8 0 8.7v.7c.1.8.7 1.6 1.6 1.8 1 .2 2 .1 3 .1v-1-3.5c0-1.1.4-1.5 1.5-1.5h16.9c.7.1 1.1.4 1.2 1.1v1c-.1 1.2-.1 2.5-.1 3.9zm-1.3-4.8h-17c-.2 2.1-.1 10.5.1 11.1h16.9V18.8z"/>
    <path class="st0" d="M24.2 1.2H7.1V5.9c0 .2 0 .5-.1.7 0 .2-.2.5-.4.5-.2-.1-.4-.3-.6-.5-.1-.1 0-.2 0-.4V.3 0h19.4c0 .2.1.4.1.6v5.5c0 .7-.2 1-.6 1-.4 0-.6-.3-.6-1V2.2c0-.3 0-.6-.1-1z"/>
    <path class="st0" d="M25.4 11.8c1 0 1.9.8 1.9 1.9 0 1-.8 1.9-1.9 1.9-1.1 0-2-.8-2-1.9.1-1.1.9-1.9 2-1.9zm.7 1.9c0-.4-.3-.7-.6-.7s-.6.3-.7.6c0 .4.3.7.7.7.3 0 .6-.3.6-.6z"/>
    <path class="st0" d="M15.6 25.6h4.5c.7 0 1 .2 1 .6 0 .4-.3.6-1 .6h-8.9c-.2 0-.4 0-.5-.1-.2-.1-.4-.4-.4-.6 0-.2.2-.4.4-.5.2-.1.5-.1.7-.1 1.4.1 2.8.1 4.2.1z"/>
    <path class="st0" d="M15.5 23.2h-3.4c-.8 0-1.1-.2-1.1-.6 0-.4.3-.6 1-.6H19.6c.4 0 .6.2.6.6 0 .4-.2.6-.6.6h-4.1z"/>
</symbol><symbol id="ico-recycle" viewBox="0 0 35.9 34.8">
    <style>
        .st0{fill:#262e39}
    </style>
    <path class="st0" d="M8.5 22.4c-.6 1.1-1.2 2-1.8 3.1.4 0 .6.1.9.1h4.9c1 0 1.1.1 1.1 1.1v4.5c0 .8-.1 1-1 1H2.7c-.7 0-.9-.1-1-.8l-1.8-6.6c-.1-.4 0-.7.2-1 .7-1.2 1.4-2.5 2.1-3.7.2-.3.3-.5.5-.8-.6-.3-1-.6-1.5-.9-.3-.2-.5-.4-.4-.7.1-.6.4-.7.7-.7 2.2-.4 4.3-.9 6.5-1.3.6-.1.8 0 1 .6.7 2 1.4 4.1 2.1 6.1.1.3.2.7-.2.9-.2.1-.6.1-.9 0-.4-.2-.9-.5-1.5-.9zm-4-3.7c-1 1.7-1.9 3.4-2.9 5-.3.5-.3.9-.2 1.5.4 1.3.7 2.6 1.1 3.9.1.2.2.4.3.8 1.8-3.1 3.5-6.1 5.3-9.1.5.2.9.4 1.4.7-.6-1.6-1.1-3-1.6-4.5-1.6.3-3 .6-4.6.9.5.3.9.6 1.2.8zm7.9 8.3c-.1 0-.2-.1-.3-.1H6.4c-.4 0-.6.2-.8.5-.6 1-1.1 1.9-1.7 2.9-.1.2-.1.4-.2.6h8.6c.1-1.4.1-2.6.1-3.9z"/>
    <path class="st0" d="M24.3 32.2V34c0 .3 0 .6-.4.8-.3.1-.6 0-.8-.3-1.5-1.7-2.9-3.4-4.4-5-.3-.4-.3-.7 0-1.1 1.5-1.7 2.9-3.4 4.4-5 .2-.2.4-.4.8-.3.3.2.4.4.4.8v1.8h3.6c-.1-.2-.1-.4-.3-.6-.8-1.5-1.7-2.9-2.6-4.4-.5-.9-.5-1 .4-1.5 1.3-.7 2.5-1.5 3.8-2.2.8-.5 1-.4 1.5.4l4.8 8.4c.4.7.4.9-.2 1.5L30.6 32c-.4.4-.7.5-1.2.5-1.6-.3-3.2-.3-5.1-.3zM23.2 31h5.7c.5 0 .9-.1 1.3-.5.9-1 1.9-1.9 2.8-2.8.2-.2.3-.3.6-.7H23.1c-.1-.5-.1-1-.2-1.6-1.1 1.3-2.1 2.4-3.1 3.5 1 1.2 2 2.3 3.1 3.5.2-.5.2-.9.3-1.4zm11-5.3c-1.5-2.6-3-5.1-4.4-7.7-1.2.7-2.3 1.3-3.4 2v.3c1 1.7 1.9 3.4 2.9 5.1.2.3.4.4.7.4 1.3-.1 2.6-.1 4.2-.1z"/>
    <path class="st0" d="M19.3 10.4c-.6-1.1-1.2-2-1.8-3.1-.2.2-.3.4-.4.6-.8 1.4-1.7 2.9-2.5 4.3-.5.9-.7 1-1.6.5-1.3-.7-2.5-1.5-3.8-2.2-.8-.5-.9-.6-.5-1.4C10.3 6.3 12 3.5 13.6.6c.4-.6.6-.7 1.3-.5 2.2.6 4.3 1.2 6.5 1.7.5.1.8.4 1.1.8.8 1.5 1.7 2.9 2.5 4.4.6-.3 1.1-.6 1.6-.9.3-.2.6-.3.9 0 .3.2.3.5.1.8-.7 2.1-1.4 4.2-2.1 6.2-.2.6-.4.7-1 .6-2.2-.4-4.3-.8-6.5-1.2-.2 0-.5-.2-.6-.3-.2-.3-.1-.7.3-.9.4-.3 1-.6 1.6-.9zm6.5-2.3c-.5.2-.9.4-1.3.6l-2.1-3.6c-.4-.7-.7-1.6-1.3-2-.6-.5-1.5-.5-2.3-.7-1-.3-2-.5-3.2-.8 1.8 3.2 3.5 6.2 5.3 9.2-.4.3-.8.5-1.3.9 1.6.3 3.1.6 4.6.9.6-1.5 1.1-2.9 1.6-4.5zM14.4 1.9c-1.5 2.6-3 5.1-4.4 7.6 1.2.7 2.3 1.3 3.5 2 1.1-1.9 2.2-3.8 3.3-5.6-.9-1.3-1.6-2.6-2.4-4z"/>
</symbol><symbol id="ico-second" viewBox="0 0 34 37.6">
    <style>
        .st0{fill:#262e39}
    </style>
    <path class="st0" d="M15.6 3.6V1.1c0-.9.2-1 1-1.1 1.7-.1 1.8 0 1.8 1.7v1.9c4 .4 7.5 2 10.4 4.8.4-.5.8-1 1.2-1.4-.2-.2-.5-.5-.7-.8-.3-.4-.3-.7 0-1.1.1-.2.3-.3.5-.5.6-.5.8-.5 1.4 0L33.6 7c.5.5.5.8 0 1.3-.1.2-.3.3-.5.5-.4.4-.7.4-1.1 0-.3-.2-.5-.5-.8-.8-.4.5-.9.9-1.3 1.4 3 3.6 4.4 7.8 4.1 12.5-.3 3.8-1.7 7.1-4.2 9.9-4.9 5.5-12.8 7.3-19.5 4.3-6.6-3-11-9.9-10-17.7.7-7.5 6.8-14 15.3-14.8zm17 17c.1-8-6.5-15.6-15.6-15.7-8.6 0-15.6 7-15.6 15.5C1.4 29 8.3 36 17 36.1c8.5.1 15.6-6.9 15.6-15.5z"/>
    <path class="st0" d="M16.3 19.2v-10-.8c.1-.4.4-.6.7-.6.4 0 .6.2.6.5v10c0 .5.1.8.5 1.2 1.2.9 1.2 2.5 0 3.4-.4.3-.5.5-.5 1 0 .6-.3.8-.6.9-.4 0-.7-.3-.7-.9 0-.4 0-.6-.4-.9-1.5-.9-1.3-3 .1-3.7.1 0 .2 0 .3-.1z"/>
</symbol><symbol id="ico-tech" viewBox="0 0 47.5 46.5">
    <style>
        .st0{fill:#262e39}
    </style>
    <path class="st0" d="M10.7 18.3c-.1-.6-.2-1.3-.2-2 0-.9.3-1.3 1.1-1.6.1 0 .1 0 .2-.1 2.1-.7 2.8-.4 3.5 1.6.4 1.4 1.2 1.9 2.6 2 1 .1 1.6-.2 2-1.1.2-.5.5-.9.9-1.3.5-.7 1.1-.8 1.9-.6.2.1.4.1.5.2 1.7.8 2.1 1.4 1.4 3.2v.1c-.8 2.1-.8 1.8.8 3.6.4.4.9.5 1.4.3l1.8-.6c1.2-.3 1.8-.1 2.4 1 .1.1.1.2.2.3.7 1.5.5 2.2-.9 3.1-.4.2-.8.5-1.2.7-.1.1-.2.1-.3.2-1 .7-.8 3.2.3 3.7.6.3 1.3.5 1.9.8 1.1.5 1.3 1 1.2 2.1 0 .2-.1.4-.1.6-.4 1.5-1 1.8-2.5 1.7-.6-.1-1.3-.2-1.9-.3-.5-.1-1 .1-1.3.5-.1.2-.3.3-.4.5-.7.7-.8 1.5-.2 2.4.4.6.7 1.2.9 1.8.3.7.1 1.4-.5 1.9-.3.2-.5.4-.8.6-1.2.7-1.9.6-2.9-.4-.5-.5-.9-1-1.3-1.6-.3-.4-.8-.6-1.3-.5-.2 0-.4.1-.5.1-1 .2-1.6.7-1.7 1.7-.1.7-.3 1.3-.5 2-.1.5-.4.9-.9 1-1.1.4-2.1.2-3-.4-.5-.3-.6-1-.7-1.6v-2c0-.6-.2-1.1-.8-1.3-1.9-.9-1.7-.8-3.1.3-.4.3-.9.7-1.4 1-.7.4-1.4.4-2-.1-.2.2-.3.1-.4.1-1.6-1.4-1.6-2.2-.3-3.8.3-.3.5-.6.8-.9.2-.2.3-.4.4-.6.3-.9-.8-2.8-1.8-2.9-.6-.1-1.1-.1-1.7-.1-1.5 0-2.2-.5-2.3-2.1 0-.2-.1-.3-.1-.5-.1-1.2.3-1.8 1.5-2.1.6-.2 1.2-.3 1.8-.4.7-.1 1.1-.4 1.3-1.1.6-2.3.7-2-.9-3.4l-.1-.1c-1.6-1.4-1.3-3.3.5-4.3.5-.3 1-.3 1.4 0 .6.3 1.2.6 1.8 1 .7.4 1.3.4 1.8-.1.3-.3.7-.5 1.1-.8.5-.2.7-.7.6-1.4zM13.6 43v1.2c0 .6.4.9 1.1 1 .7.1 1-.1 1.2-.7.1-.4.2-.8.2-1.3.4-2.1.7-2.5 3.2-3h.2c.9-.2 1.7.1 2.3.8.4.5.9 1.1 1.3 1.6.5.6.8.6 1.5.1s.8-.8.5-1.5l-.9-1.5c-.4-.7-.6-1.4-.3-2.1.5-1 1.1-2 2.2-2.6.3-.1.6-.1.9-.1.8.1 1.5.2 2.3.3.3 0 .7.1.9-.1.5-.4.6-.9.5-1.5 0-.5-.4-.6-.8-.7-.6-.3-1.3-.5-1.9-.8-.7-.3-1.1-.8-1.2-1.6-.1-.7-.1-1.4-.1-2-.1-.9.3-1.6 1.1-2 .6-.3 1.1-.6 1.7-1 .6-.4.7-.7.4-1.5-.4-.8-.6-.9-1.3-.7l-1.8.6c-.8.2-1.5.1-2.1-.5-.5-.5-.9-1-1.4-1.5-.6-.7-.7-1.4-.4-2.2l.6-1.8c.2-.4 0-.7-.3-1-.1-.1-.3-.2-.4-.2-.9-.4-1.1-.4-1.6.5-.3.5-.5.9-.8 1.3-.5.7-1.1 1-2 1-.7-.1-1.4-.1-2.1-.2-.8-.1-1.4-.6-1.7-1.4-.2-.5-.4-1.1-.6-1.7-.3-.7-.5-.8-1.2-.6-.2 0-.4.1-.5.1-.5.1-.7.4-.6.9.1.6.2 1.3.2 1.9.1.8-.2 1.4-.8 1.9-.5.4-1.1.8-1.6 1.2-.8.6-1.7.6-2.6.1-.4-.2-.9-.5-1.4-.7-.3-.1-.6-.2-.9-.1-1 .4-1.1 1.5-.3 2.2 2.1 1.7 2.3 1.9 1.3 5-.3.9-.8 1.5-1.8 1.7l-1.8.3c-.7.1-.9.4-.8 1.1.1 1 .2 1.2 1 1.2.7 0 1.4.1 2.1.1.8 0 1.3.4 1.7 1.1.2.3.3.6.5.9.8 1.4.7 2.6-.5 3.8-.3.3-.5.6-.7.8-.5.6-.5.8 0 1.4.7.8 1 .8 1.9.1.3-.3.7-.5 1-.8 1-.8 2-.9 3.2-.4 2 1 2.3 1.4 2.2 3.6z"/>
    <path class="st0" d="M31.8 3.1c-.1-.5-.2-.9-.2-1.3-.1-.8.2-1.2.9-1.5.2-.1.4-.1.5-.2 1.3-.3 1.7-.1 2.2 1.1 0 .1.1.1.1.2.2 1 .8 1.4 1.8 1.4.5 0 .8-.1 1.1-.5.2-.3.4-.7.7-1 .5-.7 1-.8 1.8-.5.3.1.6.3.8.4.7.4.8.9.7 1.7-.1.4-.2.7-.4 1.1-.3.6-.2 1.1.3 1.5l.3.3c.3.4.7.4 1.1.3.4-.1.9-.3 1.3-.4.7-.2 1.2 0 1.6.6.2.3.3.7.4 1 .3.6.1 1.2-.5 1.6-.4.3-.8.5-1.2.7-.5.3-.8.6-.7 1.2.1.6.1 1.2.9 1.4.4.1.9.3 1.3.6.7.4.8.8.7 1.6-.1.3-.1.6-.3.9-.3.8-.8 1.1-1.7 1-.5-.1-1-.1-1.5-.2-.6-.1-.9.2-1.2.7-.3.4-.5.8-.2 1.3.3.4.5.9.7 1.3.4.8.2 1.4-.5 2-.2.1-.4.3-.5.4-.9.5-1.3.4-2-.3-.3-.3-.7-.7-1-1.1-.4-.5-.8-.5-1.3-.3-.5.1-.9.3-1 .9-.1.5-.2.9-.3 1.4-.3 1-.7 1.3-1.7 1.3-1.5 0-2-.5-2-2V21c0-1-.4-1.5-1.4-1.6-.3 0-.6.1-.8.3-.5.3-.9.7-1.3 1-.5.3-1.1.3-1.5-.1-.2-.2-.4-.3-.5-.5-.8-.9-.8-1.4-.1-2.3.2-.2.4-.5.6-.7.4-.4.6-.9.3-1.5s-.6-1.1-1.4-1c-.5 0-.9-.1-1.4-.1-.6-.1-1-.4-1.1-1-.1-.3-.1-.6-.1-.9 0-1.1.3-1.5 1.3-1.7.2 0 .4-.1.5-.1 1.3-.2 1.4-.4 1.7-1.6.1-.4 0-.7-.3-1-.3-.3-.7-.6-1-.9-.6-.7-.7-1.1-.2-1.9.1-.2.2-.4.4-.5.7-.8 1.1-.9 2.1-.5.2.1.3.2.5.3.4.2.8.5 1.1.4.5-.2 1-.5 1.4-.9.2-.6.2-1 .2-1.1zM28 18.4c.6 1 .7 1 1.6.3.2-.2.5-.4.7-.6.6-.5 1.2-.5 1.9-.2.3.1.6.3.9.4.8.4 1.1 1 1.1 1.8v1c0 .7.1.9.6.9.5.1.7-.1.8-.8.1-.4.1-.7.2-1.1.1-.4.3-.8.6-1 .7-.6 1.5-.7 2.4-.7.7 0 1.1.5 1.5.9.3.4.7.8 1.1 1.2.4-.3.7-.5 1-.8-.3-.6-.5-1-.8-1.5-.5-.8-.4-1.5.1-2.3.2-.2.3-.5.5-.7.4-.6 1-.8 1.7-.7.5.1 1 .2 1.6.2.4.1.6-.2.7-.5.1-.4 0-.7-.4-.8-.5-.2-.9-.4-1.4-.6-.5-.2-.8-.5-.9-1-.1-.6-.1-1.3-.1-1.9 0-.6.3-1.1.8-1.4.4-.2.7-.5 1.1-.6.4-.2.5-.5.3-.9-.1-.2-.2-.3-.3-.5-.3.1-.5.1-.7.2-1.9.6-2.3.5-3.5-1l-.1-.1c-.5-.6-.7-1.3-.4-2.1.1-.3.3-.7.4-1 .1-.3 0-.6-.3-.7-.2.2-.4.2-.6.1-.2.3-.4.6-.5.9-.5 1-1.3 1.5-2.4 1.3h-.5c-1.1-.1-1.9-.6-2.2-1.7-.1-.4-.3-.7-.4-1.2-.4.1-.8.2-1.1.3-.1.7 0 1.3 0 1.9 0 .3-.1.7-.2 1-.6.7-1.3 1.3-2.3 1.6-.8.2-1.5-.1-2-.6l-.1-.1c-.5-.3-.7-.2-1 .2-.3.4-.2.7.2.9.2.1.3.2.4.4.9.7 1.2 1.6.8 2.6-.1.2-.1.4-.2.6-.2.9-.8 1.4-1.7 1.5-.5.1-1 .2-1.4.3-.2 1.2-.1 1.3.9 1.3h.8c.8 0 1.4.4 1.7 1.1.1.2.2.5.4.8.5.9.3 1.7-.3 2.4-.3.2-.7.6-1 1z"/>
    <path class="st0" d="M16.2 34.4c-2.5 0-4.5-2.1-4.4-4.5.1-2.5 2.1-4.4 4.6-4.4 2.5 0 4.5 2.1 4.4 4.5-.1 2.4-2.1 4.4-4.6 4.4zm.1-1.3c1.8 0 3.2-1.4 3.2-3.2 0-1.8-1.5-3.2-3.3-3.2-1.7 0-3.3 1.3-3.2 3.3 0 2.1 1.8 3.2 3.3 3.1z"/>
    <path class="st0" d="M39.3 11.3c0 1.9-1.5 3.4-3.3 3.4-1.9 0-3.4-1.4-3.4-3.3C32.5 9.5 34 8 35.9 8s3.4 1.5 3.4 3.3zm-1.2 0c0-1.2-1-2.1-2.2-2.1-1.2 0-2.1 1-2.1 2.2 0 1.2 1 2.1 2.1 2.1 1.2 0 2.2-1 2.2-2.2z"/>
</symbol><symbol id="ico-time" viewBox="0 0 41.8 41.8">
    <style>
        .st0{fill:#262e39}
    </style>
    <path class="st0" d="M20.8 41.8C9.1 41.7-.2 32.2 0 20.6.2 9.1 9.7-.2 21.1 0c11.7.2 21 9.6 20.7 21.3-.2 11.6-9.6 20.6-21 20.5zM1.6 20.9c0 10.6 8.7 19.3 19.3 19.4 10.7 0 19.4-8.6 19.4-19.3 0-10.7-8.6-19.4-19.3-19.4-10.7-.1-19.4 8.6-19.4 19.3z"/>
    <path class="st0" d="M20.1 20.1v-1.3V6.3v-.8c0-.4.3-.7.7-.7.4 0 .7.2.8.7V20.8c-.1.5-.3.8-.8.8H8.6c-.4-.1-.7-.4-.6-.8 0-.4.2-.6.6-.7h11.5z"/>
</symbol><symbol id="ico-truck" viewBox="0 0 41.3 24.2">
    <style>
        .st0{fill:#262e39}
    </style>
    <path class="st0" d="M20.8 17.2h5v-1.1V4.4v-.7c0-.8.2-1.1 1-1.1h6.9c.6 0 .9.3 1.2.9.7 1.7 1.4 3.4 2.1 5.2.2.6.6.8 1.2.9.6 0 1.1.1 1.7.2 1 .1 1.5.7 1.5 1.7 0 1.4-.1 2.7-.2 4.1-.1 1.3-.2 2.5-.3 3.8-.1 1.6-.7 2.1-2.2 2.1h-.8c-.1.2-.2.4-.3.5-.8 1.5-2 2.2-3.6 2.2s-2.8-.8-3.5-2.2c-.2-.5-.5-.6-1-.6h-14c-.2 0-.4 0-.6.1-.2.3-.3.6-.5.8-1.6 2.6-5.4 2.6-6.8-.1-.4-.7-.8-.9-1.4-.8H5c-.8 0-1-.3-1-1v-1.5c0-.5-.1-.8-.5-1.1-.9-.6-1.7-1.3-2.6-2-.8-.6-.9-.7-.6-1.7l2.1-6.6.6-1.8c.2-.5.5-.7 1-.7 2.9 0 5.9 0 8.8.1h5.4c.5 0 .9-.1 1.3-.6 1-1.3 2-2.5 3-3.8.3-.5.8-.7 1.5-.7h6c.2 0 .6 0 .7.1.2.2.4.5.4.7.1.3-.2.6-.5.7-.3.1-.6.1-.8.1h-5.6C23 6.7 22 11.9 20.8 17.2zm1.3-13.1c-.1-.1-.2-.2-.3-.2l-.3.6c-.5.5-.9 1-1.3 1.5-.3.5-.8.7-1.3.6H5.2c-.4 0-.8 0-1 .6-.8 2.4-1.6 4.9-2.4 7.4.5.4 1 .8 1.6 1.2 2 1.5 2 1.5 4.4 1.4.4 0 .7-.1 1-.3 1.5-.9 3-.9 4.5 0 .3.2.7.3 1.1.3h4.2c.2 0 .5-.1.8-.1.8-4.4 1.7-8.7 2.7-13zm5.4.1c-.2.9-.2 12.1 0 13h2.8c.5 0 1-.1 1.4-.4 1.4-.9 2.9-.8 4.3 0 .2.1.5.3.7.3h2.6c.2-2 .4-3.9.4-6-1-.1-1.8-.3-2.7-.3-.6 0-1-.3-1.2-.9-.7-1.7-1.4-3.4-2.1-5.2-.2-.5-.5-.7-1-.7h-4.6c-.2.1-.4.2-.6.2zM10.9 17.8c-1.3 0-2.4 1.1-2.4 2.4 0 1.3 1.2 2.5 2.5 2.5s2.4-1.2 2.4-2.5c0-1.4-1.1-2.5-2.5-2.4zm20.6 2.3c0 1.3 1 2.5 2.3 2.5 1.3.1 2.4-1.1 2.5-2.4.1-1.1-1-2.5-2.4-2.5-1.3 0-2.4 1.1-2.4 2.4zM15 19.8h14.9c.1-.3.2-.6.2-.9-.9-.2-14.6-.2-15.3 0 0 .3.1.5.2.9zm-7.8-1H5.5v1h1.4c.1-.3.2-.6.3-1zm30.7 1c.4 0 .8 0 1.2-.1.1-.4.1-.6.1-.9h-1.6c.1.4.2.7.3 1z"/>
    <path class="st0" d="M31.6 9.5h1.9c.5 0 .8.3.8.7 0 .4-.3.7-.8.8-.4.1-.9 0-1.3 0h-2.4c-.2 0-.4 0-.6-.1-.4-.1-.7-.4-.6-.8 0-.4.3-.7.7-.7.8.1 1.5.1 2.3.1z"/>
</symbol><symbol id="ico-tv" viewBox="0 0 35.9 35.9">
    <style>
        .st0{fill:#262e39}
    </style>
    <path class="st0" d="M15.3 8c-.3-.2-.6-.5-.8-.7-2.4-1.8-4.8-3.7-7.1-5.5-.2-.1-.4-.3-.6-.4C6.5 1 6.5.6 6.7.3c.3-.3.7-.4 1-.2.3.2.5.3.7.5 2.9 2.3 5.9 4.5 8.8 6.8.2.2.4.3.7.5 1.7-1.3 3.4-2.6 5-3.9 1.5-1.1 2.9-2.3 4.4-3.4 1-.7 1.4-.8 1.7-.3.3.5.1.9-.7 1.6-2.3 1.7-4.5 3.5-6.8 5.2-.4.3-.7.6-1.2 1 .5 0 .7.1 1 .1 3.6 0 7.1.1 10.7 0 1.9-.1 3.8 1.5 3.8 3.8-.1 6.8 0 13.5 0 20.3 0 1.8-1 3.2-2.6 3.6-.3.1-.7.1-1 .1H3.7c-2 0-3.7-1.7-3.7-3.7.1-6.8.1-13.5 0-20.3 0-2.1 1.7-3.8 3.8-3.8 3.5.1 7 0 10.5 0h.9c.1-.1.1-.2.1-.2zM18 9.8H4c-2 0-2.4.7-2.4 2.4v19.7c0 1.6.4 2.4 2.3 2.4h28.7c.9-.1 1.5-.6 1.6-1.5V32 12.4v-.7c-.1-1.1-.6-1.6-1.7-1.7h-.6c-4.5-.2-9.2-.2-13.9-.2z"/>
    <path class="st0" d="M27.8 22c-.2 2.5-.4 5.1-.6 7.6-.1 1.3-1 2.2-2.3 2.4-3.5.5-7 .6-10.6.6-2.6 0-5.3-.2-7.9-.6-1.4-.2-2.2-.9-2.4-2.3-.2-1.7-.4-3.4-.5-5.2-.1-3.3.1-6.7.5-10 .2-1.5 1-2.2 2.5-2.5 3.9-.6 7.8-.7 11.8-.5 2.2.1 4.4.3 6.7.6 1.4.2 2.2 1 2.3 2.4.2 2.4.3 5 .5 7.5zm-12.2 9.1c2.9-.2 5.7-.4 8.5-.7 1.3-.1 1.4-.3 1.6-1.6.1-1.7.3-3.3.4-5 .1-3.1 0-6.1-.4-9.2-.1-.8-.2-.9-.9-1-.6-.1-1.2-.2-1.7-.2-5.3-.5-10.6-.5-15.9.2-1.2.2-1.3.3-1.5 1.5-.5 2.9-.5 5.9-.5 8.9 0 1.8.3 3.6.4 5.5 0 .6.3.9.9.9.2 0 .4.1.5.1 3 .2 5.8.4 8.6.6z"/>
    <path class="st0" d="M30.9 21.2c-.8 0-1.6-.9-1.5-1.7 0-.8.8-1.5 1.6-1.5s1.6.8 1.6 1.6-.9 1.6-1.7 1.6z"/>
    <path class="st0" d="M32.6 24.5c0 .8-.9 1.6-1.7 1.6-.8 0-1.6-.9-1.5-1.7 0-.8.8-1.5 1.6-1.5.8-.1 1.6.8 1.6 1.6z"/>
    <path class="st0" d="M31 30.9c-.8 0-1.6-.8-1.6-1.6s.8-1.6 1.5-1.6c.8 0 1.6.8 1.7 1.6 0 .8-.8 1.6-1.6 1.6z"/>
</symbol><symbol id="ico-w-machine" viewBox="0 0 29.3 36.3">
    <style>
        .st0{fill:#262e39}
    </style>
    <path class="st0" d="M0 18V2.6C0 1 .9 0 2.5 0h24.3c1.4 0 2.5 1.2 2.5 2.5v31.2c0 1.5-.9 2.5-2.5 2.5H2.5c-1.6 0-2.5-.9-2.5-2.6V18zm28-9.6H1.4v25C1.3 34.9 1.4 35 3 35h24c.6-.1.9-.3.9-1v-.6V9.3c.1-.2.1-.5.1-.9zM1.4 6.9H28V2.1c0-.5-.3-.8-.8-.8H2.6c-1 0-1.1.2-1.2 1.1v3.8c-.1.3 0 .5 0 .7z"/>
    <path class="st0" d="M14.4 32.3c-5.8 0-10.7-4.8-10.7-10.7C3.8 15.8 8.6 11 14.4 11 20.2 11 25 15.8 25 21.7c0 5.7-4.8 10.6-10.6 10.6zM5.1 21.6c0 5.3 4 9.4 9.2 9.4 5.2 0 9.4-4 9.4-9.1 0-5.3-3.9-9.4-9.1-9.5-5.2-.2-9.5 3.9-9.5 9.2z"/>
    <path class="st0" d="M16.3 4.2c0 .6-.6 1.1-1.2 1.1S14 4.7 14 4.1 14.6 3 15.2 3s1.1.6 1.1 1.2z"/>
    <path class="st0" d="M5.3 4.2c0 .6-.5 1.1-1.1 1.1-.6 0-1.1-.6-1.1-1.1 0-.6.5-1.2 1.1-1.2.5 0 1.1.6 1.1 1.2z"/>
    <path class="st0" d="M21.3 4.2c0 .6-.6 1.1-1.2 1.1S19 4.7 19 4.1 19.6 3 20.2 3c.5 0 1.1.6 1.1 1.2z"/>
    <path class="st0" d="M26.3 4.1c0 .5-.6 1.1-1.1 1.2-.6 0-1.1-.5-1.2-1.1 0-.6.6-1.2 1.1-1.2.6 0 1.2.6 1.2 1.1z"/>
</symbol></svg>